<?xml version="1.0" standalone="no"?>
<!DOCTYPE svg PUBLIC "-//W3C//DTD SVG 1.1//EN" "http://www.w3.org/Graphics/SVG/1.1/DTD/svg11.dtd" >
<svg xmlns="http://www.w3.org/2000/svg" xmlns:xlink="http://www.w3.org/1999/xlink" version="1.1">
<metadata>
Created by FontForge 20170731 at Thu Oct 22 23:27:46 2020
 By Aleksey,,,
Copyright (c) 2019 by Mathieu Desjardins. All rights reserved.
</metadata>
<defs>
<font id="EditorialNew-Thin" horiz-adv-x="1925" >
  <font-face 
    font-family="Editorial New Thin"
    font-weight="100"
    font-stretch="normal"
    units-per-em="2048"
    panose-1="0 0 2 0 0 0 0 0 0 0"
    ascent="1638"
    descent="-410"
    x-height="1065"
    cap-height="1638"
    bbox="-655 -614 2587 2253"
    underline-thickness="40"
    underline-position="-204"
    unicode-range="U+0020-277F"
  />
<missing-glyph horiz-adv-x="1146" 
d="M940 1679v-2293h-727v2293h727zM764 1526h-379v-76h150v-84h-152v-76h381v76h-152v84h152v76zM612 1229h-229v-238h381v78h-152v160zM535 1151v-82h-76v82h76zM764 930h-381v-76h152v-86h-152v-76h229v162h152v76zM764 793h-76v-152h-305v-78h381v230zM764 512h-229v-129
h77v53h76v-108h-229v184h-76v-260h381v260zM764 115h-381v-258h381v258zM688 39v-107h-229v107h229zM764 -197h-381v-75h160l-160 -109v-76h381v76h-234l160 109h74v75z" />
    <glyph glyph-name="f_f" unicode="ff" horiz-adv-x="1040" 
d="M967 1679q93 0 155 -60t62 -126q0 -34 -17 -54t-43 -20q-27 0 -45 17.5t-18 52.5q0 26 -3 44t-12.5 40t-33 33.5t-60.5 11.5q-57 0 -95 -26t-57.5 -76t-27.5 -107.5t-8 -136.5v-207h184v-61h-184v-816q0 -51 5 -76.5t26.5 -43.5t57.5 -22.5t105 -4.5v-41h-397v41
q86 0 107.5 25.5t21.5 121.5v816h-405v-816q0 -51 5 -76.5t26.5 -43.5t57.5 -22.5t105 -4.5v-41h-397v41q86 0 107.5 25.5t21.5 121.5v816h-129v61h129v63q0 118 12 205.5t42 159t85.5 108.5t136.5 37q94 0 156 -60t62 -126q0 -34 -17 -54t-43 -20q-27 0 -45 17.5t-18 52.5
q0 26 -3 44t-12.5 40t-33 33.5t-60.5 11.5q-56 0 -94.5 -29t-58 -83t-27.5 -115t-8 -140v-145h405v125q0 118 12.5 202t42.5 151.5t85 101.5t137 34z" />
    <glyph glyph-name="f_f_i" unicode="ffi" horiz-adv-x="1443" 
d="M1274 188q0 -96 21.5 -121.5t107.5 -25.5v-41h-332v41q86 0 107.5 25.5t21.5 121.5v689q0 29 -1 43t-6 33.5t-15 28.5t-30 15.5t-50 6.5h-332v-816q0 -51 5 -76.5t27 -43.5t58 -22.5t105 -4.5v-41h-398v41q86 0 107.5 25.5t21.5 121.5v816h-405v-816q0 -51 5 -76.5
t26.5 -43.5t57.5 -22.5t105 -4.5v-41h-399v41q86 0 107.5 25.5t21.5 121.5v816h-129v61h129v63q0 118 12.5 205.5t42.5 159t86 108.5t137 37q94 0 156 -60t62 -126q0 -34 -17 -54t-43 -20q-27 0 -45 17.5t-18 52.5q0 26 -3 44t-12.5 40t-33 33.5t-60.5 11.5q-56 0 -94.5 -29
t-58 -83t-27.5 -115t-8 -140v-145h405v125q0 118 12.5 202t42.5 151.5t85 101.5t137 34q93 0 155 -60t62 -126q0 -34 -17 -54t-43 -20q-27 0 -45 17.5t-18 52.5q0 26 -3 44t-12.5 40t-33 33.5t-60.5 11.5q-57 0 -95 -26t-57.5 -76t-27.5 -107.5t-8 -136.5v-207h364
q41 0 67 10t56 31l21 -21v-897z" />
    <glyph glyph-name="f_i" unicode="fi" horiz-adv-x="962" 
d="M793 188q0 -96 21.5 -121.5t107.5 -25.5v-41h-332v41q86 0 107.5 25.5t21.5 121.5v689q0 36 -2 53t-11 37.5t-31 28.5t-59 8h-331v-816q0 -51 5 -76.5t26.5 -43.5t57.5 -22.5t105 -4.5v-41h-397v41q86 0 107.5 25.5t21.5 121.5v816h-129v61h129v125q0 93 7 164.5
t26 134.5t49.5 103.5t79 63.5t114.5 23q94 0 156 -60t62 -126q0 -34 -17 -54t-43 -20q-27 0 -45 17.5t-18 52.5q0 26 -3 44t-12.5 40t-33 33.5t-60.5 11.5q-57 0 -95 -26t-57.5 -76t-27.5 -107.5t-8 -136.5v-207h364q41 0 67 10t56 31l21 -21v-897z" />
    <glyph glyph-name="f_l" unicode="fl" horiz-adv-x="921" 
d="M752 188q0 -96 21.5 -121.5t107.5 -25.5v-41h-332v41q86 0 107.5 25.5t21.5 121.5v1242q-18 -11 -33 -11q-27 0 -45 17.5t-18 52.5q0 26 -3 44t-12.5 40t-33 33.5t-60.5 11.5q-57 0 -95 -26t-57.5 -76t-27.5 -107.5t-8 -136.5v-207h184v-61h-184v-816q0 -51 5 -76.5
t26.5 -43.5t57.5 -22.5t105 -4.5v-41h-397v41q86 0 107.5 25.5t21.5 121.5v816h-129v61h129v125q0 93 7 164.5t26 134.5t49.5 103.5t79 63.5t114.5 23t117 -31.5t80 -78.5l47 69l21 -20v-1430z" />
    <glyph glyph-name=".notdef" horiz-adv-x="1146" 
d="M940 1679v-2293h-727v2293h727zM764 1526h-379v-76h150v-84h-152v-76h381v76h-152v84h152v76zM612 1229h-229v-238h381v78h-152v160zM535 1151v-82h-76v82h76zM764 930h-381v-76h152v-86h-152v-76h229v162h152v76zM764 793h-76v-152h-305v-78h381v230zM764 512h-229v-129
h77v53h76v-108h-229v184h-76v-260h381v260zM764 115h-381v-258h381v258zM688 39v-107h-229v107h229zM764 -197h-381v-75h160l-160 -109v-76h381v76h-234l160 109h74v75z" />
    <glyph glyph-name=".null" horiz-adv-x="0" 
 />
    <glyph glyph-name="nonmarkingreturn" horiz-adv-x="682" 
 />
    <glyph glyph-name="space" unicode=" " horiz-adv-x="409" 
 />
    <glyph glyph-name="exclam" unicode="!" horiz-adv-x="368" 
d="M123 1530q0 85 14.5 117t46.5 32t47 -32.5t15 -116.5q0 -107 -18 -471.5t-21 -669.5h-41q-3 307 -23 671t-20 470zM184 -41q-34 0 -58 24t-24 58t24 58t58 24t58 -24t24 -58t-24 -58t-58 -24z" />
    <glyph glyph-name="quotedbl" unicode="&#x22;" horiz-adv-x="614" 
d="M102 1577q0 102 62 102q61 0 61 -102q0 -57 -5 -117.5t-16.5 -155.5t-17.5 -157h-41q-7 68 -18.5 158t-18 153t-6.5 119zM389 1577q0 102 62 102q61 0 61 -102q0 -57 -5 -117.5t-16.5 -155.5t-17.5 -157h-41q-7 68 -18.5 158t-18 153t-6.5 119z" />
    <glyph glyph-name="numbersign" unicode="#" horiz-adv-x="1718" 
d="M1575 1139h-336l-172 -598h365v-62h-383l-150 -520h-63l149 520h-448l-150 -520h-63l149 520h-330v62h349l172 598h-377v61h395l137 479h64l-138 -479h449l137 479h64l-138 -479h318v-61zM1004 541l172 598h-449l-172 -598h449z" />
    <glyph glyph-name="dollar" unicode="$" horiz-adv-x="1021" 
d="M920 328q0 -169 -110.5 -268t-268.5 -101v-123h-62v125q-109 7 -197 45t-180 105v348h41q0 -119 26 -204.5t74.5 -133.5t105.5 -70.5t130 -27.5v770q-21 17 -59 51q-91 81 -139.5 129t-89.5 102.5t-55.5 103.5t-14.5 111q0 98 51 168.5t130.5 104t176.5 34.5v123h62v-125
q179 -19 319 -131v-258h-41q0 169 -72 244.5t-206 83.5v-684q187 -167 231 -212q106 -107 133 -200q15 -50 15 -110zM203 1290q0 -44 15 -87.5t35 -75.5t59 -72.5t65 -64t76 -65.5l9 -7.5t8 -7t9 -7.5v633q-131 -4 -203.5 -73.5t-72.5 -172.5zM541 20q134 6 215.5 93
t81.5 217q0 51 -21.5 102t-68.5 105.5t-90 96t-117 105.5v-719z" />
    <glyph glyph-name="percent" unicode="%" horiz-adv-x="1452" 
d="M344 854q-106 0 -174 119.5t-68 292.5q0 174 68 293.5t174 119.5q104 0 172 -119.5t68 -293.5q0 -173 -68 -292.5t-172 -119.5zM1202 1638h66l-1018 -1638h-66zM344 915q56 0 92.5 50t51 125.5t14.5 175.5q0 74 -8.5 135.5t-26.5 111t-49.5 77.5t-73.5 28q-57 0 -94 -50
t-51.5 -125.5t-14.5 -176.5q0 -100 14.5 -175.5t51.5 -125.5t94 -50zM1110 -41q-106 0 -174 119.5t-68 292.5q0 174 68 293.5t174 119.5q104 0 172 -119.5t68 -293.5q0 -173 -68 -292.5t-172 -119.5zM1110 20q56 0 92.5 50t51 125.5t14.5 175.5q0 74 -8.5 135.5t-26.5 111
t-49.5 77.5t-73.5 28q-57 0 -94 -50t-51.5 -125.5t-14.5 -176.5q0 -100 14.5 -175.5t51.5 -125.5t94 -50z" />
    <glyph glyph-name="ampersand" unicode="&#x26;" horiz-adv-x="1454" 
d="M1311 252h41q-31 -144 -90.5 -218.5t-159.5 -74.5q-137 0 -273 164q-164 -164 -376 -164q-153 0 -252 101.5t-99 271.5q0 87 23.5 162.5t72.5 144.5t100.5 122t131.5 124q-90 275 -90 454q0 163 86.5 262t228.5 99q127 0 191.5 -79.5t64.5 -197.5q0 -123 -81 -237
t-248 -254l-64 -53q54 -152 121 -287q109 -219 205 -352q136 178 217 456q25 92 9.5 118t-107.5 26v41h368v-41q-106 0 -143.5 -25.5t-63.5 -114.5q-101 -338 -239 -514q131 -166 237 -166q67 0 116 59t73 173zM422 1339q0 -156 76 -399q2 2 19 17t26 22q160 134 233.5 237
t73.5 207q0 40 -10.5 76.5t-32 68.5t-59.5 51t-89 19q-77 0 -132.5 -45.5t-80 -111.5t-24.5 -142zM473 20q171 0 315 154q-95 131 -227 391q-56 113 -108 256q-137 -125 -203 -234.5t-66 -254.5q0 -148 79.5 -230t209.5 -82z" />
    <glyph glyph-name="quotesingle" unicode="'" horiz-adv-x="368" 
d="M123 1577q0 102 61 102q62 0 62 -102q0 -57 -5 -117.5t-16.5 -155.5t-17.5 -157h-41q-7 68 -18.5 158t-18 153t-6.5 119z" />
    <glyph glyph-name="parenleft" unicode="(" horiz-adv-x="659" 
d="M598 -573v-41q-246 203 -371 500t-125 646q0 363 114.5 665t346.5 482v-41q-184 -184 -281.5 -472t-97.5 -634q0 -323 108.5 -614t305.5 -491z" />
    <glyph glyph-name="parenright" unicode=")" horiz-adv-x="659" 
d="M61 -573q197 200 305.5 491t108.5 614q0 346 -97.5 634t-281.5 472v41q232 -180 346.5 -482t114.5 -665q0 -349 -125 -646t-371 -500v41z" />
    <glyph glyph-name="asterisk" unicode="*" horiz-adv-x="897" 
d="M752 1186q64 -38 34 -90q-15 -26 -41 -30.5t-55 13.5q-27 16 -54.5 45.5t-70 68.5t-104.5 77q2 -95 25.5 -179.5t23.5 -115.5q0 -74 -61 -74q-30 0 -46 20t-16 54q0 32 12.5 70.5t25.5 95.5t15 131q-63 -39 -106.5 -78.5t-71.5 -69t-55 -45.5q-29 -18 -55 -13.5t-41 30.5
q-30 52 34 90q27 15 67 23.5t95.5 26t120.5 52.5q-86 48 -172 70.5t-111 36.5q-64 38 -34 90q31 54 96 16q23 -13 45.5 -35.5t41 -44t57 -54t89.5 -62.5q-1 75 -14 132.5t-26 97t-13 71.5q0 73 62 73q61 0 61 -73q0 -31 -24 -116.5t-25 -182.5q49 30 87 61.5t56 53t40.5 44
t45.5 35.5q65 38 96 -16q30 -52 -34 -90q-25 -14 -111 -36.5t-172 -70.5q65 -35 120.5 -52.5t95.5 -26t67 -23.5z" />
    <glyph glyph-name="plus" unicode="+" horiz-adv-x="983" 
d="M102 512v82h351v348h82v-348h346v-82h-346v-348h-82v348h-351z" />
    <glyph glyph-name="comma" unicode="," horiz-adv-x="399" 
d="M168 -41q-28 0 -47 23t-19 53q0 43 24.5 65.5t63.5 22.5q42 0 74.5 -35t32.5 -94q0 -187 -195 -301v41q59 38 100.5 92.5t41.5 112.5q0 41 -21 41q-5 0 -20.5 -10.5t-34.5 -10.5z" />
    <glyph glyph-name="hyphen" unicode="-" horiz-adv-x="819" 
d="M102 512v82h615v-82h-615z" />
    <glyph glyph-name="period" unicode="." horiz-adv-x="368" 
d="M184 -41q-34 0 -58 24t-24 58t24 58t58 24t58 -24t24 -58t-24 -58t-58 -24z" />
    <glyph glyph-name="slash" unicode="/" horiz-adv-x="600" 
d="M537 1679h63l-537 -1679h-63z" />
    <glyph glyph-name="zero" unicode="0" horiz-adv-x="999" 
d="M500 -41q-100 0 -177.5 67t-125 185.5t-71.5 272t-24 335.5t24 335.5t71.5 272t125 185.5t177.5 67t177 -67t124.5 -185.5t71.5 -272t24 -335.5t-24 -335.5t-71.5 -272t-124.5 -185.5t-177 -67zM500 20q82 0 144 62.5t98.5 173.5t54.5 252.5t18 310.5t-18 310.5
t-54.5 252.5t-98.5 173.5t-144 62.5t-144 -62.5t-99 -173.5t-55 -252.5t-18 -310.5t18 -310.5t55 -252.5t99 -173.5t144 -62.5z" />
    <glyph glyph-name="one" unicode="1" horiz-adv-x="530" 
d="M299 188q0 -96 21.5 -121.5t107.5 -25.5v-41h-332v41q86 0 107.5 25.5t21.5 121.5v1242v29q2 18 0 29.5t-1 22.5t-2.5 16t-6 9t-10 2.5t-15 -5t-21 -12.5t-27.5 -19t-36 -27l-24 32l166 129l31 23l20 -21v-1450z" />
    <glyph glyph-name="two" unicode="2" horiz-adv-x="956" 
d="M662 82q93 0 128 31.5t64 140.5l41 -10l-51 -189l-17 -55h-807v41q135 142 230 250t195 239.5t160.5 242.5t99 235t38.5 241q0 70 -12.5 128.5t-41 110t-81 80.5t-125.5 29q-170 0 -262 -144t-92 -380h-41q0 183 44 317.5t137 211.5t227 77q84 0 148.5 -33.5t103 -91.5
t58 -131.5t19.5 -158.5q0 -502 -692 -1176v-6h529z" />
    <glyph glyph-name="three" unicode="3" horiz-adv-x="835" 
d="M61 80q0 21 13.5 32t34.5 11q15 0 29 -7t21.5 -14t24.5 -24q58 -58 164 -58q60 0 115.5 23t103 68.5t76.5 125.5t29 183q0 96 -23 171t-60 121.5t-89.5 76.5t-105.5 41.5t-113 11.5v41q329 125 329 434q0 117 -57.5 198.5t-167.5 81.5q-66 0 -116.5 -22t-82.5 -63
t-51 -85.5t-33 -103.5h-41q24 176 115 266t221 90q127 0 211 -98.5t84 -261.5q0 -271 -274 -424v-6q155 -27 245.5 -141t90.5 -304q0 -213 -128 -349t-313 -136q-97 0 -174.5 36t-77.5 85z" />
    <glyph glyph-name="four" unicode="4" horiz-adv-x="954" 
d="M61 479v62l588 1097h74v-1097h149v-62h-149v-291q0 -96 21.5 -121.5t107.5 -25.5v-41h-332v41q86 0 107.5 25.5t21.5 121.5v291h-588zM133 541h516v970l-516 -964v-6z" />
    <glyph glyph-name="five" unicode="5" horiz-adv-x="856" 
d="M61 76q0 47 50 47q15 0 24 -6t20.5 -22.5t18.5 -24.5q46 -50 154 -50q60 0 118.5 33t110 98t83.5 177t32 254q0 226 -76 334t-205 108q-118 0 -203 -82l-55 43l127 653h453l-21 -82h-395l-104 -536l8 -6q43 45 101 68.5t118 23.5q83 0 149 -42t105.5 -112.5t59.5 -156.5
t20 -181q0 -294 -130 -474.5t-327 -180.5q-92 0 -164 35.5t-72 81.5z" />
    <glyph glyph-name="six" unicode="6" horiz-adv-x="940" 
d="M532 1106q107 0 182.5 -77t109.5 -193.5t34 -257.5q0 -111 -22.5 -217.5t-66.5 -198t-118.5 -147.5t-169.5 -56q-119 0 -207.5 94.5t-132 255.5t-39.5 365q3 136 30 265.5t82 251.5t134 219t193 168.5t252 100.5v-41q-128 -40 -230.5 -115.5t-172 -176t-114 -212
t-67.5 -237.5h6q46 91 129 150t188 59zM487 20q92 0 158.5 71.5t98.5 191t32 274.5q0 72 -8.5 139.5t-29 131.5t-51 111.5t-78.5 76t-107 28.5q-80 0 -160 -55t-145 -166q-10 -99 -13 -172q-4 -182 30 -324t105 -224.5t168 -82.5z" />
    <glyph glyph-name="seven" unicode="7" horiz-adv-x="927" 
d="M369 -14l-60 14l428 1550v6h-491q-41 0 -64.5 -4t-44 -14.5t-32.5 -36t-22.5 -62t-21.5 -98.5l-41 9l41 227l11 61h753z" />
    <glyph glyph-name="eight" unicode="8" horiz-adv-x="921" 
d="M524 907q295 -260 295 -538q0 -181 -100 -295.5t-258 -114.5q-112 0 -195.5 56.5t-123.5 145t-40 195.5q0 146 81 277t231 264q-94 89 -148 152t-88.5 138t-34.5 154q0 146 91 242t235 96q142 0 225.5 -96.5t83.5 -236.5q0 -65 -15.5 -118.5t-52.5 -106t-79 -96.5
t-115 -110zM225 1341q0 -90 55 -176.5t195 -214.5q135 123 183.5 207.5t48.5 188.5q0 115 -64.5 193.5t-173.5 78.5t-176.5 -78t-67.5 -199zM469 20q122 0 195 93.5t73 255.5q0 126 -70.5 242.5t-211.5 246.5q-281 -258 -281 -502q0 -88 34 -163.5t103 -124t158 -48.5z" />
    <glyph glyph-name="nine" unicode="9" horiz-adv-x="940" 
d="M459 1679q119 0 207.5 -94t132 -255.5t39.5 -364.5q-3 -136 -30 -265.5t-82 -251.5t-134 -219.5t-193 -169t-252 -100.5v41q128 40 230.5 115.5t172 176t114 212t67.5 237.5h-6q-46 -91 -129 -150t-188 -59q-81 0 -144.5 44.5t-102.5 119.5t-59 168t-20 197
q0 111 22.5 217.5t66.5 198t118.5 147t169.5 55.5zM756 987q4 182 -30 324t-105 224.5t-168 82.5q-92 0 -158.5 -71.5t-98.5 -191t-32 -274.5q0 -72 8.5 -139.5t29 -131.5t51 -111.5t78.5 -76t107 -28.5q80 0 160 55t145 166q10 99 13 172z" />
    <glyph glyph-name="colon" unicode=":" horiz-adv-x="368" 
d="M184 922q-34 0 -58 24t-24 58t24 57.5t58 23.5t58 -23.5t24 -57.5t-24 -58t-58 -24zM184 -41q-34 0 -58 24t-24 58t24 58t58 24t58 -24t24 -58t-24 -58t-58 -24z" />
    <glyph glyph-name="semicolon" unicode=";" horiz-adv-x="399" 
d="M201 922q-34 0 -58 24t-24 58t24 57.5t58 23.5t58 -23.5t24 -57.5t-24 -58t-58 -24zM168 -41q-28 0 -47 23t-19 53q0 43 24.5 65.5t63.5 22.5q42 0 74.5 -35t32.5 -94q0 -187 -195 -301v41q59 38 100.5 92.5t41.5 112.5q0 41 -21 41q-5 0 -20.5 -10.5t-34.5 -10.5z" />
    <glyph glyph-name="less" unicode="&#x3c;" horiz-adv-x="819" 
d="M717 287l-615 215v112l615 215v-88l-541 -180v-6l541 -180v-88z" />
    <glyph glyph-name="equal" unicode="=" horiz-adv-x="819" 
d="M102 676v82h615v-82h-615zM102 348v82h615v-82h-615z" />
    <glyph glyph-name="greater" unicode="&#x3e;" horiz-adv-x="819" 
d="M102 287v88l541 180v6l-541 180v88l615 -215v-112z" />
    <glyph glyph-name="question" unicode="?" horiz-adv-x="794" 
d="M610 1356q0 118 -56 190t-163 72q-98 0 -152.5 -60.5t-54.5 -134.5q0 -37 11 -63t25 -38t25 -31.5t11 -43.5q0 -53 -51 -53q-41 0 -72 51.5t-31 138.5q0 122 77.5 208.5t217.5 86.5q137 0 216 -87t79 -216q0 -71 -16 -133.5t-42 -112.5t-57 -101.5t-62.5 -112.5
t-57.5 -131.5t-42 -172.5t-16 -223h-41q0 131 14 239t36 180t49 131.5t54 106.5t49 91.5t36 99.5t14 119zM379 -41q-34 0 -58 24t-24 58t24 58t58 24t58 -24t24 -58t-24 -58t-58 -24z" />
    <glyph glyph-name="at" unicode="@" horiz-adv-x="2091" 
d="M129 700q40 200 137.5 367t230 277.5t291 171.5t322.5 61q105 0 200 -22.5t171 -63t141 -97t110.5 -125t80 -147t49.5 -162.5t18.5 -172t-12.5 -176q-25 -155 -83 -282.5t-132.5 -206.5t-157.5 -121.5t-164 -42.5q-83 0 -121 38.5t-32 85.5t9 87q1 6 1 8l6 33h-8
q-86 -127 -169.5 -189.5t-185.5 -62.5q-76 0 -132.5 42.5t-84 113t-36 162.5t11.5 192q30 168 103 310.5t186 234.5t241 92q73 0 124 -42.5t77 -115.5h4l25 144l86 16l-158 -907q-18 -88 -1 -134.5t81 -46.5q45 0 96 23t105.5 72t102 117t86.5 167t58 213q15 78 12.5 158.5
t-14.5 159t-42.5 152.5t-71 139t-100.5 119t-130 93.5t-159.5 61t-190.5 21.5q-167 0 -316.5 -61.5t-264.5 -170t-197 -258.5t-121 -326q-30 -136 -32.5 -266t23 -243.5t74.5 -213t123 -178t166.5 -134.5t207 -86t243.5 -30q144 0 270 31.5t222 84.5t177 129.5t138.5 159
t103.5 179.5h62q-47 -108 -109 -201t-149 -176t-190.5 -141.5t-238 -92.5t-286.5 -34q-159 0 -299 42.5t-247.5 121t-189.5 188.5t-124.5 244.5t-52.5 290.5t26 325zM682 528q-39 -223 10.5 -355t181.5 -132q56 0 105.5 19t90.5 55t71 72t63 85l74 418q25 162 -19 258
t-149 96q-68 0 -130.5 -30.5t-110 -81.5t-86 -118.5t-63.5 -139.5t-38 -146z" />
    <glyph glyph-name="A" unicode="A" horiz-adv-x="1380" 
d="M1176 180q28 -89 61.5 -114t122.5 -25v-41h-426v41q143 0 166.5 25t-10.5 114l-113 365h-594l-113 -365q-34 -89 -10.5 -114t166.5 -25v-41h-406v41q89 0 123.5 25.5t61.5 113.5l465 1506h41zM401 606h557l-276 893h-6z" />
    <glyph glyph-name="B" unicode="B" horiz-adv-x="1083" 
d="M41 0v41q52 0 85 2t58 9t37.5 15.5t20 27.5t9 38.5t1.5 54.5v1262q0 35 -1.5 54.5t-9 38.5t-20 27.5t-37.5 15.5t-58 9t-85 2v41h469q196 0 317 -104.5t121 -312.5q0 -155 -93.5 -255.5t-240.5 -119.5v-6q178 -12 293 -125t115 -279q0 -97 -29.5 -173t-79.5 -124.5
t-119.5 -80.5t-144.5 -45t-160 -13h-448zM326 881q81 -11 184 -11q66 0 127.5 21.5t113.5 63.5t83.5 114.5t31.5 165.5q0 72 -21 130.5t-55.5 97t-81 65t-96 38t-102.5 11.5q-107 0 -184 -21v-675zM326 82q89 -21 163 -21q68 0 128.5 9.5t121 35.5t104 66.5t70.5 107.5
t27 154q0 85 -30.5 153t-77 108.5t-106.5 67t-113 36.5t-103 10q-110 0 -184 -10v-717z" />
    <glyph glyph-name="C" unicode="C" horiz-adv-x="1220" 
d="M82 819q0 238 68 432t200.5 311t306.5 117q70 0 132.5 -19t97.5 -42.5t67 -42.5t47 -19q21 0 28 19t7 84h41l31 -563h-41q-52 522 -410 522q-112 0 -206 -63t-156 -172t-96.5 -254.5t-34.5 -309.5t34.5 -309.5t96.5 -254.5t156 -172t206 -63q129 0 232 83t165.5 226.5
t84.5 332.5h41q-24 -210 -88.5 -365t-178.5 -246.5t-266 -91.5q-174 0 -304 117t-195.5 310.5t-65.5 432.5z" />
    <glyph glyph-name="D" unicode="D" horiz-adv-x="1404" 
d="M41 0v41q52 0 85 2t58 9t37.5 15.5t20 27.5t9 38.5t1.5 54.5v1262q0 35 -1.5 54.5t-9 38.5t-20 27.5t-37.5 15.5t-58 9t-85 2v41h510q233 0 408 -101t269.5 -286.5t94.5 -431.5q0 -183 -56.5 -336.5t-158 -259.5t-244.5 -164.5t-313 -58.5h-510zM551 61q311 0 500.5 209
t189.5 549t-189.5 549t-500.5 209q-147 0 -225 -37v-1442q78 -37 225 -37z" />
    <glyph glyph-name="E" unicode="E" horiz-adv-x="1150" 
d="M1006 1638l4 -34l30 -310l-41 -4q-8 84 -17 132.5t-20 82.5t-31.5 48t-43 19t-64.5 5h-497v-686h340q35 0 54.5 2t38.5 10t27.5 21.5t15.5 41t9 63.5t2 93h41v-524h-41q0 57 -2 93t-9 63.5t-15.5 41t-27.5 21.5t-38.5 10t-54.5 2h-340v-651q0 -72 18 -94.5t78 -22.5h420
q51 0 79 9t57.5 47.5t53 102.5t60.5 188l38 -13l-110 -366l-8 -29h-971v41q52 0 85 2t58 9t37.5 15.5t20 27.5t9 38.5t1.5 54.5v1262q0 35 -1.5 54.5t-9 38.5t-20 27.5t-37.5 15.5t-58 9t-85 2v41h965z" />
    <glyph glyph-name="F" unicode="F" horiz-adv-x="1122" 
d="M1067 1638l4 -34l31 -310l-41 -4q-8 84 -17 132.5t-20 82.5t-31.5 48t-43 19t-64.5 5h-559v-735h340q35 0 54.5 2t38.5 10t27.5 21.5t15.5 41t9 63.5t2 93h41v-524h-41q0 57 -2 93t-9 63.5t-15.5 41t-27.5 21.5t-38.5 10t-54.5 2h-340v-592q0 -35 1.5 -54.5t9 -38.5
t20 -27.5t37.5 -15.5t58 -9t85 -2v-41h-496v41q52 0 85 2t58 9t37.5 15.5t20 27.5t9 38.5t1.5 54.5v1262q0 35 -1.5 54.5t-9 38.5t-20 27.5t-37.5 15.5t-58 9t-85 2v41h1026z" />
    <glyph glyph-name="G" unicode="G" horiz-adv-x="1411" 
d="M82 819q0 143 25.5 271t78 236t127.5 186.5t179 122.5t227 44q91 0 164.5 -19t109.5 -42.5t66 -42.5t45 -19q21 0 28 19t7 84h41l30 -563h-41q-27 270 -130 396t-320 126q-135 0 -242 -63t-174.5 -172.5t-103 -253.5t-35.5 -310q0 -134 22.5 -251.5t71 -218.5t119.5 -174
t174 -114t229 -41q125 0 224 45t155 105v489q0 35 -3 54.5t-18.5 39t-40.5 28t-75 15.5t-115.5 9t-169.5 2v41h633v-41q-86 0 -107.5 -26t-21.5 -122v-516q-99 -95 -212 -139.5t-259 -44.5q-141 0 -256 44t-194.5 122t-133.5 187t-79 236t-25 271z" />
    <glyph glyph-name="H" unicode="H" horiz-adv-x="1306" 
d="M1266 1597q-52 0 -85 -2t-58 -9t-37.5 -15.5t-20 -27.5t-9 -38.5t-1.5 -54.5v-1262q0 -35 1.5 -54.5t9 -38.5t20 -27.5t37.5 -15.5t58 -9t85 -2v-41h-496v41q52 0 85 2t58 9t37.5 15.5t20 27.5t9 38.5t1.5 54.5v656h-655v-656q0 -35 1.5 -54.5t9 -38.5t20 -27.5
t37.5 -15.5t58 -9t85 -2v-41h-496v41q52 0 85 2t58 9t37.5 15.5t20 27.5t9 38.5t1.5 54.5v1262q0 35 -1.5 54.5t-9 38.5t-20 27.5t-37.5 15.5t-58 9t-85 2v41h496v-41q-52 0 -85 -2t-58 -9t-37.5 -15.5t-20 -27.5t-9 -38.5t-1.5 -54.5v-545h655v545q0 35 -1.5 54.5t-9 38.5
t-20 27.5t-37.5 15.5t-58 9t-85 2v41h496v-41z" />
    <glyph glyph-name="I" unicode="I" horiz-adv-x="577" 
d="M252 1450q0 35 -1.5 54.5t-9 38.5t-20 27.5t-37.5 15.5t-58 9t-85 2v41h496v-41q-52 0 -85 -2t-58 -9t-37.5 -15.5t-20 -27.5t-9 -38.5t-1.5 -54.5v-1262q0 -35 1.5 -54.5t9 -38.5t20 -27.5t37.5 -15.5t58 -9t85 -2v-41h-496v41q52 0 85 2t58 9t37.5 15.5t20 27.5t9 38.5
t1.5 54.5v1262z" />
    <glyph glyph-name="J" unicode="J" horiz-adv-x="684" 
d="M358 387v1063q0 35 -1.5 54.5t-9 38.5t-20 27.5t-37.5 15.5t-58 9t-85 2v41h496v-41q-52 0 -85 -2t-58 -9t-37.5 -15.5t-20 -27.5t-9 -38.5t-1.5 -54.5v-1001q0 -268 -44.5 -379t-154.5 -111q-100 0 -146 61.5t-46 143.5q0 35 18.5 55.5t44.5 20.5t43 -17.5t17 -52.5
q0 -7 -1 -29.5t-0.5 -34.5t3.5 -31t10 -29t21 -18t34 -8q34 0 57.5 18.5t37 48t21 80t9.5 99.5t2 121z" />
    <glyph glyph-name="K" unicode="K" horiz-adv-x="1417" 
d="M252 1450q0 35 -1.5 54.5t-9 38.5t-20 27.5t-37.5 15.5t-58 9t-85 2v41h496v-41q-52 0 -85 -2t-58 -9t-37.5 -15.5t-20 -27.5t-9 -38.5t-1.5 -54.5v-1262q0 -35 1.5 -54.5t9 -38.5t20 -27.5t37.5 -15.5t58 -9t85 -2v-41h-496v41q52 0 85 2t58 9t37.5 15.5t20 27.5t9 38.5
t1.5 54.5v1262zM1124 141q58 -66 106.5 -83t145.5 -17v-41h-415v41h48t34 2t24.5 2.5t11.5 6.5t3.5 8t-7.5 13.5t-13 16.5t-21 23t-25 28l-610 701l518 649q52 65 56 74q11 22 -18 27q-23 5 -102 5v41h389v-41q-95 0 -142.5 -18.5t-102.5 -87.5l-506 -631z" />
    <glyph glyph-name="L" unicode="L" horiz-adv-x="1140" 
d="M537 1638v-41q-52 0 -85 -2t-58 -9t-37.5 -15.5t-20 -27.5t-9 -38.5t-1.5 -54.5v-1272q0 -72 18 -94.5t78 -22.5h405q34 0 55 3.5t43 17.5t36 36.5t31 66t32 100t35 145.5l41 -8l-92 -395l-7 -27h-960v41q52 0 85 2t58 9t37.5 15.5t20 27.5t9 38.5t1.5 54.5v1262
q0 35 -1.5 54.5t-9 38.5t-20 27.5t-37.5 15.5t-58 9t-85 2v41h496z" />
    <glyph glyph-name="M" unicode="M" horiz-adv-x="1757" 
d="M868 123h6l527 1515h315v-41q-52 0 -85 -2t-58 -9t-37.5 -15.5t-20 -27.5t-9 -38.5t-1.5 -54.5v-1262q0 -35 1.5 -54.5t9 -38.5t20 -27.5t37.5 -15.5t58 -9t85 -2v-41h-495v41q52 0 85 2t58 9t37.5 15.5t20 27.5t9 38.5t1.5 54.5v1332h-7l-544 -1567h-41l-525 1546h-6
l4 -1311q0 -35 1.5 -54.5t9 -38.5t20 -27.5t37.5 -15.5t58 -9t85 -2v-41h-483v41q52 0 85 2t58 9t37.5 15.5t20 27.5t9 38.5t1.5 54.5v1262q0 35 -1.5 54.5t-9 38.5t-20 27.5t-37.5 15.5t-58 9t-85 2v41h313z" />
    <glyph glyph-name="N" unicode="N" horiz-adv-x="1497" 
d="M1456 1638v-41q-52 0 -85 -2t-58 -9t-37.5 -15.5t-20 -27.5t-9 -38.5t-1.5 -54.5v-1497h-41l-891 1452v-1217q0 -35 1.5 -54.5t9 -38.5t20 -27.5t37.5 -15.5t58 -9t85 -2v-41h-483v41q52 0 85 2t58 9t37.5 15.5t20 27.5t9 38.5t1.5 54.5v1315q-41 60 -83.5 77t-127.5 17
v41h223l914 -1484h6v1296q0 35 -1.5 54.5t-9 38.5t-20 27.5t-37.5 15.5t-58 9t-85 2v41h483z" />
    <glyph glyph-name="O" unicode="O" horiz-adv-x="1314" 
d="M657 -41q-174 0 -306.5 117t-200.5 311t-68 432t68 432t200.5 311t306.5 117q132 0 241.5 -68t182 -185t112.5 -273.5t40 -333.5t-40 -333.5t-112.5 -273.5t-182 -185t-241.5 -68zM727 25q148 13 251.5 131t146 302.5t22.5 403.5q-20 220 -93 394.5t-195.5 273.5
t-270.5 86q-148 -14 -252 -132.5t-147 -303.5t-23 -404q15 -164 62 -305.5t118.5 -244.5t170 -157.5t210.5 -43.5z" />
    <glyph glyph-name="P" unicode="P" horiz-adv-x="1118" 
d="M41 0v41q52 0 85 2t58 9t37.5 15.5t20 27.5t9 38.5t1.5 54.5v1262q0 35 -1.5 54.5t-9 38.5t-20 27.5t-37.5 15.5t-58 9t-85 2v41h500q105 0 194 -28.5t157 -83.5t106 -143.5t38 -202.5q0 -211 -123 -327t-317 -116q-121 0 -270 39v-588q0 -35 1.5 -54.5t9 -38.5t20 -27.5
t37.5 -15.5t58 -9t85 -2v-41h-496zM594 799q157 0 258.5 100.5t101.5 280.5q0 97 -33 174.5t-90.5 125t-131.5 72.5t-158 25q-114 0 -215 -37v-702q140 -39 268 -39z" />
    <glyph glyph-name="Q" unicode="Q" horiz-adv-x="1294" 
d="M1356 -164l20 -41q-77 -68 -142.5 -98.5t-135.5 -30.5q-44 0 -84.5 12.5t-74 31t-69.5 36.5t-86.5 30.5t-109.5 12.5t-124 -14t-198 -56l-26 93q229 75 376 149q-14 -2 -45 -2q-174 0 -306.5 117t-200.5 311t-68 432t68 432t200.5 311t306.5 117q132 0 241.5 -68
t182 -185t112.5 -273.5t40 -333.5q0 -243 -72 -441.5t-203 -307.5q-172 -148 -438 -238l2 -8q113 26 189 26q65 0 122 -19t91.5 -42t83.5 -42t100 -19q65 0 117.5 23.5t130.5 84.5zM166 776q15 -164 62 -305.5t118.5 -244.5t170 -157.5t210.5 -43.5q148 13 251.5 131
t146 302.5t22.5 403.5q-20 220 -93 394.5t-195.5 273.5t-270.5 86q-148 -14 -252 -132.5t-147 -303.5t-23 -404z" />
    <glyph glyph-name="R" unicode="R" horiz-adv-x="1116" 
d="M860 168q42 -81 83 -104t132 -23v-41h-149q-42 0 -62 16t-53 80l-369 717q-18 -2 -55 -2h-61v-623q0 -35 1.5 -54.5t9 -38.5t20 -27.5t37.5 -15.5t58 -9t85 -2v-41h-496v41q52 0 85 2t58 9t37.5 15.5t20 27.5t9 38.5t1.5 54.5v1262q0 35 -1.5 54.5t-9 38.5t-20 27.5
t-37.5 15.5t-58 9t-85 2v41h469q197 0 314.5 -103.5t117.5 -297.5q0 -88 -26 -158t-67.5 -115t-100.5 -77t-117.5 -47.5t-126.5 -22.5v-6q53 -49 96 -133zM387 872q58 -1 114.5 6t124 30.5t117 61.5t83.5 107t34 160q0 162 -97.5 251t-252.5 89q-108 0 -184 -37v-668h61z
" />
    <glyph glyph-name="S" unicode="S" horiz-adv-x="1064" 
d="M125 0v582h41q0 -127 33 -234t87.5 -178t124.5 -110.5t146 -39.5q141 0 222 88.5t81 233.5q0 31 -7 61.5t-15.5 56.5t-28.5 57.5t-34 53t-45 54.5t-48 51t-56.5 53.5t-57.5 51t-63.5 54.5t-62.5 54q-60 54 -87 78t-70 65.5t-61 64.5t-43 58t-34 63t-16.5 63.5t-7.5 74.5
q0 149 98 236t256 87q77 0 141.5 -25.5t98 -56t60.5 -56t38 -25.5q9 0 14 6.5t9 34t4 81.5h41v-473h-41q0 195 -104.5 324t-262.5 129q-134 0 -202 -75t-68 -179q0 -47 17 -94.5t38 -82.5t64.5 -81t70 -70t82.5 -71.5t76 -65.5q21 -19 59 -53q63 -56 91.5 -82.5t72.5 -70
t63 -68.5t44 -63.5t34.5 -71t17 -74t7.5 -88.5q0 -114 -54.5 -200t-137 -127.5t-177.5 -41.5q-67 0 -124 17t-92.5 41t-62.5 48t-48.5 41t-36.5 17q-25 0 -34 -27t-9 -96h-41z" />
    <glyph glyph-name="T" unicode="T" horiz-adv-x="1204" 
d="M1112 1606l31 -322l-41 -4q-8 87 -17 137.5t-20 85.5t-31.5 49.5t-43 19.5t-64.5 5h-287v-1389q0 -35 1.5 -54.5t9 -38.5t20 -27.5t37.5 -15.5t58 -9t85 -2v-41h-496v41q52 0 85 2t58 9t37.5 15.5t20 27.5t9 38.5t1.5 54.5v1389h-286q-35 0 -55 -2.5t-40 -13.5
t-30.5 -28.5t-21 -53t-17 -81.5t-13.5 -118l-41 4l31 322l4 32h1012z" />
    <glyph glyph-name="U" unicode="U" horiz-adv-x="1505" 
d="M1192 1450q0 35 -1.5 54.5t-9 38.5t-20 27.5t-37.5 15.5t-58 9t-85 2v41h483v-41q-52 0 -85 -2t-58 -9t-37.5 -15.5t-20 -27.5t-9 -38.5t-1.5 -54.5v-967q0 -79 -13 -149.5t-47.5 -140.5t-87.5 -120.5t-139 -82t-196 -31.5q-122 0 -216 31.5t-150 81.5t-91.5 121
t-48 140.5t-12.5 149.5v967q0 35 -1.5 54.5t-9 38.5t-20 27.5t-37.5 15.5t-58 9t-85 2v41h496v-41q-52 0 -85 -2t-58 -9t-37.5 -15.5t-20 -27.5t-9 -38.5t-1.5 -54.5v-967q0 -463 444 -463q197 0 309.5 116.5t112.5 346.5v967z" />
    <glyph glyph-name="V" unicode="V" horiz-adv-x="1380" 
d="M698 139h7l405 1319q34 89 10.5 114t-166.5 25v41h406v-41q-89 0 -122.5 -25t-61.5 -114l-465 -1505h-41l-465 1505q-27 88 -61.5 113.5t-123.5 25.5v41h426v-41q-143 0 -166 -25t11 -114z" />
    <glyph glyph-name="W" unicode="W" horiz-adv-x="1646" 
d="M1626 1638v-41q-88 0 -119 -25.5t-53 -117.5l-354 -1501h-41l-225 952l-242 -952h-35l-362 1503q-23 90 -55 115.5t-120 25.5v41h424v-41q-143 0 -168.5 -25t3.5 -116l305 -1263h6l215 839l-100 422q-22 92 -53.5 117.5t-119.5 25.5v41h424v-41q-144 0 -169.5 -25.5
t1.5 -117.5l299 -1261h7l297 1261q27 92 1.5 117.5t-169.5 25.5v41h403z" />
    <glyph glyph-name="X" unicode="X" horiz-adv-x="1409" 
d="M1143 162q46 -77 89.5 -99t135.5 -22v-41h-436v41q141 0 155.5 20.5t-40.5 100.5l-363 612l-348 -610q-40 -69 -43 -84q-4 -25 32 -32q31 -7 128 -7v-41h-412v41q92 0 134.5 22t88.5 101l383 672l-381 641q-45 77 -89 98.5t-136 21.5v41h436v-41q-135 0 -153 -17.5
t27 -84.5q7 -12 11 -18l332 -557l316 555q40 69 43 83q5 25 -32 33q-31 6 -128 6v41h412v-41q-92 0 -135.5 -21.5t-88.5 -100.5l-350 -619z" />
    <glyph glyph-name="Y" unicode="Y" horiz-adv-x="1241" 
d="M678 188q0 -35 1.5 -54.5t9 -38.5t20 -27.5t37.5 -15.5t58 -9t85 -2v-41h-496v41q52 0 85 2t58 9t37.5 15.5t20 27.5t9 38.5t1.5 54.5v533l-371 749q-40 81 -81 104t-132 23v41h435v-41q-142 0 -159 -22t30 -107l321 -653h6l291 651q33 74 33 91q0 26 -43 34
q-33 6 -123 6v41h410v-41q-91 0 -130.5 -23.5t-76.5 -107.5l-336 -745v-533z" />
    <glyph glyph-name="Z" unicode="Z" horiz-adv-x="1028" 
d="M950 1638l-786 -1577h557q42 0 65 6t45 23.5t36.5 59t28 101t30.5 161.5l41 -6l-64 -377l-4 -29h-838v41l766 1536h-503q-35 0 -54.5 -2t-39 -12t-28.5 -26t-17.5 -48.5t-11.5 -75.5t-5 -110h-41l8 301l2 34h813z" />
    <glyph glyph-name="bracketleft" unicode="[" horiz-adv-x="456" 
d="M395 1618h-211v-2171h211v-61h-293v2293h293v-61z" />
    <glyph glyph-name="backslash" unicode="\" horiz-adv-x="600" 
d="M63 1679l537 -1679h-63l-537 1679h63z" />
    <glyph glyph-name="bracketright" unicode="]" horiz-adv-x="456" 
d="M354 1679v-2293h-293v61h211v2171h-211v61h293z" />
    <glyph glyph-name="asciicircum" unicode="^" horiz-adv-x="1062" 
d="M102 827l381 811h92l386 -811h-91l-338 721h-6l-333 -721h-91z" />
    <glyph glyph-name="underscore" unicode="_" horiz-adv-x="1433" 
d="M1434 -246h-1434v62h1434v-62z" />
    <glyph glyph-name="grave" unicode="`" horiz-adv-x="464" 
d="M362 1278h-61l-219 360h143z" />
    <glyph glyph-name="a" unicode="a" horiz-adv-x="792" 
d="M731 131h41q-28 -100 -46 -128q-29 -44 -79 -44q-32 0 -52.5 12.5t-30.5 37t-13.5 51t-3.5 63.5v53h-6q-110 -217 -277 -217q-102 0 -152.5 68t-50.5 182q0 71 22 130.5t53.5 99.5t85 79t97.5 63t111 57q15 7 23 11l94 47v105q0 46 -2.5 77.5t-13 67.5t-29 58t-53 36.5
t-82.5 14.5q-73 0 -122.5 -32.5t-49.5 -82.5q0 -22 20.5 -62t20.5 -63t-15.5 -36t-40.5 -13q-67 0 -67 121q0 99 73 159t189 60q246 0 246 -313v-670q0 -58 6.5 -80.5t31.5 -22.5q22 0 35 22t37 89zM547 238v397l-94 -47q-149 -75 -229.5 -160.5t-80.5 -208.5
q0 -87 37 -132.5t105 -45.5q70 0 126.5 44.5t135.5 152.5z" />
    <glyph glyph-name="b" unicode="b" horiz-adv-x="874" 
d="M162 98v1372q0 90 -7 107q-11 25 -56 12q-17 -4 -44 -14l-14 37l139 55l35 12l21 -20v-744h8q126 191 264 191q129 0 207 -140t78 -370q0 -168 -38 -310.5t-116.5 -234.5t-181.5 -92q-18 0 -36.5 2.5t-33 5t-33.5 10.5t-29 11t-30 15.5t-26.5 15.5t-28.5 19.5t-25 18.5
t-27.5 21t-25.5 20zM236 160q25 -29 43 -47.5t47 -43t60.5 -37t64.5 -12.5q68 0 120 46t81.5 123t44 165t14.5 183q0 242 -58 364.5t-161 122.5q-35 0 -68.5 -11.5t-57 -26.5t-51 -42t-42 -43.5t-37.5 -46.5v-694z" />
    <glyph glyph-name="c" unicode="c" horiz-adv-x="753" 
d="M549 856q0 81 -30 134.5t-95 53.5q-127 0 -193.5 -135t-66.5 -377q0 -223 72 -357t198 -134q89 0 146.5 87.5t91.5 289.5h41q-22 -226 -97.5 -342.5t-199.5 -116.5q-107 0 -183.5 73t-113.5 196.5t-37 283.5q0 269 94 431.5t254 162.5q50 0 92 -18.5t69 -47t46 -64
t27 -68t8 -60.5q0 -82 -60 -82q-63 0 -63 90z" />
    <glyph glyph-name="d" unicode="d" horiz-adv-x="884" 
d="M829 63l15 -36l-139 -56l-35 -12l-21 21v170h-8q-65 -98 -121 -144.5t-127 -46.5q-102 0 -173 69.5t-104.5 187t-33.5 273.5q0 96 11 182.5t37 167t65 139t99 93.5t134 35q64 0 120 -38.5t97 -98.5h4v501v15q0 35 -0.5 49t-3.5 32t-9 21.5t-18.5 6t-29.5 -3t-45 -15.5
l-15 37l140 55l34 12l21 -20v-1491v-15q0 -35 0.5 -49t3.5 -32t9 -21.5t18.5 -6t29.5 3t45 15.5zM649 231v431q0 173 -59.5 277.5t-161.5 104.5q-59 0 -106 -31t-76 -81t-48 -119t-26.5 -139t-7.5 -146q0 -226 60 -356.5t179 -130.5q38 0 71.5 12.5t54.5 26.5t47 45.5
t37.5 49t35.5 56.5z" />
    <glyph glyph-name="e" unicode="e" horiz-adv-x="780" 
d="M657 438h41q-21 -233 -105.5 -356t-199.5 -123q-100 0 -171 74t-105.5 201.5t-34.5 297.5q0 159 38 288t114.5 207.5t177.5 78.5q126 0 203 -137.5t77 -366.5h-526q-2 -20 -2 -63q0 -131 28 -243.5t83 -183.5t126 -71q85 0 154 94.5t102 302.5zM408 1044
q-97 0 -158 -107.5t-80 -272.5h440q0 97 -19.5 180t-66.5 141.5t-116 58.5z" />
    <glyph glyph-name="f" unicode="f" horiz-adv-x="561" 
d="M487 1679q94 0 156 -60t62 -126q0 -34 -17 -54t-43 -20q-27 0 -45 17.5t-18 52.5q0 26 -3 44t-12.5 40t-33 33.5t-60.5 11.5q-57 0 -95 -26t-57.5 -76t-27.5 -107.5t-8 -136.5v-207h184v-61h-184v-816q0 -51 5 -76.5t26.5 -43.5t57.5 -22.5t105 -4.5v-41h-397v41
q86 0 107.5 25.5t21.5 121.5v816h-129v61h129v125q0 93 7 164.5t26 134.5t49.5 103.5t79 63.5t114.5 23z" />
    <glyph glyph-name="g" unicode="g" horiz-adv-x="911" 
d="M485 113q91 0 161 -11.5t127 -37.5t87.5 -73.5t30.5 -115.5q0 -97 -66.5 -181.5t-183.5 -135t-254 -50.5q-72 0 -136 14.5t-117 44t-83.5 79.5t-30.5 116q0 86 47 157.5t146 150.5q-90 40 -90 131q0 49 28.5 91.5t86.5 96.5q-113 116 -113 320q0 174 84.5 285.5
t218.5 111.5q97 0 168 -59q124 59 242 59q29 0 41 -9t12 -30q0 -26 -18 -34.5t-54 -8.5q-103 0 -176 -25l-2 2q90 -111 90 -292q0 -174 -85 -286t-218 -112q-88 0 -158 51q-43 -40 -64.5 -72t-21.5 -65q0 -37 22.5 -60t90.5 -37.5t188 -14.5zM207 690q14 -157 80 -240.5
t170 -74.5q105 9 155.5 103t36.5 249q-15 157 -80 240.5t-170 74.5q-106 -9 -155 -101.5t-37 -250.5zM408 -410q194 0 307.5 69t113.5 196q0 53 -27.5 89t-80.5 54.5t-113.5 25.5t-142.5 7q-130 0 -213 22q-94 -79 -132 -137.5t-38 -122.5q0 -92 85 -147.5t241 -55.5z" />
    <glyph glyph-name="h" unicode="h" horiz-adv-x="884" 
d="M264 1659v-733h6q122 180 254 180q191 0 191 -264v-654q0 -96 21.5 -121.5t107.5 -25.5v-41h-332v41q86 0 107.5 25.5t21.5 121.5v654q0 192 -127 192q-111 0 -250 -170v-676q0 -96 21.5 -121.5t107.5 -25.5v-41h-332v41q86 0 107.5 25.5t21.5 121.5v1282v15
q0 35 -0.5 49t-3.5 32t-9 21.5t-18.5 6t-29.5 -3t-45 -15.5l-14 37l139 55l35 12z" />
    <glyph glyph-name="i" unicode="i" horiz-adv-x="434" 
d="M207 1516q-34 0 -58 23.5t-24 57.5t24 58t58 24t58 -24t24 -58t-24 -57.5t-58 -23.5zM264 188q0 -96 21.5 -121.5t107.5 -25.5v-41h-332v41q86 0 107.5 25.5t21.5 121.5v709v15q0 35 -0.5 49t-3.5 31.5t-9 21t-18.5 6t-29.5 -3t-45 -15.5l-14 37l139 56l35 12l20 -21
v-897z" />
    <glyph glyph-name="j" unicode="j" horiz-adv-x="405" 
d="M201 1516q-34 0 -58 23.5t-24 57.5t24 58t58 24t58 -24t24 -58t-24 -57.5t-58 -23.5zM207 1094l35 12l20 -21v-1210q0 -86 -8 -148t-28 -114t-58.5 -78.5t-95.5 -26.5q-76 0 -115 47.5t-39 102.5q0 32 17 51t45 19t44.5 -20t16.5 -58q0 -17 0.5 -25.5t3 -21t8 -18.5
t16.5 -10.5t27 -4.5q17 0 30 6.5t22.5 21t16.5 30.5t11 43.5t6.5 49.5t3.5 60t1.5 64t0.5 71v981v15q0 35 -0.5 49t-3.5 31.5t-9 21t-18.5 6t-29.5 -3t-45 -15.5l-14 37z" />
    <glyph glyph-name="k" unicode="k" horiz-adv-x="866" 
d="M264 188q0 -96 21.5 -121.5t107.5 -25.5v-41h-332v41q86 0 107.5 25.5t21.5 121.5v1282v15q0 35 -0.5 49t-3.5 32t-9 21.5t-18.5 6t-29.5 -3t-45 -15.5l-14 37l139 55l35 12l20 -20v-1471zM662 164q45 -78 81.5 -100.5t102.5 -22.5v-41h-340v41q96 0 106 17.5t-34 87.5
q-7 12 -11 18l-262 461l240 295q9 11 23.5 28.5t20 24t12.5 17t7.5 13.5t-1.5 9t-9 7t-20 3t-28.5 2h-41.5v41h323v-41q-69 0 -111.5 -18.5t-96.5 -85.5l-232 -285z" />
    <glyph glyph-name="l" unicode="l" horiz-adv-x="434" 
d="M264 188q0 -96 21.5 -121.5t107.5 -25.5v-41h-332v41q86 0 107.5 25.5t21.5 121.5v1282v15q0 35 -0.5 49t-3.5 32t-9 21.5t-18.5 6t-29.5 -3t-45 -15.5l-14 37l139 55l35 12l20 -20v-1471z" />
    <glyph glyph-name="m" unicode="m" horiz-adv-x="1333" 
d="M1163 188q0 -96 21.5 -121.5t107.5 -25.5v-41h-331v41q86 0 107.5 25.5t21.5 121.5v654q0 96 -31 139t-96 43q-119 0 -248 -158v-24v-654q0 -96 21.5 -121.5t107.5 -25.5v-41h-332v41q86 0 107.5 25.5t21.5 121.5v654q0 96 -31 139t-96 43q-119 0 -250 -160v-676
q0 -96 21.5 -121.5t107.5 -25.5v-41h-332v41q86 0 107.5 25.5t21.5 121.5v709v15q0 35 -0.5 49t-3.5 31.5t-9 21t-18.5 6t-29.5 -3t-45 -15.5l-14 37l139 56l35 12l20 -21v-159h6q122 180 254 180q161 0 185 -180h6q129 180 258 180q190 0 190 -264v-654z" />
    <glyph glyph-name="n" unicode="n" horiz-adv-x="884" 
d="M264 1085v-159h6q122 180 254 180q191 0 191 -264v-654q0 -96 21.5 -121.5t107.5 -25.5v-41h-332v41q86 0 107.5 25.5t21.5 121.5v654q0 192 -127 192q-111 0 -250 -170v-676q0 -96 21.5 -121.5t107.5 -25.5v-41h-332v41q86 0 107.5 25.5t21.5 121.5v709v15q0 35 -0.5 49
t-3.5 31.5t-9 21t-18.5 6t-29.5 -3t-45 -15.5l-14 37l139 56l35 12z" />
    <glyph glyph-name="o" unicode="o" horiz-adv-x="917" 
d="M459 -41q-116 0 -203 78t-130.5 207t-43.5 288t43.5 288t130.5 207.5t203 78.5t203 -78.5t130.5 -207.5t43.5 -288t-43.5 -288t-130.5 -207t-203 -78zM504 23q132 12 200 159.5t48 376.5q-20 228 -112.5 361.5t-225.5 121.5q-132 -12 -200 -159.5t-48 -376.5
q20 -228 112.5 -361.5t225.5 -121.5z" />
    <glyph glyph-name="p" unicode="p" horiz-adv-x="882" 
d="M539 1106q69 0 121 -41.5t82 -114.5t44.5 -161.5t14.5 -192.5q0 -170 -33 -311t-106.5 -233.5t-176.5 -92.5q-72 0 -134 40.5t-103 117.5h-4v-379q0 -96 21.5 -122t107.5 -26v-41h-332v41q86 0 107.5 26t21.5 122v1159q0 90 -7 106q-11 25 -56 12q-17 -4 -44 -14l-14 37
l139 56l35 12l21 -21v-211h8q64 113 133 172.5t154 59.5zM487 20q64 0 111 46t72.5 123.5t37 164t11.5 183.5q0 114 -9.5 199.5t-32 152t-62 101t-95.5 34.5q-145 0 -276 -211v-430q0 -168 68 -265.5t175 -97.5z" />
    <glyph glyph-name="q" unicode="q" horiz-adv-x="882" 
d="M639 1042l53 64l21 -21v-1347q0 -96 21.5 -122t107.5 -26v-41h-332v41q86 0 107.5 26t21.5 122v412h-8q-60 -94 -116 -142.5t-128 -48.5q-143 0 -224 138.5t-81 371.5q0 128 20 239t61.5 202t112.5 143.5t164 52.5t199 -64zM639 909q-75 135 -197 135q-55 0 -99.5 -21
t-74.5 -60t-51 -87t-32 -108t-16 -118t-5 -122q0 -487 239 -487q29 0 56.5 9t45 18t41.5 32.5t32.5 33t32.5 41t28 36.5v698z" />
    <glyph glyph-name="r" unicode="r" horiz-adv-x="649" 
d="M502 1106q46 0 76 -22t30 -58q0 -26 -16.5 -44.5t-44.5 -18.5q-45 0 -58 36q-8 25 -32 25q-44 0 -84.5 -41t-108.5 -147v-648q0 -51 5 -76.5t27 -43.5t58 -22.5t105 -4.5v-41h-398v41q86 0 107.5 25.5t21.5 121.5v709v15q0 35 -0.5 49t-3.5 31.5t-9 21t-18.5 6t-29.5 -3
t-45 -15.5l-14 37l139 56l35 12l20 -21v-167h6q106 188 232 188z" />
    <glyph glyph-name="s" unicode="s" horiz-adv-x="675" 
d="M104 -20v395h41q15 -161 79.5 -258t164.5 -97q73 0 108 47.5t35 131.5q0 43 -12.5 84t-29.5 71.5t-49.5 68.5t-57.5 62.5t-69 65.5q-9 8 -13 12q-50 46 -79.5 76.5t-60.5 72t-45 84t-14 89.5q0 94 60.5 157.5t152.5 63.5q43 0 78 -13t53 -28t34.5 -28t25.5 -13
q14 0 17 12.5t3 48.5h41v-321h-41q-16 125 -67.5 202.5t-136.5 77.5q-71 0 -104.5 -45.5t-33.5 -97.5q0 -44 15.5 -85.5t48.5 -82.5t62.5 -70.5t78.5 -72.5q130 -117 177.5 -196t47.5 -191q0 -116 -63 -180t-156 -64q-45 0 -84.5 13t-61.5 28t-42.5 28t-32.5 13
q-17 0 -23 -14.5t-6 -46.5h-41z" />
    <glyph glyph-name="t" unicode="t" horiz-adv-x="630" 
d="M549 451h41q0 -101 -5 -174t-18 -136t-35 -101.5t-57 -59.5t-84 -21q-100 0 -148 84.5t-48 278.5v682h-175v61q123 0 165 63.5t42 229.5h41v-293h252v-61h-252v-601q0 -66 1 -105.5t5 -86.5t13 -73.5t23 -51t37 -35t54 -10.5q53 0 84.5 36t47.5 126.5t16 247.5z" />
    <glyph glyph-name="u" unicode="u" horiz-adv-x="847" 
d="M612 -20v159h-6q-122 -180 -254 -180q-190 0 -190 264v654q0 90 -7 106q-11 25 -56 12q-17 -4 -44 -14l-14 37l139 55l35 12l21 -20v-842q0 -192 126 -192q111 0 250 170v676v15q0 35 -0.5 49t-3.5 31.5t-9 21t-18.5 6t-29.5 -3t-45 -15.5l-14 37l139 55l35 12l20 -20
v-897q0 -90 7 -107q11 -25 56 -12q17 4 44 14l14 -36l-139 -56l-35 -12z" />
    <glyph glyph-name="v" unicode="v" horiz-adv-x="897" 
d="M672 885q30 89 13.5 114t-118.5 25v41h310v-41q-63 0 -90.5 -26t-51.5 -113l-266 -932h-41l-266 932q-24 87 -51.5 113t-90.5 26v41h316v-41q-92 0 -105 -25t15 -114l211 -735h6z" />
    <glyph glyph-name="w" unicode="w" horiz-adv-x="1302" 
d="M1282 1065v-41q-63 0 -90 -25.5t-51 -113.5l-267 -932h-40l-162 563l-162 -563h-41l-301 932q-27 87 -56 113t-92 26v41h332v-41q-102 0 -116.5 -25t18.5 -114l240 -744h6l141 488l-74 256q-24 88 -51 113.5t-90 25.5v41h315v-41q-92 0 -105 -25t15 -114l211 -735h6
l209 735q30 89 14 114t-118 25v41h309z" />
    <glyph glyph-name="x" unicode="x" horiz-adv-x="874" 
d="M659 170q39 -81 74.5 -105t100.5 -24v-41h-322v41q87 0 96 19.5t-31 92.5q-5 11 -8 17l-151 311l-142 -309q-36 -81 -36 -99q-1 -23 35 -29q22 -3 65 -3v-41h-299v41q65 0 98 24t70 107l174 381l-168 342q-40 81 -74.5 105t-99.5 24v41h321v-41q-87 0 -96 -19.5t31 -92.5
q5 -11 8 -17l121 -246l111 244q36 81 36 99q1 23 -35 29q-21 3 -65 3v41h299v-41q-65 0 -98 -24t-70 -107l-143 -315z" />
    <glyph glyph-name="y" unicode="y" horiz-adv-x="897" 
d="M55 -379q0 27 18.5 46.5t49.5 19.5q47 0 70 -56q10 -23 20 -32t31 -9q58 0 103 98.5t91 311.5l-256 885q-24 88 -51 113.5t-90 25.5v41h332v-41q-102 0 -118 -25t13 -114l209 -731l180 729q27 91 9.5 116t-119.5 25v41h309v-41q-62 0 -87 -25.5t-48 -115.5l-209 -846
q-52 -211 -67 -258q-66 -207 -166 -255q-34 -16 -74 -16q-62 0 -106 32t-44 81z" />
    <glyph glyph-name="z" unicode="z" horiz-adv-x="776" 
d="M526 61q41 0 64 5t41.5 18t26.5 44t12 74.5t4 116.5h41v-319h-654v41l547 963h-317q-41 0 -64 -4t-41.5 -15.5t-26.5 -37.5t-12 -63.5t-4 -99.5h-41v281h613v-41l-547 -963h358z" />
    <glyph glyph-name="braceleft" unicode="{" horiz-adv-x="706" 
d="M645 1638q-73 -17 -126 -53t-81 -83t-40.5 -94.5t-12.5 -98.5q0 -94 34 -239t34 -234q0 -77 -26 -137.5t-67.5 -94t-86.5 -50.5t-89 -17v-7q44 0 89 -17t86.5 -51t67.5 -95t26 -138q0 -89 -34 -234t-34 -239q0 -51 12.5 -98.5t40.5 -94.5t81 -83t126 -53v-41
q-77 12 -138 42t-98.5 68t-62 85t-34 90t-9.5 85q0 107 34 261t34 229q0 68 -23.5 120.5t-63 83.5t-86 46.5t-96.5 15.5v41q50 0 96.5 15.5t86 46.5t63 83.5t23.5 120.5q0 75 -34 229t-34 261q0 42 9.5 85t34 90t62 85t98.5 68t138 42v-41z" />
    <glyph glyph-name="bar" unicode="|" horiz-adv-x="286" 
d="M102 1741h82v-2130h-82v2130z" />
    <glyph glyph-name="braceright" unicode="}" horiz-adv-x="706" 
d="M336 819q0 -131 80 -198.5t188 -67.5v-41q-108 0 -188 -67.5t-80 -198.5q0 -75 33.5 -229t33.5 -261q0 -42 -9.5 -85t-34 -90t-62 -85t-98.5 -68t-138 -42v41q73 17 126 53t81 83t41 94.5t13 98.5q0 94 -34 239t-34 234q0 77 26 138t67 95t86 51t89 17v7q-44 0 -89 17
t-86 50.5t-67 94t-26 137.5q0 89 34 234t34 239q0 51 -13 98.5t-41 94.5t-81 83t-126 53v41q77 -12 138 -42t98.5 -68t62 -85t34 -90t9.5 -85q0 -107 -33.5 -261t-33.5 -229z" />
    <glyph glyph-name="asciitilde" unicode="~" horiz-adv-x="1064" 
d="M922 657h41q0 -103 -60 -158t-151 -55q-55 0 -118 21t-110.5 46t-109.5 46t-117 21q-136 0 -154 -132h-41q0 103 60 158t151 55q55 0 118 -21t110.5 -45.5t109.5 -45.5t117 -21q136 0 154 131z" />
    <glyph glyph-name="exclamdown" unicode="&#xa1;" horiz-adv-x="368" 
d="M184 1106q34 0 58 -24t24 -58t-24 -58t-58 -24t-58 24t-24 58t24 58t58 24zM123 -465q0 106 20 470t23 671h41q3 -305 21 -669.5t18 -471.5q0 -84 -15 -116.5t-47 -32.5t-46.5 32t-14.5 117z" />
    <glyph glyph-name="cent" unicode="&#xa2;" horiz-adv-x="835" 
d="M692 418h41q-22 -226 -97.5 -342.5t-199.5 -116.5q-56 0 -110 23l-95 -433h-61l102 465q-83 66 -126.5 196.5t-43.5 301.5q0 269 94.5 431.5t254.5 162.5q33 0 57 -6l119 538h61l-123 -563q62 -35 94.5 -102t32.5 -125q0 -82 -59 -82q-64 0 -64 90q0 81 -24 125
l-199 -907q47 -33 109 -33q89 0 146 87.5t91 289.5zM184 532q0 -284 111 -413l199 915q-20 10 -50 10q-127 0 -193.5 -135t-66.5 -377z" />
    <glyph glyph-name="sterling" unicode="&#xa3;" horiz-adv-x="970" 
d="M827 297h41q0 -38 -2 -69.5t-8.5 -74t-20 -74t-34.5 -60.5t-55.5 -44.5t-79.5 -15.5q-32 0 -65.5 10t-55 19.5t-57.5 35t-46.5 34.5t-48.5 40q-60 -139 -157 -139q-67 0 -101.5 39t-34.5 100q0 71 44.5 106.5t97.5 35.5q49 0 116 -43q27 140 27 397q0 98 -6 174h-205v61
h201q-3 36 -12.5 125t-14 160t-4.5 158q0 186 70 296.5t215 110.5q95 0 156 -63t61 -143q0 -34 -17 -54t-43 -20q-27 0 -45 17t-18 52q0 28 -1.5 45.5t-7 39.5t-17 34.5t-32.5 21.5t-51 9q-65 0 -108 -47.5t-61.5 -122.5t-18.5 -176q0 -78 5.5 -148.5t14.5 -154t13 -140.5
h254v-61h-250q4 -102 4 -174q0 -266 -51 -436q41 -31 59 -43.5t54.5 -34t68 -30.5t64.5 -9q90 0 126.5 62t36.5 194zM238 20q68 0 108 115q-59 43 -104 43q-34 0 -56 -21t-22 -57q0 -35 19 -57.5t55 -22.5z" />
    <glyph glyph-name="currency" unicode="&#xa4;" horiz-adv-x="1261" 
d="M1057 745q0 -160 -105 -278l207 -207l-43 -43l-207 207q-118 -105 -278 -105q-161 0 -279 105l-207 -207l-43 43l207 207q-104 117 -104 278q0 162 104 279l-207 207l43 43l207 -207q117 104 279 104q161 0 278 -104l207 207l43 -43l-207 -207q105 -118 105 -279z
M389 473q107 -92 242 -92q134 0 241 92l31 31q92 107 92 241q0 135 -92 242l-31 31q-107 92 -241 92q-135 0 -242 -92l-31 -31q-92 -107 -92 -242q0 -134 92 -241z" />
    <glyph glyph-name="yen" unicode="&#xa5;" horiz-adv-x="1486" 
d="M1303 1597q-91 0 -130.5 -23.5t-76.5 -107.5l-299 -663h469v-62h-496l-10 -20v-143h506v-62h-506v-328q0 -35 1.5 -54.5t9 -38.5t20 -27.5t37.5 -15.5t58 -9t85 -2v-41h-496v41q52 0 85 2t58 9t37.5 15.5t20 27.5t9 38.5t1.5 54.5v328h-465v62h465v143l-10 20h-455v62
h424l-330 667q-40 81 -81 104t-132 23v41h435v-41q-142 0 -159 -22t30 -107l321 -653h6l291 651q33 74 33 91q0 26 -43 34q-33 6 -123 6v41h410v-41z" />
    <glyph glyph-name="brokenbar" unicode="&#xa6;" horiz-adv-x="286" 
d="M102 1618h82v-758h-82v758zM102 492h82v-758h-82v758z" />
    <glyph glyph-name="section" unicode="&#xa7;" horiz-adv-x="755" 
d="M653 727q0 -94 -47.5 -167.5t-126.5 -141.5q103 -129 103 -271q0 -130 -72.5 -200t-171.5 -70q-93 0 -155 60t-62 126q0 34 16.5 54t42.5 20q27 0 45.5 -17.5t18.5 -51.5q0 -27 2.5 -44.5t12 -39.5t33 -33.5t60.5 -11.5q82 0 125 56.5t43 143.5q0 78 -40.5 146.5
t-162.5 179.5q-121 111 -168 184.5t-47 179.5q0 94 47.5 168t126.5 142q-102 128 -102 270q0 130 72.5 200t171.5 70q93 0 155 -60t62 -126q0 -34 -17 -54t-43 -20q-27 0 -45 17.5t-18 52.5q0 26 -3 44t-12.5 40t-33 33.5t-60.5 11.5q-82 0 -124.5 -57t-42.5 -144
q0 -78 40.5 -146t161.5 -179t168 -185t47 -180zM391 512q37 -32 60 -61v2q141 121 141 249q0 48 -12 86.5t-47 83t-66 75.5t-102 97q-34 30 -60 62v-2q-141 -121 -141 -250q0 -48 12 -86.5t47 -83t66 -75.5t102 -97z" />
    <glyph glyph-name="dieresis" unicode="&#xa8;" horiz-adv-x="696" 
d="M184 1372q-34 0 -58 24t-24 58t24 58t58 24t58 -24t24 -58t-24 -58t-58 -24zM512 1372q-34 0 -58 24t-24 58t24 58t58 24t58 -24t24 -58t-24 -58t-58 -24z" />
    <glyph glyph-name="copyright" unicode="&#xa9;" horiz-adv-x="1884" 
d="M944 1679q140 0 269 -42.5t231.5 -121.5t179 -184.5t117.5 -238t41 -275.5q0 -234 -109.5 -430.5t-302.5 -312t-426 -115.5q-177 0 -334 68t-268 183.5t-175.5 273.5t-64.5 333q0 179 64.5 338.5t175.5 274.5t268 182t334 67zM944 1618q-166 0 -311.5 -63.5t-248 -171
t-161.5 -255t-59 -311.5t59 -311.5t161.5 -254t248 -169t311.5 -62.5q215 0 393.5 106t280.5 289t102 402q0 163 -60 311t-163 255.5t-247.5 171t-305.5 63.5zM426 811q0 152 65.5 274t178.5 190t250 68q78 0 146 -19t104.5 -42t66.5 -42t41 -19q12 0 16 15t4 67h41l31 -379
h-41q-21 169 -133 263.5t-276 94.5q-171 0 -291.5 -134t-120.5 -337q0 -204 123.5 -337.5t308.5 -133.5q169 0 291.5 104t169.5 291h41q-52 -219 -181.5 -337.5t-330.5 -118.5q-222 0 -363 149.5t-141 382.5z" />
    <glyph glyph-name="guillemotleft" unicode="&#xab;" horiz-adv-x="802" 
d="M184 600l250 -500h-41l-291 500l291 494h41zM451 600l249 -500h-41l-290 500l290 494h41z" />
    <glyph glyph-name="logicalnot" unicode="&#xac;" horiz-adv-x="1193" 
d="M102 856h990v-491h-82v409h-908v82z" />
    <glyph glyph-name="registered" unicode="&#xae;" horiz-adv-x="1888" 
d="M944 1679q140 0 269.5 -42.5t232.5 -121t180 -184t118.5 -237.5t41.5 -275q0 -175 -65.5 -333.5t-177 -274t-268 -184t-331.5 -68.5q-177 0 -334 68t-268 184t-175.5 274.5t-64.5 333.5q0 179 64.5 338.5t175.5 274t268 181t334 66.5zM944 20q215 0 394.5 106.5
t282.5 290t103 402.5q0 218 -103 401.5t-282.5 290.5t-394.5 107q-166 0 -311.5 -63t-248 -170.5t-161.5 -254.5t-59 -311t59 -311.5t161.5 -255t248 -170t311.5 -62.5zM1188 442q50 -71 88.5 -91.5t97.5 -20.5v-41h-168l-317 450h4h-45h-127v-262q0 -97 16.5 -122t89.5 -25
v-41h-282v41q71 0 87.5 25t16.5 122v688q0 97 -16.5 122.5t-87.5 25.5v41h299q424 0 424 -307q0 -257 -295 -299zM844 801q180 0 261 58t81 188q0 129 -78 187t-244 58q-88 0 -143 -18v-473h123z" />
    <glyph glyph-name="macron" unicode="&#xaf;" horiz-adv-x="655" 
d="M102 1485h451v-62h-451v62z" />
    <glyph glyph-name="degree" unicode="&#xb0;" horiz-adv-x="1019" 
d="M510 864q-169 0 -288.5 119.5t-119.5 288.5t119.5 288t288.5 119t288.5 -119t119.5 -288t-119.5 -288.5t-288.5 -119.5zM510 926q142 0 244 102t102 244t-102 244t-244 102t-244 -102t-102 -244t102 -244t244 -102z" />
    <glyph glyph-name="plusminus" unicode="&#xb1;" horiz-adv-x="983" 
d="M102 655v82h351v348h82v-348h346v-82h-346v-348h-82v348h-351zM102 102v82h779v-82h-779z" />
    <glyph glyph-name="acute" unicode="&#xb4;" horiz-adv-x="464" 
d="M102 1278l138 360h143l-219 -360h-62z" />
    <glyph glyph-name="paragraph" unicode="&#xb6;" horiz-adv-x="1230" 
d="M1128 1679v-41q-52 0 -85 -2t-58 -9t-37 -15t-19.5 -27.5t-9 -39t-1.5 -54.5v-1819h-82v1946h-211v-1946h-82v1270q-200 0 -320.5 96.5t-120.5 272.5t120.5 272t320.5 96h585z" />
    <glyph glyph-name="periodcentered" unicode="&#xb7;" horiz-adv-x="368" 
d="M184 727q-34 0 -58 24t-24 58t24 58t58 24t58 -24t24 -58t-24 -58t-58 -24z" />
    <glyph glyph-name="cedilla" unicode="&#xb8;" horiz-adv-x="608" 
d="M225 -141l168 161h62l-115 -129q71 -6 118.5 -47.5t47.5 -101.5q0 -84 -57.5 -140.5t-148 -77.5t-198.5 -9l13 41q137 -6 223 36.5t86 137.5q0 76 -50 101.5t-149 27.5z" />
    <glyph glyph-name="guillemotright" unicode="&#xbb;" horiz-adv-x="802" 
d="M352 600l-250 494h41l291 -494l-291 -500h-41zM618 600l-249 494h41l290 -494l-290 -500h-41z" />
    <glyph glyph-name="onequarter" unicode="&#xbc;" horiz-adv-x="1406" 
d="M301 784q0 -57 15 -72.5t75 -15.5v-24h-231v24q60 0 75 15.5t15 72.5v746q0 53 -6 60q-10 10 -63 -23q-10 -6 -23 -15l-15 21l123 80l21 14l14 -12v-871zM1167 1638h66l-1018 -1638h-65zM696 287v37l412 659h51v-659h105v-37h-105v-174q0 -57 15 -72.5t75 -15.5v-25h-231
v25q60 0 75 15.5t15 72.5v174h-412zM748 324h360v583l-360 -579v-4z" />
    <glyph glyph-name="onehalf" unicode="&#xbd;" horiz-adv-x="1675" 
d="M301 784q0 -57 15 -72.5t75 -15.5v-24h-231v24q60 0 75 15.5t15 72.5v746q0 53 -6 60q-10 10 -63 -23q-10 -6 -23 -15l-15 21l123 80l21 14l14 -12v-871zM1202 1638h66l-1018 -1638h-66zM1380 49q57 0 79.5 21.5t47.5 97.5l23 -6l-41 -131l-10 -31h-566v25q95 85 162 150
t136.5 143.5t111.5 145t69 141t27 145.5q0 57 -14.5 101t-57 75.5t-110.5 31.5q-120 0 -184 -86t-64 -229h-28q0 168 72.5 266.5t211.5 98.5q116 0 174 -71t58 -179q0 -301 -484 -705v-4h387z" />
    <glyph glyph-name="threequarters" unicode="&#xbe;" horiz-adv-x="1609" 
d="M156 702q0 27 32 27q23 0 54 -27q40 -34 114 -34q42 0 81 13.5t72.5 41t54 75t20.5 109.5q0 71 -24 123t-65 79t-87 39.5t-99 12.5v25q232 74 232 260q0 70 -40.5 119t-117.5 49q-88 0 -133.5 -45t-65.5 -119h-28q17 105 80 159t155 54q90 0 148.5 -59.5t58.5 -157.5
q0 -160 -192 -254v-4q108 -16 171.5 -84t63.5 -182q0 -127 -89.5 -209t-219.5 -82q-67 0 -121.5 21t-54.5 50zM1366 1638h66l-1018 -1638h-66zM899 287v37l412 659h51v-659h104v-37h-104v-174q0 -57 15 -72.5t75 -15.5v-25h-231v25q60 0 75 15.5t15 72.5v174h-412zM950 324
h361v583l-361 -579v-4z" />
    <glyph glyph-name="questiondown" unicode="&#xbf;" horiz-adv-x="753" 
d="M375 1106q34 0 58 -24t24 -58t-24 -58t-58 -24t-58 24t-24 58t24 58t58 24zM143 -291q0 -118 56 -190t163 -72q98 0 152.5 60.5t54.5 134.5q0 37 -11 63t-24.5 38t-24.5 31.5t-11 43.5q0 53 51 53q41 0 71.5 -51t30.5 -139q0 -122 -77.5 -208.5t-217.5 -86.5
q-137 0 -216 87t-79 216q0 71 16 133.5t42 112.5t57 101.5t62.5 112.5t57.5 131.5t42 172.5t16 223h41q0 -131 -14 -239t-36 -180t-49 -131.5t-54 -106.5t-49 -91.5t-36 -99.5t-14 -119z" />
    <glyph glyph-name="Agrave" unicode="&#xc0;" horiz-adv-x="1380" 
d="M778 1851h-61l-219 361h143zM1176 180q28 -89 61.5 -114t122.5 -25v-41h-426v41q143 0 166.5 25t-10.5 114l-113 365h-594l-113 -365q-34 -89 -10.5 -114t166.5 -25v-41h-406v41q89 0 123.5 25.5t61.5 113.5l465 1506h41zM401 606h557l-276 893h-6z" />
    <glyph glyph-name="Aacute" unicode="&#xc1;" horiz-adv-x="1380" 
d="M901 2212l-219 -361h-61l137 361h143zM1176 180q28 -89 61.5 -114t122.5 -25v-41h-426v41q143 0 166.5 25t-10.5 114l-113 365h-594l-113 -365q-34 -89 -10.5 -114t166.5 -25v-41h-406v41q89 0 123.5 25.5t61.5 113.5l465 1506h41zM401 606h557l-276 893h-6z" />
    <glyph glyph-name="Acircumflex" unicode="&#xc2;" horiz-adv-x="1380" 
d="M690 2120l-178 -269h-61l178 361h123l178 -361h-62zM1176 180q28 -89 61.5 -114t122.5 -25v-41h-426v41q143 0 166.5 25t-10.5 114l-113 365h-594l-113 -365q-34 -89 -10.5 -114t166.5 -25v-41h-406v41q89 0 123.5 25.5t61.5 113.5l465 1506h41zM401 606h557l-276 893h-6
z" />
    <glyph glyph-name="Atilde" unicode="&#xc3;" horiz-adv-x="1380" 
d="M545 2085q-46 0 -66.5 -33t-23.5 -100h-41q3 107 34.5 161t102.5 54q41 0 82 -21t68.5 -45.5t64 -45.5t70.5 -21q46 0 66.5 33t23.5 100h41q-3 -106 -35 -160.5t-103 -54.5q-41 0 -81.5 21t-68 45.5t-64 45.5t-70.5 21zM1176 180q28 -89 61.5 -114t122.5 -25v-41h-426v41
q143 0 166.5 25t-10.5 114l-113 365h-594l-113 -365q-34 -89 -10.5 -114t166.5 -25v-41h-406v41q89 0 123.5 25.5t61.5 113.5l465 1506h41zM401 606h557l-276 893h-6z" />
    <glyph glyph-name="Adieresis" unicode="&#xc4;" horiz-adv-x="1380" 
d="M526 1946q-34 0 -58 24t-24 58t24 57.5t58 23.5t58 -23.5t24 -57.5t-24 -58t-58 -24zM854 1946q-34 0 -58 24t-24 58t24 57.5t58 23.5t58 -23.5t24 -57.5t-24 -58t-58 -24zM1176 180q28 -89 61.5 -114t122.5 -25v-41h-426v41q143 0 166.5 25t-10.5 114l-113 365h-594
l-113 -365q-34 -89 -10.5 -114t166.5 -25v-41h-406v41q89 0 123.5 25.5t61.5 113.5l465 1506h41zM401 606h557l-276 893h-6z" />
    <glyph glyph-name="Aring" unicode="&#xc5;" horiz-adv-x="1380" 
d="M690 1866q-83 0 -138.5 58t-55.5 136t55.5 135.5t138.5 57.5t138 -57.5t55 -135.5q0 -79 -55 -136.5t-138 -57.5zM690 2191q-63 0 -98 -39.5t-35 -91.5q0 -54 34.5 -93.5t98.5 -39.5q62 0 96.5 39.5t34.5 93.5q0 52 -34.5 91.5t-96.5 39.5zM1176 180q28 -89 61.5 -114
t122.5 -25v-41h-426v41q143 0 166.5 25t-10.5 114l-113 365h-594l-113 -365q-34 -89 -10.5 -114t166.5 -25v-41h-406v41q89 0 123.5 25.5t61.5 113.5l465 1506h41zM401 606h557l-276 893h-6z" />
    <glyph glyph-name="AE" unicode="&#xc6;" horiz-adv-x="1687" 
d="M1628 408l39 -13l-111 -366l-8 -29h-868v41q52 0 85 2t58 9t37.5 15.5t20 27.5t9 38.5t1.5 54.5v357h-445l-157 -371q-31 -74 -31 -92q1 -28 49 -35q34 -6 119 -6v-41h-406v41q90 0 128.5 24.5t74.5 108.5l553 1290q31 74 31 92q-1 28 -49 35q-34 6 -119 6v41h903l4 -34
l31 -310l-41 -4q-8 84 -17 132.5t-20 82.5t-31.5 48t-43 19t-64.5 5h-395v-686h299q35 0 54.5 2t38.5 10t27.5 21.5t15.5 41t9 63.5t2 93h41v-524h-41q0 57 -2 93t-9 63.5t-15.5 41t-27.5 21.5t-38.5 10t-54.5 2h-299v-651q0 -72 18 -94.5t78 -22.5h317q51 0 79 9t57.5 47.5
t53 102.5t60.5 188zM473 606h418v963h-6z" />
    <glyph glyph-name="Ccedilla" unicode="&#xc7;" horiz-adv-x="1220" 
d="M1180 662q-22 -195 -79.5 -342.5t-157.5 -243t-234 -113.5l-64 -72q71 -6 118.5 -47.5t47.5 -101.5q0 -84 -57.5 -140.5t-147.5 -77.5t-198 -9l12 41q137 -6 223 36.5t86 137.5q0 76 -50 101.5t-149 27.5l105 100q-128 3 -233.5 72t-175 186t-107 271.5t-37.5 330.5
q0 238 68 432t200.5 311t306.5 117q70 0 132.5 -19t97.5 -42.5t67 -42.5t47 -19q21 0 28 19t7 84h41l31 -563h-41q-52 522 -410 522q-112 0 -206 -63t-156 -172t-96.5 -254.5t-34.5 -309.5t34.5 -309.5t96.5 -254.5t156 -172t206 -63q129 0 232 83t165.5 226.5t84.5 332.5
h41z" />
    <glyph glyph-name="Egrave" unicode="&#xc8;" horiz-adv-x="1150" 
d="M670 1790h-62l-219 360h143zM1006 1638l4 -34l30 -310l-41 -4q-8 84 -17 132.5t-20 82.5t-31.5 48t-43 19t-64.5 5h-497v-686h340q35 0 54.5 2t38.5 10t27.5 21.5t15.5 41t9 63.5t2 93h41v-524h-41q0 57 -2 93t-9 63.5t-15.5 41t-27.5 21.5t-38.5 10t-54.5 2h-340v-651
q0 -72 18 -94.5t78 -22.5h420q51 0 79 9t57.5 47.5t53 102.5t60.5 188l38 -13l-110 -366l-8 -29h-971v41q52 0 85 2t58 9t37.5 15.5t20 27.5t9 38.5t1.5 54.5v1262q0 35 -1.5 54.5t-9 38.5t-20 27.5t-37.5 15.5t-58 9t-85 2v41h965z" />
    <glyph glyph-name="Eacute" unicode="&#xc9;" horiz-adv-x="1150" 
d="M512 1790l137 360h144l-220 -360h-61zM1006 1638l4 -34l30 -310l-41 -4q-8 84 -17 132.5t-20 82.5t-31.5 48t-43 19t-64.5 5h-497v-686h340q35 0 54.5 2t38.5 10t27.5 21.5t15.5 41t9 63.5t2 93h41v-524h-41q0 57 -2 93t-9 63.5t-15.5 41t-27.5 21.5t-38.5 10t-54.5 2
h-340v-651q0 -72 18 -94.5t78 -22.5h420q51 0 79 9t57.5 47.5t53 102.5t60.5 188l38 -13l-110 -366l-8 -29h-971v41q52 0 85 2t58 9t37.5 15.5t20 27.5t9 38.5t1.5 54.5v1262q0 35 -1.5 54.5t-9 38.5t-20 27.5t-37.5 15.5t-58 9t-85 2v41h965z" />
    <glyph glyph-name="Ecircumflex" unicode="&#xca;" horiz-adv-x="1150" 
d="M582 2058l-179 -268h-61l178 360h123l178 -360h-61zM1092 408l38 -13l-110 -366l-8 -29h-971v41q52 0 85 2t58 9t37.5 15.5t20 27.5t9 38.5t1.5 54.5v1262q0 35 -1.5 54.5t-9 38.5t-20 27.5t-37.5 15.5t-58 9t-85 2v41h965l4 -34l30 -310l-41 -4q-8 84 -17 132.5
t-20 82.5t-31.5 48t-43 19t-64.5 5h-497v-686h340q35 0 54.5 2t38.5 10t27.5 21.5t15.5 41t9 63.5t2 93h41v-524h-41q0 57 -2 93t-9 63.5t-15.5 41t-27.5 21.5t-38.5 10t-54.5 2h-340v-651q0 -72 18 -94.5t78 -22.5h420q51 0 79 9t57.5 47.5t53 102.5t60.5 188z" />
    <glyph glyph-name="Edieresis" unicode="&#xcb;" horiz-adv-x="1150" 
d="M418 1884q-34 0 -58 24t-24 58t24 58t58 24t58 -24t24 -58t-24 -58t-58 -24zM745 1884q-34 0 -57.5 24t-23.5 58t23.5 58t57.5 24t58 -24t24 -58t-24 -58t-58 -24zM1006 1638l4 -34l30 -310l-41 -4q-8 84 -17 132.5t-20 82.5t-31.5 48t-43 19t-64.5 5h-497v-686h340
q35 0 54.5 2t38.5 10t27.5 21.5t15.5 41t9 63.5t2 93h41v-524h-41q0 57 -2 93t-9 63.5t-15.5 41t-27.5 21.5t-38.5 10t-54.5 2h-340v-651q0 -72 18 -94.5t78 -22.5h420q51 0 79 9t57.5 47.5t53 102.5t60.5 188l38 -13l-110 -366l-8 -29h-971v41q52 0 85 2t58 9t37.5 15.5
t20 27.5t9 38.5t1.5 54.5v1262q0 35 -1.5 54.5t-9 38.5t-20 27.5t-37.5 15.5t-58 9t-85 2v41h965z" />
    <glyph glyph-name="Igrave" unicode="&#xcc;" horiz-adv-x="577" 
d="M377 1790h-62l-219 360h144zM252 1450q0 35 -1.5 54.5t-9 38.5t-20 27.5t-37.5 15.5t-58 9t-85 2v41h496v-41q-52 0 -85 -2t-58 -9t-37.5 -15.5t-20 -27.5t-9 -38.5t-1.5 -54.5v-1262q0 -35 1.5 -54.5t9 -38.5t20 -27.5t37.5 -15.5t58 -9t85 -2v-41h-496v41q52 0 85 2
t58 9t37.5 15.5t20 27.5t9 38.5t1.5 54.5v1262z" />
    <glyph glyph-name="Iacute" unicode="&#xcd;" horiz-adv-x="577" 
d="M219 1790l137 360h144l-219 -360h-62zM252 1450q0 35 -1.5 54.5t-9 38.5t-20 27.5t-37.5 15.5t-58 9t-85 2v41h496v-41q-52 0 -85 -2t-58 -9t-37.5 -15.5t-20 -27.5t-9 -38.5t-1.5 -54.5v-1262q0 -35 1.5 -54.5t9 -38.5t20 -27.5t37.5 -15.5t58 -9t85 -2v-41h-496v41
q52 0 85 2t58 9t37.5 15.5t20 27.5t9 38.5t1.5 54.5v1262z" />
    <glyph glyph-name="Icircumflex" unicode="&#xce;" horiz-adv-x="577" 
d="M289 2058l-178 -268h-62l178 360h123l178 -360h-61zM537 1597q-52 0 -85 -2t-58 -9t-37.5 -15.5t-20 -27.5t-9 -38.5t-1.5 -54.5v-1262q0 -35 1.5 -54.5t9 -38.5t20 -27.5t37.5 -15.5t58 -9t85 -2v-41h-496v41q52 0 85 2t58 9t37.5 15.5t20 27.5t9 38.5t1.5 54.5v1262
q0 35 -1.5 54.5t-9 38.5t-20 27.5t-37.5 15.5t-58 9t-85 2v41h496v-41z" />
    <glyph glyph-name="Idieresis" unicode="&#xcf;" horiz-adv-x="577" 
d="M125 1884q-34 0 -58 24t-24 58t24 58t58 24t58 -24t24 -58t-24 -58t-58 -24zM453 1884q-34 0 -58 24t-24 58t24 58t58 24t58 -24t24 -58t-24 -58t-58 -24zM252 1450q0 35 -1.5 54.5t-9 38.5t-20 27.5t-37.5 15.5t-58 9t-85 2v41h496v-41q-52 0 -85 -2t-58 -9t-37.5 -15.5
t-20 -27.5t-9 -38.5t-1.5 -54.5v-1262q0 -35 1.5 -54.5t9 -38.5t20 -27.5t37.5 -15.5t58 -9t85 -2v-41h-496v41q52 0 85 2t58 9t37.5 15.5t20 27.5t9 38.5t1.5 54.5v1262z" />
    <glyph glyph-name="Eth" unicode="&#xd0;" horiz-adv-x="1404" 
d="M551 1638q233 0 408 -101t269.5 -286.5t94.5 -431.5q0 -183 -56.5 -336.5t-158 -259.5t-244.5 -164.5t-313 -58.5h-510v41q52 0 85 2t58 9t37.5 15.5t20 27.5t9 38.5t1.5 54.5v662h-170v61h170v539q0 35 -1.5 54.5t-9 38.5t-20 27.5t-37.5 15.5t-58 9t-85 2v41h510z
M551 61q311 0 500.5 209t189.5 549t-189.5 549t-500.5 209q-147 0 -225 -37v-629h428v-61h-428v-752q78 -37 225 -37z" />
    <glyph glyph-name="Ntilde" unicode="&#xd1;" horiz-adv-x="1497" 
d="M553 2023q-46 0 -66.5 -33t-23.5 -100h-41q3 107 34.5 161t102.5 54q41 0 82 -21t68.5 -45.5t64 -45.5t70.5 -21q46 0 66.5 33t23.5 100h41q-3 -107 -34.5 -161t-102.5 -54q-41 0 -82 21t-68.5 45.5t-64 45.5t-70.5 21zM1456 1638v-41q-52 0 -85 -2t-58 -9t-37.5 -15.5
t-20 -27.5t-9 -38.5t-1.5 -54.5v-1497h-41l-891 1452v-1217q0 -35 1.5 -54.5t9 -38.5t20 -27.5t37.5 -15.5t58 -9t85 -2v-41h-483v41q52 0 85 2t58 9t37.5 15.5t20 27.5t9 38.5t1.5 54.5v1315q-41 60 -83.5 77t-127.5 17v41h223l914 -1484h6v1296q0 35 -1.5 54.5t-9 38.5
t-20 27.5t-37.5 15.5t-58 9t-85 2v41h483z" />
    <glyph glyph-name="Ograve" unicode="&#xd2;" horiz-adv-x="1314" 
d="M745 1790h-61l-219 360h143zM657 -41q-174 0 -306.5 117t-200.5 311t-68 432t68 432t200.5 311t306.5 117q132 0 241.5 -68t182 -185t112.5 -273.5t40 -333.5t-40 -333.5t-112.5 -273.5t-182 -185t-241.5 -68zM727 25q148 13 251.5 131t146 302.5t22.5 403.5
q-20 220 -93 394.5t-195.5 273.5t-270.5 86q-148 -14 -252 -132.5t-147 -303.5t-23 -404q15 -164 62 -305.5t118.5 -244.5t170 -157.5t210.5 -43.5z" />
    <glyph glyph-name="Oacute" unicode="&#xd3;" horiz-adv-x="1314" 
d="M588 1790l137 360h143l-219 -360h-61zM657 -41q-174 0 -306.5 117t-200.5 311t-68 432t68 432t200.5 311t306.5 117q132 0 241.5 -68t182 -185t112.5 -273.5t40 -333.5t-40 -333.5t-112.5 -273.5t-182 -185t-241.5 -68zM727 25q148 13 251.5 131t146 302.5t22.5 403.5
q-20 220 -93 394.5t-195.5 273.5t-270.5 86q-148 -14 -252 -132.5t-147 -303.5t-23 -404q15 -164 62 -305.5t118.5 -244.5t170 -157.5t210.5 -43.5z" />
    <glyph glyph-name="Ocircumflex" unicode="&#xd4;" horiz-adv-x="1314" 
d="M657 2058l-178 -268h-61l178 360h123l178 -360h-61zM657 1679q132 0 241.5 -68t182 -185t112.5 -273.5t40 -333.5t-40 -333.5t-112.5 -273.5t-182 -185t-241.5 -68q-174 0 -306.5 117t-200.5 311t-68 432t68 432t200.5 311t306.5 117zM727 25q148 13 251.5 131t146 302.5
t22.5 403.5q-20 220 -93 394.5t-195.5 273.5t-270.5 86q-148 -14 -252 -132.5t-147 -303.5t-23 -404q15 -164 62 -305.5t118.5 -244.5t170 -157.5t210.5 -43.5z" />
    <glyph glyph-name="Otilde" unicode="&#xd5;" horiz-adv-x="1314" 
d="M797 1890q-41 0 -82 21t-68.5 45.5t-64 45.5t-70.5 21q-46 0 -66.5 -33t-23.5 -100h-41q3 107 34.5 161t102.5 54q41 0 82 -21t68.5 -45.5t64 -45.5t70.5 -21q46 0 66.5 33t23.5 100h41q-3 -107 -34.5 -161t-102.5 -54zM657 -41q-174 0 -306.5 117t-200.5 311t-68 432
t68 432t200.5 311t306.5 117q132 0 241.5 -68t182 -185t112.5 -273.5t40 -333.5t-40 -333.5t-112.5 -273.5t-182 -185t-241.5 -68zM727 25q148 13 251.5 131t146 302.5t22.5 403.5q-20 220 -93 394.5t-195.5 273.5t-270.5 86q-148 -14 -252 -132.5t-147 -303.5t-23 -404
q15 -164 62 -305.5t118.5 -244.5t170 -157.5t210.5 -43.5z" />
    <glyph glyph-name="Odieresis" unicode="&#xd6;" horiz-adv-x="1314" 
d="M494 1884q-34 0 -58 24t-24 58t24 58t58 24t57.5 -24t23.5 -58t-23.5 -58t-57.5 -24zM821 1884q-34 0 -58 24t-24 58t24 58t58 24t58 -24t24 -58t-24 -58t-58 -24zM657 -41q-174 0 -306.5 117t-200.5 311t-68 432t68 432t200.5 311t306.5 117q132 0 241.5 -68t182 -185
t112.5 -273.5t40 -333.5t-40 -333.5t-112.5 -273.5t-182 -185t-241.5 -68zM727 25q148 13 251.5 131t146 302.5t22.5 403.5q-20 220 -93 394.5t-195.5 273.5t-270.5 86q-148 -14 -252 -132.5t-147 -303.5t-23 -404q15 -164 62 -305.5t118.5 -244.5t170 -157.5t210.5 -43.5z
" />
    <glyph glyph-name="multiply" unicode="&#xd7;" horiz-adv-x="815" 
d="M102 801l58 59l248 -248l247 246l58 -57l-246 -246l244 -246l-58 -57l-245 244l-246 -246l-58 57l246 248z" />
    <glyph glyph-name="Oslash" unicode="&#xd8;" horiz-adv-x="1355" 
d="M1071 1440q78 -117 120 -277.5t42 -343.5q0 -177 -40 -333.5t-112.5 -273.5t-182 -185t-241.5 -68q-203 0 -348 158l-114 -199l-54 31l125 217q-89 118 -136.5 287.5t-47.5 365.5q0 238 68 432t200.5 311t306.5 117q221 0 375 -184l131 227l54 -30zM166 776
q27 -302 156 -514l655 1137q-76 112 -175 169.5t-214 47.5q-148 -14 -252 -132.5t-147 -303.5t-23 -404zM727 25q148 13 251.5 131t146 302.5t22.5 403.5q-24 273 -133 477l-654 -1132q155 -202 367 -182z" />
    <glyph glyph-name="Ugrave" unicode="&#xd9;" horiz-adv-x="1505" 
d="M858 1790h-61l-219 360h143zM1192 1450q0 35 -1.5 54.5t-9 38.5t-20 27.5t-37.5 15.5t-58 9t-85 2v41h483v-41q-52 0 -85 -2t-58 -9t-37.5 -15.5t-20 -27.5t-9 -38.5t-1.5 -54.5v-967q0 -79 -13 -149.5t-47.5 -140.5t-87.5 -120.5t-139 -82t-196 -31.5q-122 0 -216 31.5
t-150 81.5t-91.5 121t-48 140.5t-12.5 149.5v967q0 35 -1.5 54.5t-9 38.5t-20 27.5t-37.5 15.5t-58 9t-85 2v41h496v-41q-52 0 -85 -2t-58 -9t-37.5 -15.5t-20 -27.5t-9 -38.5t-1.5 -54.5v-967q0 -463 444 -463q197 0 309.5 116.5t112.5 346.5v967z" />
    <glyph glyph-name="Uacute" unicode="&#xda;" horiz-adv-x="1505" 
d="M700 1790l138 360h143l-219 -360h-62zM1192 1450q0 35 -1.5 54.5t-9 38.5t-20 27.5t-37.5 15.5t-58 9t-85 2v41h483v-41q-52 0 -85 -2t-58 -9t-37.5 -15.5t-20 -27.5t-9 -38.5t-1.5 -54.5v-967q0 -79 -13 -149.5t-47.5 -140.5t-87.5 -120.5t-139 -82t-196 -31.5
q-122 0 -216 31.5t-150 81.5t-91.5 121t-48 140.5t-12.5 149.5v967q0 35 -1.5 54.5t-9 38.5t-20 27.5t-37.5 15.5t-58 9t-85 2v41h496v-41q-52 0 -85 -2t-58 -9t-37.5 -15.5t-20 -27.5t-9 -38.5t-1.5 -54.5v-967q0 -463 444 -463q197 0 309.5 116.5t112.5 346.5v967z" />
    <glyph glyph-name="Ucircumflex" unicode="&#xdb;" horiz-adv-x="1505" 
d="M770 2058l-178 -268h-62l179 360h122l179 -360h-62zM1464 1638v-41q-52 0 -85 -2t-58 -9t-37.5 -15.5t-20 -27.5t-9 -38.5t-1.5 -54.5v-967q0 -79 -13 -149.5t-47.5 -140.5t-87.5 -120.5t-139 -82t-196 -31.5q-122 0 -216 31.5t-150 81.5t-91.5 121t-48 140.5
t-12.5 149.5v967q0 35 -1.5 54.5t-9 38.5t-20 27.5t-37.5 15.5t-58 9t-85 2v41h496v-41q-52 0 -85 -2t-58 -9t-37.5 -15.5t-20 -27.5t-9 -38.5t-1.5 -54.5v-967q0 -463 444 -463q197 0 309.5 116.5t112.5 346.5v967q0 35 -1.5 54.5t-9 38.5t-20 27.5t-37.5 15.5t-58 9t-85 2
v41h483z" />
    <glyph glyph-name="Udieresis" unicode="&#xdc;" horiz-adv-x="1505" 
d="M606 1884q-34 0 -58 24t-24 58t24 58t58 24t58 -24t24 -58t-24 -58t-58 -24zM934 1884q-34 0 -58 24t-24 58t24 58t58 24t58 -24t24 -58t-24 -58t-58 -24zM1192 1450q0 35 -1.5 54.5t-9 38.5t-20 27.5t-37.5 15.5t-58 9t-85 2v41h483v-41q-52 0 -85 -2t-58 -9
t-37.5 -15.5t-20 -27.5t-9 -38.5t-1.5 -54.5v-967q0 -79 -13 -149.5t-47.5 -140.5t-87.5 -120.5t-139 -82t-196 -31.5q-122 0 -216 31.5t-150 81.5t-91.5 121t-48 140.5t-12.5 149.5v967q0 35 -1.5 54.5t-9 38.5t-20 27.5t-37.5 15.5t-58 9t-85 2v41h496v-41q-52 0 -85 -2
t-58 -9t-37.5 -15.5t-20 -27.5t-9 -38.5t-1.5 -54.5v-967q0 -463 444 -463q197 0 309.5 116.5t112.5 346.5v967z" />
    <glyph glyph-name="Yacute" unicode="&#xdd;" horiz-adv-x="1241" 
d="M571 1790l138 360h143l-219 -360h-62zM678 188q0 -35 1.5 -54.5t9 -38.5t20 -27.5t37.5 -15.5t58 -9t85 -2v-41h-496v41q52 0 85 2t58 9t37.5 15.5t20 27.5t9 38.5t1.5 54.5v533l-371 749q-40 81 -81 104t-132 23v41h435v-41q-142 0 -159 -22t30 -107l321 -653h6l291 651
q33 74 33 91q0 26 -43 34q-33 6 -123 6v41h410v-41q-91 0 -130.5 -23.5t-76.5 -107.5l-336 -745v-533z" />
    <glyph glyph-name="Thorn" unicode="&#xde;" horiz-adv-x="1097" 
d="M41 0v41q52 0 85 2t58 9t37.5 15.5t20 27.5t9 38.5t1.5 54.5v1262q0 35 -1.5 54.5t-9 38.5t-20 27.5t-37.5 15.5t-58 9t-85 2v41h496v-41q-52 0 -85 -2t-58 -9t-37.5 -15.5t-20 -27.5t-9 -38.5t-1.5 -54.5v-180h215q105 0 194 -28.5t156.5 -84t106 -144t38.5 -202.5
q0 -211 -123 -326.5t-317 -115.5q-121 0 -270 39v-220q0 -35 1.5 -54.5t9 -38.5t20 -27.5t37.5 -15.5t58 -9t85 -2v-41h-496zM594 430q157 0 258.5 100.5t101.5 280.5q0 97 -33 174.5t-90.5 125t-131.5 72.5t-158 25q-114 0 -215 -37v-702q140 -39 268 -39z" />
    <glyph glyph-name="germandbls" unicode="&#xdf;" horiz-adv-x="915" 
d="M102 0v41q86 0 107.5 25.5t21.5 121.5v877h-129v41q74 0 101.5 28t27.5 117q0 223 81 325.5t216 102.5q123 0 194 -83t71 -220q0 -70 -26.5 -138t-90 -138t-158.5 -123v-6q146 -32 241 -191.5t95 -361.5q0 -207 -60 -333t-180 -126q-44 0 -75 14t-45.5 36.5t-20.5 43
t-6 41.5q0 28 17 46t44 18q28 0 45 -18t17 -46q0 -8 -1.5 -21.5t-1.5 -21t3 -16t12.5 -12t26.5 -3.5q69 0 106 105t37 268q0 235 -106 383t-265 148v41q135 58 222.5 166t87.5 235q0 113 -47.5 182.5t-139.5 69.5q-219 0 -219 -367v-1063q0 -96 21.5 -121.5t107.5 -25.5v-41
h-332z" />
    <glyph glyph-name="agrave" unicode="&#xe0;" horiz-adv-x="792" 
d="M483 1278h-61l-219 360h143zM731 131h41q-28 -100 -46 -128q-29 -44 -79 -44q-32 0 -52.5 12.5t-30.5 37t-13.5 51t-3.5 63.5v53h-6q-110 -217 -277 -217q-102 0 -152.5 68t-50.5 182q0 71 22 130.5t53.5 99.5t85 79t97.5 63t111 57q15 7 23 11l94 47v105q0 46 -2.5 77.5
t-13 67.5t-29 58t-53 36.5t-82.5 14.5q-73 0 -122.5 -32.5t-49.5 -82.5q0 -22 20.5 -62t20.5 -63t-15.5 -36t-40.5 -13q-67 0 -67 121q0 99 73 159t189 60q246 0 246 -313v-670q0 -58 6.5 -80.5t31.5 -22.5q22 0 35 22t37 89zM547 238v397l-94 -47q-149 -75 -229.5 -160.5
t-80.5 -208.5q0 -87 37 -132.5t105 -45.5q70 0 126.5 44.5t135.5 152.5z" />
    <glyph glyph-name="aacute" unicode="&#xe1;" horiz-adv-x="792" 
d="M606 1638l-219 -360h-61l137 360h143zM731 131h41q-28 -100 -46 -128q-29 -44 -79 -44q-32 0 -52.5 12.5t-30.5 37t-13.5 51t-3.5 63.5v53h-6q-110 -217 -277 -217q-102 0 -152.5 68t-50.5 182q0 71 22 130.5t53.5 99.5t85 79t97.5 63t111 57q15 7 23 11l94 47v105
q0 46 -2.5 77.5t-13 67.5t-29 58t-53 36.5t-82.5 14.5q-73 0 -122.5 -32.5t-49.5 -82.5q0 -22 20.5 -62t20.5 -63t-15.5 -36t-40.5 -13q-67 0 -67 121q0 99 73 159t189 60q246 0 246 -313v-670q0 -58 6.5 -80.5t31.5 -22.5q22 0 35 22t37 89zM547 238v397l-94 -47
q-149 -75 -229.5 -160.5t-80.5 -208.5q0 -87 37 -132.5t105 -45.5q70 0 126.5 44.5t135.5 152.5z" />
    <glyph glyph-name="acircumflex" unicode="&#xe2;" horiz-adv-x="792" 
d="M395 1546l-178 -268h-61l178 360h123l178 -360h-62zM731 131h41q-28 -100 -46 -128q-29 -44 -79 -44q-32 0 -52.5 12.5t-30.5 37t-13.5 51t-3.5 63.5v53h-6q-110 -217 -277 -217q-102 0 -152.5 68t-50.5 182q0 71 22 130.5t53.5 99.5t85 79t97.5 63t111 57q15 7 23 11
l94 47v105q0 46 -2.5 77.5t-13 67.5t-29 58t-53 36.5t-82.5 14.5q-73 0 -122.5 -32.5t-49.5 -82.5q0 -22 20.5 -62t20.5 -63t-15.5 -36t-40.5 -13q-67 0 -67 121q0 99 73 159t189 60q246 0 246 -313v-670q0 -58 6.5 -80.5t31.5 -22.5q22 0 35 22t37 89zM547 238v397l-94 -47
q-149 -75 -229.5 -160.5t-80.5 -208.5q0 -87 37 -132.5t105 -45.5q70 0 126.5 44.5t135.5 152.5z" />
    <glyph glyph-name="atilde" unicode="&#xe3;" horiz-adv-x="792" 
d="M250 1511q-46 0 -66.5 -33t-23.5 -100h-41q3 107 34.5 161t102.5 54q41 0 82 -21t68.5 -45.5t64 -45.5t70.5 -21q46 0 66.5 33t23.5 100h41q-3 -107 -34.5 -161t-102.5 -54q-41 0 -82 21t-68.5 45.5t-64 45.5t-70.5 21zM731 131h41q-28 -100 -46 -128q-29 -44 -79 -44
q-32 0 -52.5 12.5t-30.5 37t-13.5 51t-3.5 63.5v53h-6q-110 -217 -277 -217q-102 0 -152.5 68t-50.5 182q0 71 22 130.5t53.5 99.5t85 79t97.5 63t111 57q15 7 23 11l94 47v105q0 46 -2.5 77.5t-13 67.5t-29 58t-53 36.5t-82.5 14.5q-73 0 -122.5 -32.5t-49.5 -82.5
q0 -22 20.5 -62t20.5 -63t-15.5 -36t-40.5 -13q-67 0 -67 121q0 99 73 159t189 60q246 0 246 -313v-670q0 -58 6.5 -80.5t31.5 -22.5q22 0 35 22t37 89zM547 238v397l-94 -47q-149 -75 -229.5 -160.5t-80.5 -208.5q0 -87 37 -132.5t105 -45.5q70 0 126.5 44.5t135.5 152.5z
" />
    <glyph glyph-name="adieresis" unicode="&#xe4;" horiz-adv-x="792" 
d="M231 1372q-34 0 -57.5 24t-23.5 58t23.5 58t57.5 24t58 -24t24 -58t-24 -58t-58 -24zM559 1372q-34 0 -58 24t-24 58t24 58t58 24t58 -24t24 -58t-24 -58t-58 -24zM731 131h41q-28 -100 -46 -128q-29 -44 -79 -44q-32 0 -52.5 12.5t-30.5 37t-13.5 51t-3.5 63.5v53h-6
q-110 -217 -277 -217q-102 0 -152.5 68t-50.5 182q0 71 22 130.5t53.5 99.5t85 79t97.5 63t111 57q15 7 23 11l94 47v105q0 46 -2.5 77.5t-13 67.5t-29 58t-53 36.5t-82.5 14.5q-73 0 -122.5 -32.5t-49.5 -82.5q0 -22 20.5 -62t20.5 -63t-15.5 -36t-40.5 -13q-67 0 -67 121
q0 99 73 159t189 60q246 0 246 -313v-670q0 -58 6.5 -80.5t31.5 -22.5q22 0 35 22t37 89zM547 238v397l-94 -47q-149 -75 -229.5 -160.5t-80.5 -208.5q0 -87 37 -132.5t105 -45.5q70 0 126.5 44.5t135.5 152.5z" />
    <glyph glyph-name="aring" unicode="&#xe5;" horiz-adv-x="792" 
d="M395 1292q-83 0 -138.5 58t-55.5 137q0 78 55.5 135t138.5 57t138 -57t55 -135q0 -79 -55 -137t-138 -58zM395 1618q-63 0 -98 -39.5t-35 -91.5q0 -54 34.5 -93.5t98.5 -39.5q62 0 96.5 39.5t34.5 93.5q0 52 -34.5 91.5t-96.5 39.5zM731 131h41q-28 -100 -46 -128
q-29 -44 -79 -44q-32 0 -52.5 12.5t-30.5 37t-13.5 51t-3.5 63.5v53h-6q-110 -217 -277 -217q-102 0 -152.5 68t-50.5 182q0 71 22 130.5t53.5 99.5t85 79t97.5 63t111 57q15 7 23 11l94 47v105q0 46 -2.5 77.5t-13 67.5t-29 58t-53 36.5t-82.5 14.5q-73 0 -122.5 -32.5
t-49.5 -82.5q0 -22 20.5 -62t20.5 -63t-15.5 -36t-40.5 -13q-67 0 -67 121q0 99 73 159t189 60q246 0 246 -313v-670q0 -58 6.5 -80.5t31.5 -22.5q22 0 35 22t37 89zM547 238v397l-94 -47q-149 -75 -229.5 -160.5t-80.5 -208.5q0 -87 37 -132.5t105 -45.5q70 0 126.5 44.5
t135.5 152.5z" />
    <glyph glyph-name="ae" unicode="&#xe6;" horiz-adv-x="1245" 
d="M1122 438h41q-21 -233 -105.5 -356t-199.5 -123q-96 0 -165 67.5t-105 190.5q-144 -258 -324 -258q-101 0 -152 66.5t-51 173.5q0 51 12.5 97.5t31 82.5t51 70.5t61.5 59t74.5 52.5t78.5 45.5t83 42.5l94 47v105q0 46 -2.5 77.5t-13 67.5t-29 58t-53 36.5t-82.5 14.5
q-73 0 -122.5 -32.5t-49.5 -82.5q0 -22 20.5 -62t20.5 -63t-15.5 -36t-40.5 -13q-67 0 -67 121q0 99 73 159t189 60q200 0 237 -211q42 99 110 155t155 56q126 0 203 -137.5t77 -366.5h-526q-2 -20 -2 -63q0 -131 28 -243.5t83 -183.5t126 -71q85 0 154 94.5t102 302.5z
M872 1044q-97 0 -157.5 -107.5t-79.5 -272.5h440q0 97 -19.5 180t-67 141.5t-116.5 58.5zM285 41q72 0 139 49.5t151 169.5q-28 124 -28 272v103l-94 -47q-149 -75 -229.5 -160.5t-80.5 -208.5q0 -87 37 -132.5t105 -45.5z" />
    <glyph glyph-name="ccedilla" unicode="&#xe7;" horiz-adv-x="753" 
d="M455 -109q71 -6 118.5 -47.5t47.5 -101.5q0 -84 -57.5 -140.5t-148 -77.5t-198.5 -9l12 41q88 -4 156 11.5t111 57t43 105.5q0 76 -50 101.5t-149 27.5l106 102q-10 -2 -30 -2q-107 0 -183.5 73t-113.5 196.5t-37 283.5q0 269 94 431.5t254 162.5q50 0 92 -18.5t69 -47
t46 -64t27 -68t8 -60.5q0 -82 -60 -82q-63 0 -63 90q0 81 -30 134.5t-95 53.5q-127 0 -193.5 -135t-66.5 -377q0 -223 72 -357t198 -134q89 0 146.5 87.5t91.5 289.5h41q-27 -293 -148 -402z" />
    <glyph glyph-name="egrave" unicode="&#xe8;" horiz-adv-x="780" 
d="M502 1278h-62l-219 360h144zM657 438h41q-21 -233 -105.5 -356t-199.5 -123q-100 0 -171 74t-105.5 201.5t-34.5 297.5q0 159 38 288t114.5 207.5t177.5 78.5q126 0 203 -137.5t77 -366.5h-526q-2 -20 -2 -63q0 -131 28 -243.5t83 -183.5t126 -71q85 0 154 94.5
t102 302.5zM408 1044q-97 0 -158 -107.5t-80 -272.5h440q0 97 -19.5 180t-66.5 141.5t-116 58.5z" />
    <glyph glyph-name="eacute" unicode="&#xe9;" horiz-adv-x="780" 
d="M625 1638l-219 -360h-62l137 360h144zM657 438h41q-21 -233 -105.5 -356t-199.5 -123q-100 0 -171 74t-105.5 201.5t-34.5 297.5q0 159 38 288t114.5 207.5t177.5 78.5q126 0 203 -137.5t77 -366.5h-526q-2 -20 -2 -63q0 -131 28 -243.5t83 -183.5t126 -71q85 0 154 94.5
t102 302.5zM408 1044q-97 0 -158 -107.5t-80 -272.5h440q0 97 -19.5 180t-66.5 141.5t-116 58.5z" />
    <glyph glyph-name="ecircumflex" unicode="&#xea;" horiz-adv-x="780" 
d="M414 1546l-178 -268h-62l178 360h123l178 -360h-61zM657 438h41q-21 -233 -105.5 -356t-199.5 -123q-100 0 -171 74t-105.5 201.5t-34.5 297.5q0 159 38 288t114.5 207.5t177.5 78.5q126 0 203 -137.5t77 -366.5h-526q-2 -20 -2 -63q0 -131 28 -243.5t83 -183.5t126 -71
q85 0 154 94.5t102 302.5zM408 1044q-97 0 -158 -107.5t-80 -272.5h440q0 97 -19.5 180t-66.5 141.5t-116 58.5z" />
    <glyph glyph-name="edieresis" unicode="&#xeb;" horiz-adv-x="780" 
d="M250 1372q-34 0 -58 24t-24 58t24 58t58 24t58 -24t24 -58t-24 -58t-58 -24zM578 1372q-34 0 -58 24t-24 58t24 58t58 24t57.5 -24t23.5 -58t-23.5 -58t-57.5 -24zM657 438h41q-21 -233 -105.5 -356t-199.5 -123q-100 0 -171 74t-105.5 201.5t-34.5 297.5q0 159 38 288
t114.5 207.5t177.5 78.5q126 0 203 -137.5t77 -366.5h-526q-2 -20 -2 -63q0 -131 28 -243.5t83 -183.5t126 -71q85 0 154 94.5t102 302.5zM408 1044q-97 0 -158 -107.5t-80 -272.5h440q0 97 -19.5 180t-66.5 141.5t-116 58.5z" />
    <glyph glyph-name="igrave" unicode="&#xec;" horiz-adv-x="434" 
d="M270 1278h-61l-219 360h143zM264 188q0 -96 21.5 -121.5t107.5 -25.5v-41h-332v41q86 0 107.5 25.5t21.5 121.5v709v15q0 35 -0.5 49t-3.5 31.5t-9 21t-18.5 6t-29.5 -3t-45 -15.5l-14 37l139 56l35 12l20 -21v-897z" />
    <glyph glyph-name="iacute" unicode="&#xed;" horiz-adv-x="434" 
d="M113 1278l137 360h143l-219 -360h-61zM264 188q0 -96 21.5 -121.5t107.5 -25.5v-41h-332v41q86 0 107.5 25.5t21.5 121.5v709v15q0 35 -0.5 49t-3.5 31.5t-9 21t-18.5 6t-29.5 -3t-45 -15.5l-14 37l139 56l35 12l20 -21v-897z" />
    <glyph glyph-name="icircumflex" unicode="&#xee;" horiz-adv-x="434" 
d="M360 1278l-178 268l-178 -268h-61l178 360h123l178 -360h-62zM264 188q0 -96 21.5 -121.5t107.5 -25.5v-41h-332v41q86 0 107.5 25.5t21.5 121.5v709v15q0 35 -0.5 49t-3.5 31.5t-9 21t-18.5 6t-29.5 -3t-45 -15.5l-14 37l139 56l35 12l20 -21v-897z" />
    <glyph glyph-name="idieresis" unicode="&#xef;" horiz-adv-x="434" 
d="M18 1372q-34 0 -57.5 24t-23.5 58t23.5 58t57.5 24t58 -24t24 -58t-24 -58t-58 -24zM346 1372q-34 0 -58 24t-24 58t24 58t58 24t58 -24t24 -58t-24 -58t-58 -24zM264 188q0 -96 21.5 -121.5t107.5 -25.5v-41h-332v41q86 0 107.5 25.5t21.5 121.5v709v15q0 35 -0.5 49
t-3.5 31.5t-9 21t-18.5 6t-29.5 -3t-45 -15.5l-14 37l139 56l35 12l20 -21v-897z" />
    <glyph glyph-name="eth" unicode="&#xf0;" horiz-adv-x="1003" 
d="M901 592q6 -174 -39 -316.5t-139.5 -229.5t-222.5 -87q-102 0 -181.5 56t-125 147.5t-68.5 197.5t-23 218q0 83 15 159t47 143.5t78 117.5t113 79t147 29q63 0 120.5 -29t98.5 -78q-82 199 -221 367l-234 -135l-30 53l223 129q-119 132 -250 225v41q166 -92 307 -233
l229 133l31 -53l-217 -127q162 -181 249 -397t93 -410zM494 20q106 0 183 80.5t112 208.5t30 281q-3 130 -49 278q-60 97 -126.5 136.5t-149.5 39.5q-79 0 -140.5 -43t-97.5 -114.5t-54 -155.5t-18 -174q0 -156 32.5 -275t104 -190.5t173.5 -71.5z" />
    <glyph glyph-name="ntilde" unicode="&#xf1;" horiz-adv-x="884" 
d="M563 1378q-41 0 -81.5 21t-68 45.5t-64 45.5t-70.5 21q-46 0 -67 -33t-24 -100h-41q3 106 35 160.5t103 54.5q41 0 81.5 -21t68 -45.5t64 -45.5t70.5 -21q46 0 66.5 33t23.5 100h41q-3 -107 -34.5 -161t-102.5 -54zM264 1085v-159h6q122 180 254 180q191 0 191 -264v-654
q0 -96 21.5 -121.5t107.5 -25.5v-41h-332v41q86 0 107.5 25.5t21.5 121.5v654q0 192 -127 192q-111 0 -250 -170v-676q0 -96 21.5 -121.5t107.5 -25.5v-41h-332v41q86 0 107.5 25.5t21.5 121.5v709v15q0 35 -0.5 49t-3.5 31.5t-9 21t-18.5 6t-29.5 -3t-45 -15.5l-14 37
l139 56l35 12z" />
    <glyph glyph-name="ograve" unicode="&#xf2;" horiz-adv-x="917" 
d="M547 1278h-62l-219 360h144zM459 -41q-116 0 -203 78t-130.5 207t-43.5 288t43.5 288t130.5 207.5t203 78.5t203 -78.5t130.5 -207.5t43.5 -288t-43.5 -288t-130.5 -207t-203 -78zM504 23q132 12 200 159.5t48 376.5q-20 228 -112.5 361.5t-225.5 121.5
q-132 -12 -200 -159.5t-48 -376.5q20 -228 112.5 -361.5t225.5 -121.5z" />
    <glyph glyph-name="oacute" unicode="&#xf3;" horiz-adv-x="917" 
d="M389 1278l137 360h144l-219 -360h-62zM459 -41q-116 0 -203 78t-130.5 207t-43.5 288t43.5 288t130.5 207.5t203 78.5t203 -78.5t130.5 -207.5t43.5 -288t-43.5 -288t-130.5 -207t-203 -78zM504 23q132 12 200 159.5t48 376.5q-20 228 -112.5 361.5t-225.5 121.5
q-132 -12 -200 -159.5t-48 -376.5q20 -228 112.5 -361.5t225.5 -121.5z" />
    <glyph glyph-name="ocircumflex" unicode="&#xf4;" horiz-adv-x="917" 
d="M459 1546l-178 -268h-62l178 360h123l178 -360h-61zM459 1106q116 0 203 -78.5t130.5 -207.5t43.5 -288t-43.5 -288t-130.5 -207t-203 -78t-203 78t-130.5 207t-43.5 288t43.5 288t130.5 207.5t203 78.5zM504 23q132 12 200 159.5t48 376.5q-20 228 -112.5 361.5
t-225.5 121.5q-132 -12 -200 -159.5t-48 -376.5q20 -228 112.5 -361.5t225.5 -121.5z" />
    <glyph glyph-name="otilde" unicode="&#xf5;" horiz-adv-x="917" 
d="M598 1378q-41 0 -82 21t-68.5 45.5t-64 45.5t-70.5 21q-46 0 -66.5 -33t-23.5 -100h-41q3 107 34.5 161t102.5 54q41 0 82 -21t68.5 -45.5t64 -45.5t70.5 -21q46 0 66.5 33t23.5 100h41q-3 -107 -34.5 -161t-102.5 -54zM459 -41q-116 0 -203 78t-130.5 207t-43.5 288
t43.5 288t130.5 207.5t203 78.5t203 -78.5t130.5 -207.5t43.5 -288t-43.5 -288t-130.5 -207t-203 -78zM504 23q132 12 200 159.5t48 376.5q-20 228 -112.5 361.5t-225.5 121.5q-132 -12 -200 -159.5t-48 -376.5q20 -228 112.5 -361.5t225.5 -121.5z" />
    <glyph glyph-name="odieresis" unicode="&#xf6;" horiz-adv-x="917" 
d="M295 1372q-34 0 -58 24t-24 58t24 58t58 24t58 -24t24 -58t-24 -58t-58 -24zM623 1372q-34 0 -58 24t-24 58t24 58t58 24t58 -24t24 -58t-24 -58t-58 -24zM459 -41q-116 0 -203 78t-130.5 207t-43.5 288t43.5 288t130.5 207.5t203 78.5t203 -78.5t130.5 -207.5t43.5 -288
t-43.5 -288t-130.5 -207t-203 -78zM504 23q132 12 200 159.5t48 376.5q-20 228 -112.5 361.5t-225.5 121.5q-132 -12 -200 -159.5t-48 -376.5q20 -228 112.5 -361.5t225.5 -121.5z" />
    <glyph glyph-name="divide" unicode="&#xf7;" horiz-adv-x="819" 
d="M410 799q-29 0 -50.5 21t-21.5 50t21.5 50.5t50.5 21.5t50 -21.5t21 -50.5t-21 -50t-50 -21zM102 512v82h615v-82h-615zM410 164q-29 0 -50.5 21.5t-21.5 50.5t21.5 50t50.5 21t50 -21t21 -50t-21 -50.5t-50 -21.5z" />
    <glyph glyph-name="oslash" unicode="&#xf8;" horiz-adv-x="917" 
d="M836 1120l-103 -176q103 -158 103 -412q0 -159 -43.5 -288t-130.5 -207t-203 -78q-139 0 -232 107l-88 -152l-53 31l100 174q-104 159 -104 413q0 159 43.5 288t130.5 207.5t203 78.5q137 0 235 -109l88 154zM166 506q14 -170 74 -295l405 702q-92 141 -231 129
q-132 -12 -200 -159.5t-48 -376.5zM752 559q-15 170 -72 291l-406 -700q93 -139 230 -127q132 12 200 159.5t48 376.5z" />
    <glyph glyph-name="ugrave" unicode="&#xf9;" horiz-adv-x="847" 
d="M512 1278h-61l-220 360h144zM612 -20v159h-6q-122 -180 -254 -180q-190 0 -190 264v654q0 90 -7 106q-11 25 -56 12q-17 -4 -44 -14l-14 37l139 55l35 12l21 -20v-842q0 -192 126 -192q111 0 250 170v676v15q0 35 -0.5 49t-3.5 31.5t-9 21t-18.5 6t-29.5 -3t-45 -15.5
l-14 37l139 55l35 12l20 -20v-897q0 -90 7 -107q11 -25 56 -12q17 4 44 14l14 -36l-139 -56l-35 -12z" />
    <glyph glyph-name="uacute" unicode="&#xfa;" horiz-adv-x="847" 
d="M354 1278l138 360h143l-219 -360h-62zM612 -20v159h-6q-122 -180 -254 -180q-190 0 -190 264v654q0 90 -7 106q-11 25 -56 12q-17 -4 -44 -14l-14 37l139 55l35 12l21 -20v-842q0 -192 126 -192q111 0 250 170v676v15q0 35 -0.5 49t-3.5 31.5t-9 21t-18.5 6t-29.5 -3
t-45 -15.5l-14 37l139 55l35 12l20 -20v-897q0 -90 7 -107q11 -25 56 -12q17 4 44 14l14 -36l-139 -56l-35 -12z" />
    <glyph glyph-name="ucircumflex" unicode="&#xfb;" horiz-adv-x="847" 
d="M424 1546l-178 -268h-62l178 360h123l179 -360h-62zM793 63l14 -36l-139 -56l-35 -12l-21 21v159h-6q-122 -180 -254 -180q-190 0 -190 264v654q0 90 -7 106q-11 25 -56 12q-17 -4 -44 -14l-14 37l139 55l35 12l21 -20v-842q0 -192 126 -192q111 0 250 170v676v15
q0 35 -0.5 49t-3.5 31.5t-9 21t-18.5 6t-29.5 -3t-45 -15.5l-14 37l139 55l35 12l20 -20v-897q0 -90 7 -107q11 -25 56 -12q17 4 44 14z" />
    <glyph glyph-name="udieresis" unicode="&#xfc;" horiz-adv-x="847" 
d="M260 1372q-34 0 -58 24t-24 58t24 58t58 24t58 -24t24 -58t-24 -58t-58 -24zM588 1372q-34 0 -58 24t-24 58t24 58t58 24t58 -24t24 -58t-24 -58t-58 -24zM612 -20v159h-6q-122 -180 -254 -180q-190 0 -190 264v654q0 90 -7 106q-11 25 -56 12q-17 -4 -44 -14l-14 37
l139 55l35 12l21 -20v-842q0 -192 126 -192q111 0 250 170v676v15q0 35 -0.5 49t-3.5 31.5t-9 21t-18.5 6t-29.5 -3t-45 -15.5l-14 37l139 55l35 12l20 -20v-897q0 -90 7 -107q11 -25 56 -12q17 4 44 14l14 -36l-139 -56l-35 -12z" />
    <glyph glyph-name="yacute" unicode="&#xfd;" horiz-adv-x="897" 
d="M391 1278l137 360h144l-219 -360h-62zM55 -379q0 27 18.5 46.5t49.5 19.5q47 0 70 -56q10 -23 20 -32t31 -9q58 0 103 98.5t91 311.5l-256 885q-24 88 -51 113.5t-90 25.5v41h332v-41q-102 0 -118 -25t13 -114l209 -731l180 729q27 91 9.5 116t-119.5 25v41h309v-41
q-62 0 -87 -25.5t-48 -115.5l-209 -846q-52 -211 -67 -258q-66 -207 -166 -255q-34 -16 -74 -16q-62 0 -106 32t-44 81z" />
    <glyph glyph-name="thorn" unicode="&#xfe;" horiz-adv-x="974" 
d="M578 1106q93 0 166.5 -72.5t111 -188t37.5 -249.5q0 -125 -25 -238t-73 -203t-125.5 -143t-173.5 -53q-159 0 -228 158h-4v-379q0 -96 21.5 -122t107.5 -26v-41h-332v41q86 0 107.5 26t21.5 122v1732v15q0 35 -0.5 49t-3.5 32t-9 21.5t-18.5 6t-29.5 -3t-45 -15.5l-14 37
l139 55l35 12l20 -20v-805h8q63 127 135 189.5t171 62.5zM487 20q87 0 152.5 46t101.5 123.5t53 164.5t17 183q0 221 -69.5 354t-190.5 133q-54 0 -100 -19t-80.5 -55t-58 -72t-48.5 -85v-410q0 -171 59 -267t164 -96z" />
    <glyph glyph-name="ydieresis" unicode="&#xff;" horiz-adv-x="897" 
d="M297 1372q-34 0 -58 24t-24 58t24 58t58 24t58 -24t24 -58t-24 -58t-58 -24zM625 1372q-34 0 -58 24t-24 58t24 58t58 24t58 -24t24 -58t-24 -58t-58 -24zM55 -379q0 27 18.5 46.5t49.5 19.5q47 0 70 -56q10 -23 20 -32t31 -9q58 0 103 98.5t91 311.5l-256 885
q-24 88 -51 113.5t-90 25.5v41h332v-41q-102 0 -118 -25t13 -114l209 -731l180 729q27 91 9.5 116t-119.5 25v41h309v-41q-62 0 -87 -25.5t-48 -115.5l-209 -846q-52 -211 -67 -258q-66 -207 -166 -255q-34 -16 -74 -16q-62 0 -106 32t-44 81z" />
    <glyph glyph-name="Amacron" unicode="&#x100;" horiz-adv-x="1380" 
d="M915 2058v-61h-450v61h450zM1176 180q28 -89 61.5 -114t122.5 -25v-41h-426v41q143 0 166.5 25t-10.5 114l-113 365h-594l-113 -365q-34 -89 -10.5 -114t166.5 -25v-41h-406v41q89 0 123.5 25.5t61.5 113.5l465 1506h41zM401 606h557l-276 893h-6z" />
    <glyph glyph-name="amacron" unicode="&#x101;" horiz-adv-x="792" 
d="M621 1485v-62h-451v62h451zM731 131h41q-28 -100 -46 -128q-29 -44 -79 -44q-32 0 -52.5 12.5t-30.5 37t-13.5 51t-3.5 63.5v53h-6q-110 -217 -277 -217q-102 0 -152.5 68t-50.5 182q0 71 22 130.5t53.5 99.5t85 79t97.5 63t111 57q15 7 23 11l94 47v105q0 46 -2.5 77.5
t-13 67.5t-29 58t-53 36.5t-82.5 14.5q-73 0 -122.5 -32.5t-49.5 -82.5q0 -22 20.5 -62t20.5 -63t-15.5 -36t-40.5 -13q-67 0 -67 121q0 99 73 159t189 60q246 0 246 -313v-670q0 -58 6.5 -80.5t31.5 -22.5q22 0 35 22t37 89zM547 238v397l-94 -47q-149 -75 -229.5 -160.5
t-80.5 -208.5q0 -87 37 -132.5t105 -45.5q70 0 126.5 44.5t135.5 152.5z" />
    <glyph glyph-name="Abreve" unicode="&#x102;" horiz-adv-x="1380" 
d="M690 1935q-112 0 -173.5 59.5t-61.5 155.5h41q0 -133 194 -133q195 0 195 133h41q0 -95 -62 -155t-174 -60zM1176 180q28 -89 61.5 -114t122.5 -25v-41h-426v41q143 0 166.5 25t-10.5 114l-113 365h-594l-113 -365q-34 -89 -10.5 -114t166.5 -25v-41h-406v41
q89 0 123.5 25.5t61.5 113.5l465 1506h41zM401 606h557l-276 893h-6z" />
    <glyph glyph-name="abreve" unicode="&#x103;" horiz-adv-x="792" 
d="M395 1362q-112 0 -173.5 59.5t-61.5 155.5h41q0 -133 194 -133q195 0 195 133h41q0 -95 -62 -155t-174 -60zM731 131h41q-28 -100 -46 -128q-29 -44 -79 -44q-32 0 -52.5 12.5t-30.5 37t-13.5 51t-3.5 63.5v53h-6q-110 -217 -277 -217q-102 0 -152.5 68t-50.5 182
q0 71 22 130.5t53.5 99.5t85 79t97.5 63t111 57q15 7 23 11l94 47v105q0 46 -2.5 77.5t-13 67.5t-29 58t-53 36.5t-82.5 14.5q-73 0 -122.5 -32.5t-49.5 -82.5q0 -22 20.5 -62t20.5 -63t-15.5 -36t-40.5 -13q-67 0 -67 121q0 99 73 159t189 60q246 0 246 -313v-670
q0 -58 6.5 -80.5t31.5 -22.5q22 0 35 22t37 89zM547 238v397l-94 -47q-149 -75 -229.5 -160.5t-80.5 -208.5q0 -87 37 -132.5t105 -45.5q70 0 126.5 44.5t135.5 152.5z" />
    <glyph glyph-name="Aogonek" unicode="&#x104;" horiz-adv-x="1380" 
d="M1198 0q-25 -25 -75 -53.5t-86.5 -49.5t-65.5 -64t-29 -103q0 -62 39.5 -101t110.5 -39q66 0 159 48l13 -41q-96 -68 -199 -68q-90 0 -147.5 52.5t-57.5 139.5q0 58 22 101.5t58.5 69.5t73 43.5t78.5 34.5t61 30h-219v41q143 0 166.5 25t-10.5 114l-113 365h-594
l-113 -365q-34 -89 -10.5 -114t166.5 -25v-41h-406v41q89 0 123.5 25.5t61.5 113.5l465 1506h41l465 -1506q28 -89 61.5 -114t122.5 -25v-41h-162zM401 606h557l-276 893h-6z" />
    <glyph glyph-name="aogonek" unicode="&#x105;" horiz-adv-x="792" 
d="M598 -430q69 0 160 47l12 -41q-96 -68 -199 -68q-90 0 -147 53t-57 140q0 43 13.5 79t31.5 58.5t50 43.5t54 31t59.5 25.5t51.5 22.5q-25 4 -42 18t-24.5 37.5t-10.5 48t-3 58.5v53h-6q-110 -217 -277 -217q-102 0 -152.5 68t-50.5 182q0 71 22 130.5t53.5 99.5t85 79
t97.5 63t111 57q15 7 23 11l94 47v105q0 46 -2.5 77.5t-13 67.5t-29 58t-53 36.5t-82.5 14.5q-73 0 -122.5 -32.5t-49.5 -82.5q0 -22 20.5 -62t20.5 -63t-15.5 -36t-40.5 -13q-67 0 -67 121q0 99 73 159t189 60q246 0 246 -313v-670q0 -58 6.5 -80.5t31.5 -22.5q22 0 35 22
t37 89h41q-11 -39 -15.5 -53.5t-14 -40.5t-20 -40t-24.5 -24q-22 -20 -59 -41.5t-67.5 -38.5t-59.5 -40.5t-46 -59.5t-17 -84q0 -62 39 -100.5t110 -38.5zM547 238v397l-94 -47q-149 -75 -229.5 -160.5t-80.5 -208.5q0 -87 37 -132.5t105 -45.5q70 0 126.5 44.5t135.5 152.5
z" />
    <glyph glyph-name="Cacute" unicode="&#x106;" horiz-adv-x="1220" 
d="M588 1790l137 360h143l-219 -360h-61zM82 819q0 238 68 432t200.5 311t306.5 117q70 0 132.5 -19t97.5 -42.5t67 -42.5t47 -19q21 0 28 19t7 84h41l31 -563h-41q-52 522 -410 522q-112 0 -206 -63t-156 -172t-96.5 -254.5t-34.5 -309.5t34.5 -309.5t96.5 -254.5t156 -172
t206 -63q129 0 232 83t165.5 226.5t84.5 332.5h41q-24 -210 -88.5 -365t-178.5 -246.5t-266 -91.5q-174 0 -304 117t-195.5 310.5t-65.5 432.5z" />
    <glyph glyph-name="cacute" unicode="&#x107;" horiz-adv-x="753" 
d="M397 1278l138 360h143l-219 -360h-62zM549 856q0 81 -30 134.5t-95 53.5q-127 0 -193.5 -135t-66.5 -377q0 -223 72 -357t198 -134q89 0 146.5 87.5t91.5 289.5h41q-22 -226 -97.5 -342.5t-199.5 -116.5q-107 0 -183.5 73t-113.5 196.5t-37 283.5q0 269 94 431.5
t254 162.5q50 0 92 -18.5t69 -47t46 -64t27 -68t8 -60.5q0 -82 -60 -82q-63 0 -63 90z" />
    <glyph glyph-name="Cdotaccent" unicode="&#x10a;" horiz-adv-x="1220" 
d="M657 1884q-34 0 -58 24t-24 58t24 58t58 24t58 -24t24 -58t-24 -58t-58 -24zM82 819q0 238 68 432t200.5 311t306.5 117q70 0 132.5 -19t97.5 -42.5t67 -42.5t47 -19q21 0 28 19t7 84h41l31 -563h-41q-52 522 -410 522q-112 0 -206 -63t-156 -172t-96.5 -254.5
t-34.5 -309.5t34.5 -309.5t96.5 -254.5t156 -172t206 -63q129 0 232 83t165.5 226.5t84.5 332.5h41q-24 -210 -88.5 -365t-178.5 -246.5t-266 -91.5q-174 0 -304 117t-195.5 310.5t-65.5 432.5z" />
    <glyph glyph-name="cdotaccent" unicode="&#x10b;" horiz-adv-x="753" 
d="M467 1372q-34 0 -58 24t-24 58t24 58t58 24t58 -24t24 -58t-24 -58t-58 -24zM549 856q0 81 -30 134.5t-95 53.5q-127 0 -193.5 -135t-66.5 -377q0 -223 72 -357t198 -134q89 0 146.5 87.5t91.5 289.5h41q-22 -226 -97.5 -342.5t-199.5 -116.5q-107 0 -183.5 73
t-113.5 196.5t-37 283.5q0 269 94 431.5t254 162.5q50 0 92 -18.5t69 -47t46 -64t27 -68t8 -60.5q0 -82 -60 -82q-63 0 -63 90z" />
    <glyph glyph-name="Ccaron" unicode="&#x10c;" horiz-adv-x="1220" 
d="M719 1790h-123l-178 360h61l178 -268l179 268h61zM1139 662h41q-24 -210 -88.5 -365t-178.5 -246.5t-266 -91.5q-174 0 -304 117t-195.5 310.5t-65.5 432.5q0 238 68 432t200.5 311t306.5 117q70 0 132.5 -19t97.5 -42.5t67 -42.5t47 -19q21 0 28 19t7 84h41l31 -563h-41
q-52 522 -410 522q-112 0 -206 -63t-156 -172t-96.5 -254.5t-34.5 -309.5t34.5 -309.5t96.5 -254.5t156 -172t206 -63q129 0 232 83t165.5 226.5t84.5 332.5z" />
    <glyph glyph-name="ccaron" unicode="&#x10d;" horiz-adv-x="753" 
d="M528 1278h-122l-179 360h62l178 -268l178 268h62zM672 418h41q-22 -226 -97.5 -342.5t-199.5 -116.5q-107 0 -183.5 73t-113.5 196.5t-37 283.5q0 269 94 431.5t254 162.5q50 0 92 -18.5t69 -47t46 -64t27 -68t8 -60.5q0 -82 -60 -82q-63 0 -63 90q0 81 -30 134.5
t-95 53.5q-127 0 -193.5 -135t-66.5 -377q0 -223 72 -357t198 -134q89 0 146.5 87.5t91.5 289.5z" />
    <glyph glyph-name="Dcaron" unicode="&#x10e;" horiz-adv-x="1404" 
d="M657 1790h-122l-179 360h62l178 -268l178 268h62zM551 1638q233 0 408 -101t269.5 -286.5t94.5 -431.5q0 -183 -56.5 -336.5t-158 -259.5t-244.5 -164.5t-313 -58.5h-510v41q52 0 85 2t58 9t37.5 15.5t20 27.5t9 38.5t1.5 54.5v1262q0 35 -1.5 54.5t-9 38.5t-20 27.5
t-37.5 15.5t-58 9t-85 2v41h510zM551 61q311 0 500.5 209t189.5 549t-189.5 549t-500.5 209q-147 0 -225 -37v-1442q78 -37 225 -37z" />
    <glyph glyph-name="dcaron" unicode="&#x10f;" horiz-adv-x="1079" 
d="M723 168v-15q0 -35 0.5 -49t3.5 -32t9 -21.5t18.5 -6t29.5 3t45 15.5l15 -36l-139 -56l-35 -12l-21 21v170h-8q-65 -98 -121 -144.5t-127 -46.5q-102 0 -173 69.5t-104.5 187t-33.5 273.5q0 96 11 182.5t37 167t65 139t99 93.5t134 35q64 0 120 -38.5t97 -98.5h4v501v15
q0 35 -0.5 49t-3.5 32t-9 21.5t-18.5 6t-29.5 -3t-45 -15.5l-15 37l140 55l34 12l21 -20v-1491zM977 1679q61 0 61 -102q0 -57 -5 -117.5t-16.5 -155.5t-17.5 -157h-41q-7 68 -18.5 158t-18 153t-6.5 119q0 102 62 102zM649 231v431q0 173 -59.5 277.5t-161.5 104.5
q-59 0 -106 -31t-76 -81t-48 -119t-26.5 -139t-7.5 -146q0 -226 60 -356.5t179 -130.5q38 0 71.5 12.5t54.5 26.5t47 45.5t37.5 49t35.5 56.5z" />
    <glyph glyph-name="Dcroat" unicode="&#x110;" horiz-adv-x="1404" 
d="M551 1638q233 0 408 -101t269.5 -286.5t94.5 -431.5q0 -183 -56.5 -336.5t-158 -259.5t-244.5 -164.5t-313 -58.5h-510v41q52 0 85 2t58 9t37.5 15.5t20 27.5t9 38.5t1.5 54.5v662h-170v61h170v539q0 35 -1.5 54.5t-9 38.5t-20 27.5t-37.5 15.5t-58 9t-85 2v41h510z
M551 61q311 0 500.5 209t189.5 549t-189.5 549t-500.5 209q-147 0 -225 -37v-629h428v-61h-428v-752q78 -37 225 -37z" />
    <glyph glyph-name="dcroat" unicode="&#x111;" horiz-adv-x="1038" 
d="M723 1315v-1147v-15q0 -35 0.5 -49t3.5 -32t9 -21.5t18.5 -6t29.5 3t45 15.5l15 -36l-139 -56l-35 -12l-21 21v170h-8q-65 -98 -121 -144.5t-127 -46.5q-102 0 -173 69.5t-104.5 187t-33.5 273.5q0 96 11 182.5t37 167t65 139t99 93.5t134 35q64 0 120 -38.5t97 -98.5h4
v346h-198v61h198v94v15q0 35 -0.5 49t-3.5 32t-9 21.5t-18.5 6t-29.5 -3t-45 -15.5l-15 37l140 55l34 12l21 -20v-283h213v-61h-213zM649 231v431q0 173 -59.5 277.5t-161.5 104.5q-59 0 -106 -31t-76 -81t-48 -119t-26.5 -139t-7.5 -146q0 -226 60 -356.5t179 -130.5
q38 0 71.5 12.5t54.5 26.5t47 45.5t37.5 49t35.5 56.5z" />
    <glyph glyph-name="Emacron" unicode="&#x112;" horiz-adv-x="1150" 
d="M356 1997h451v-62h-451v62zM1006 1638l4 -34l30 -310l-41 -4q-8 84 -17 132.5t-20 82.5t-31.5 48t-43 19t-64.5 5h-497v-686h340q35 0 54.5 2t38.5 10t27.5 21.5t15.5 41t9 63.5t2 93h41v-524h-41q0 57 -2 93t-9 63.5t-15.5 41t-27.5 21.5t-38.5 10t-54.5 2h-340v-651
q0 -72 18 -94.5t78 -22.5h420q51 0 79 9t57.5 47.5t53 102.5t60.5 188l38 -13l-110 -366l-8 -29h-971v41q52 0 85 2t58 9t37.5 15.5t20 27.5t9 38.5t1.5 54.5v1262q0 35 -1.5 54.5t-9 38.5t-20 27.5t-37.5 15.5t-58 9t-85 2v41h965z" />
    <glyph glyph-name="emacron" unicode="&#x113;" horiz-adv-x="780" 
d="M639 1485v-62h-451v62h451zM657 438h41q-21 -233 -105.5 -356t-199.5 -123q-100 0 -171 74t-105.5 201.5t-34.5 297.5q0 159 38 288t114.5 207.5t177.5 78.5q126 0 203 -137.5t77 -366.5h-526q-2 -20 -2 -63q0 -131 28 -243.5t83 -183.5t126 -71q85 0 154 94.5t102 302.5
zM408 1044q-97 0 -158 -107.5t-80 -272.5h440q0 97 -19.5 180t-66.5 141.5t-116 58.5z" />
    <glyph glyph-name="Edotaccent" unicode="&#x116;" horiz-adv-x="1150" 
d="M582 1884q-34 0 -58 24t-24 58t24 58t58 24t58 -24t24 -58t-24 -58t-58 -24zM1006 1638l4 -34l30 -310l-41 -4q-8 84 -17 132.5t-20 82.5t-31.5 48t-43 19t-64.5 5h-497v-686h340q35 0 54.5 2t38.5 10t27.5 21.5t15.5 41t9 63.5t2 93h41v-524h-41q0 57 -2 93t-9 63.5
t-15.5 41t-27.5 21.5t-38.5 10t-54.5 2h-340v-651q0 -72 18 -94.5t78 -22.5h420q51 0 79 9t57.5 47.5t53 102.5t60.5 188l38 -13l-110 -366l-8 -29h-971v41q52 0 85 2t58 9t37.5 15.5t20 27.5t9 38.5t1.5 54.5v1262q0 35 -1.5 54.5t-9 38.5t-20 27.5t-37.5 15.5t-58 9t-85 2
v41h965z" />
    <glyph glyph-name="edotaccent" unicode="&#x117;" horiz-adv-x="780" 
d="M414 1372q-34 0 -58 24t-24 58t24 58t58 24t58 -24t24 -58t-24 -58t-58 -24zM657 438h41q-21 -233 -105.5 -356t-199.5 -123q-100 0 -171 74t-105.5 201.5t-34.5 297.5q0 159 38 288t114.5 207.5t177.5 78.5q126 0 203 -137.5t77 -366.5h-526q-2 -20 -2 -63
q0 -131 28 -243.5t83 -183.5t126 -71q85 0 154 94.5t102 302.5zM408 1044q-97 0 -158 -107.5t-80 -272.5h440q0 97 -19.5 180t-66.5 141.5t-116 58.5z" />
    <glyph glyph-name="Eogonek" unicode="&#x118;" horiz-adv-x="1150" 
d="M905 -410q67 0 160 48l12 -41q-96 -68 -198 -68q-90 0 -147.5 52.5t-57.5 139.5q0 58 22 101.5t58.5 69.5t73 43.5t78.5 34.5t61 30h-926v41q52 0 85 2t58 9t37.5 15.5t20 27.5t9 38.5t1.5 54.5v1262q0 35 -1.5 54.5t-9 38.5t-20 27.5t-37.5 15.5t-58 9t-85 2v41h965
l4 -34l30 -310l-41 -4q-8 84 -17 132.5t-20 82.5t-31.5 48t-43 19t-64.5 5h-497v-686h340q35 0 54.5 2t38.5 10t27.5 21.5t15.5 41t9 63.5t2 93h41v-524h-41q0 57 -2 93t-9 63.5t-15.5 41t-27.5 21.5t-38.5 10t-54.5 2h-340v-651q0 -72 18 -94.5t78 -22.5h420q51 0 79 9
t57.5 47.5t53 102.5t60.5 188l38 -13l-110 -366l-8 -29q-25 -25 -75 -53.5t-86.5 -49.5t-65.5 -64t-29 -103q0 -62 39 -101t110 -39z" />
    <glyph glyph-name="eogonek" unicode="&#x119;" horiz-adv-x="780" 
d="M481 -20q-22 -22 -59 -44t-69 -40t-62 -41.5t-48 -60t-18 -85.5q0 -62 39.5 -100.5t110.5 -38.5q69 0 160 47l12 -41q-96 -68 -199 -68q-90 0 -147.5 53t-57.5 140q0 43 13.5 78.5t30.5 57.5t49 43t53 31t58.5 26t51.5 22h-6q-100 0 -171 74t-105.5 201.5t-34.5 297.5
q0 159 38 288t114.5 207.5t177.5 78.5q126 0 203 -137.5t77 -366.5h-526q-2 -20 -2 -63q0 -131 28 -243.5t83 -183.5t126 -71q85 0 154 94.5t102 302.5h41q-17 -184 -75 -301t-142 -157zM408 1044q-97 0 -158 -107.5t-80 -272.5h440q0 97 -19.5 180t-66.5 141.5t-116 58.5z
" />
    <glyph glyph-name="Ecaron" unicode="&#x11a;" horiz-adv-x="1150" 
d="M643 1790h-123l-178 360h61l179 -268l178 268h61zM1092 408l38 -13l-110 -366l-8 -29h-971v41q52 0 85 2t58 9t37.5 15.5t20 27.5t9 38.5t1.5 54.5v1262q0 35 -1.5 54.5t-9 38.5t-20 27.5t-37.5 15.5t-58 9t-85 2v41h965l4 -34l30 -310l-41 -4q-8 84 -17 132.5t-20 82.5
t-31.5 48t-43 19t-64.5 5h-497v-686h340q35 0 54.5 2t38.5 10t27.5 21.5t15.5 41t9 63.5t2 93h41v-524h-41q0 57 -2 93t-9 63.5t-15.5 41t-27.5 21.5t-38.5 10t-54.5 2h-340v-651q0 -72 18 -94.5t78 -22.5h420q51 0 79 9t57.5 47.5t53 102.5t60.5 188z" />
    <glyph glyph-name="ecaron" unicode="&#x11b;" horiz-adv-x="780" 
d="M475 1278h-123l-178 360h62l178 -268l178 268h61zM657 438h41q-21 -233 -105.5 -356t-199.5 -123q-100 0 -171 74t-105.5 201.5t-34.5 297.5q0 159 38 288t114.5 207.5t177.5 78.5q126 0 203 -137.5t77 -366.5h-526q-2 -20 -2 -63q0 -131 28 -243.5t83 -183.5t126 -71
q85 0 154 94.5t102 302.5zM408 1044q-97 0 -158 -107.5t-80 -272.5h440q0 97 -19.5 180t-66.5 141.5t-116 58.5z" />
    <glyph glyph-name="Gbreve" unicode="&#x11e;" horiz-adv-x="1411" 
d="M963 2089q0 -95 -62 -155t-174 -60t-173.5 59.5t-61.5 155.5h40q0 -133 195 -133t195 133h41zM82 819q0 143 25.5 271t78 236t127.5 186.5t179 122.5t227 44q91 0 164.5 -19t109.5 -42.5t66 -42.5t45 -19q21 0 28 19t7 84h41l30 -563h-41q-27 270 -130 396t-320 126
q-135 0 -242 -63t-174.5 -172.5t-103 -253.5t-35.5 -310q0 -134 22.5 -251.5t71 -218.5t119.5 -174t174 -114t229 -41q125 0 224 45t155 105v489q0 35 -3 54.5t-18.5 39t-40.5 28t-75 15.5t-115.5 9t-169.5 2v41h633v-41q-86 0 -107.5 -26t-21.5 -122v-516
q-99 -95 -212 -139.5t-259 -44.5q-141 0 -256 44t-194.5 122t-133.5 187t-79 236t-25 271z" />
    <glyph glyph-name="gbreve" unicode="&#x11f;" horiz-adv-x="911" 
d="M446 1362q-112 0 -173.5 59.5t-61.5 155.5h41q0 -133 194 -133q195 0 195 133h41q0 -95 -62 -155t-174 -60zM485 113q91 0 161 -11.5t127 -37.5t87.5 -73.5t30.5 -115.5q0 -97 -66.5 -181.5t-183.5 -135t-254 -50.5q-72 0 -136 14.5t-117 44t-83.5 79.5t-30.5 116
q0 86 47 157.5t146 150.5q-90 40 -90 131q0 49 28.5 91.5t86.5 96.5q-113 116 -113 320q0 174 84.5 285.5t218.5 111.5q97 0 168 -59q124 59 242 59q29 0 41 -9t12 -30q0 -26 -18 -34.5t-54 -8.5q-103 0 -176 -25l-2 2q90 -111 90 -292q0 -174 -85 -286t-218 -112
q-88 0 -158 51q-43 -40 -64.5 -72t-21.5 -65q0 -37 22.5 -60t90.5 -37.5t188 -14.5zM207 690q14 -157 80 -240.5t170 -74.5q105 9 155.5 103t36.5 249q-15 157 -80 240.5t-170 74.5q-106 -9 -155 -101.5t-37 -250.5zM408 -410q194 0 307.5 69t113.5 196q0 53 -27.5 89
t-80.5 54.5t-113.5 25.5t-142.5 7q-130 0 -213 22q-94 -79 -132 -137.5t-38 -122.5q0 -92 85 -147.5t241 -55.5z" />
    <glyph glyph-name="Gdotaccent" unicode="&#x120;" horiz-adv-x="1411" 
d="M727 1884q-34 0 -58 24t-24 58t24 58t58 24t58 -24t24 -58t-24 -58t-58 -24zM82 819q0 143 25.5 271t78 236t127.5 186.5t179 122.5t227 44q91 0 164.5 -19t109.5 -42.5t66 -42.5t45 -19q21 0 28 19t7 84h41l30 -563h-41q-27 270 -130 396t-320 126q-135 0 -242 -63
t-174.5 -172.5t-103 -253.5t-35.5 -310q0 -134 22.5 -251.5t71 -218.5t119.5 -174t174 -114t229 -41q125 0 224 45t155 105v489q0 35 -3 54.5t-18.5 39t-40.5 28t-75 15.5t-115.5 9t-169.5 2v41h633v-41q-86 0 -107.5 -26t-21.5 -122v-516q-99 -95 -212 -139.5t-259 -44.5
q-141 0 -256 44t-194.5 122t-133.5 187t-79 236t-25 271z" />
    <glyph glyph-name="gdotaccent" unicode="&#x121;" horiz-adv-x="911" 
d="M446 1372q-34 0 -57.5 24t-23.5 58t23.5 58t57.5 24t58 -24t24 -58t-24 -58t-58 -24zM485 113q91 0 161 -11.5t127 -37.5t87.5 -73.5t30.5 -115.5q0 -97 -66.5 -181.5t-183.5 -135t-254 -50.5q-72 0 -136 14.5t-117 44t-83.5 79.5t-30.5 116q0 86 47 157.5t146 150.5
q-90 40 -90 131q0 49 28.5 91.5t86.5 96.5q-113 116 -113 320q0 174 84.5 285.5t218.5 111.5q97 0 168 -59q124 59 242 59q29 0 41 -9t12 -30q0 -26 -18 -34.5t-54 -8.5q-103 0 -176 -25l-2 2q90 -111 90 -292q0 -174 -85 -286t-218 -112q-88 0 -158 51q-43 -40 -64.5 -72
t-21.5 -65q0 -37 22.5 -60t90.5 -37.5t188 -14.5zM207 690q14 -157 80 -240.5t170 -74.5q105 9 155.5 103t36.5 249q-15 157 -80 240.5t-170 74.5q-106 -9 -155 -101.5t-37 -250.5zM408 -410q194 0 307.5 69t113.5 196q0 53 -27.5 89t-80.5 54.5t-113.5 25.5t-142.5 7
q-130 0 -213 22q-94 -79 -132 -137.5t-38 -122.5q0 -92 85 -147.5t241 -55.5z" />
    <glyph glyph-name="uni0122" unicode="&#x122;" horiz-adv-x="1411" 
d="M82 819q0 143 25.5 271t78 236t127.5 186.5t179 122.5t227 44q91 0 164.5 -19t109.5 -42.5t66 -42.5t45 -19q21 0 28 19t7 84h41l30 -563h-41q-27 270 -130 396t-320 126q-135 0 -242 -63t-174.5 -172.5t-103 -253.5t-35.5 -310q0 -134 22.5 -251.5t71 -218.5t119.5 -174
t174 -114t229 -41q125 0 224 45t155 105v489q0 35 -3 54.5t-18.5 39t-40.5 28t-75 15.5t-115.5 9t-169.5 2v41h633v-41q-86 0 -107.5 -26t-21.5 -122v-516q-99 -95 -212 -139.5t-259 -44.5q-141 0 -256 44t-194.5 122t-133.5 187t-79 236t-25 271zM766 -315q-26 0 -41.5 21
t-15.5 52q0 36 25 59t61 23q50 0 81 -33t31 -100q0 -65 -44 -117.5t-144 -78.5v40q47 12 89 46.5t42 74.5q0 33 -21 33q-6 0 -25 -10t-38 -10z" />
    <glyph glyph-name="uni0123" unicode="&#x123;" horiz-adv-x="911" 
d="M459 1366q-51 0 -82 33t-31 100q0 65 44.5 118t144.5 79v-41q-47 -12 -89.5 -46.5t-42.5 -74.5q0 -33 21 -33q6 0 25 10.5t38 10.5q26 0 42 -21.5t16 -52.5q0 -36 -25 -59t-61 -23zM485 113q91 0 161 -11.5t127 -37.5t87.5 -73.5t30.5 -115.5q0 -97 -66.5 -181.5
t-183.5 -135t-254 -50.5q-72 0 -136 14.5t-117 44t-83.5 79.5t-30.5 116q0 86 47 157.5t146 150.5q-90 40 -90 131q0 49 28.5 91.5t86.5 96.5q-113 116 -113 320q0 174 84.5 285.5t218.5 111.5q97 0 168 -59q124 59 242 59q29 0 41 -9t12 -30q0 -26 -18 -34.5t-54 -8.5
q-103 0 -176 -25l-2 2q90 -111 90 -292q0 -174 -85 -286t-218 -112q-88 0 -158 51q-43 -40 -64.5 -72t-21.5 -65q0 -37 22.5 -60t90.5 -37.5t188 -14.5zM207 690q14 -157 80 -240.5t170 -74.5q105 9 155.5 103t36.5 249q-15 157 -80 240.5t-170 74.5q-106 -9 -155 -101.5
t-37 -250.5zM408 -410q194 0 307.5 69t113.5 196q0 53 -27.5 89t-80.5 54.5t-113.5 25.5t-142.5 7q-130 0 -213 22q-94 -79 -132 -137.5t-38 -122.5q0 -92 85 -147.5t241 -55.5z" />
    <glyph glyph-name="Hbar" unicode="&#x126;" horiz-adv-x="1376" 
d="M1315 1227h-246v-1039q0 -35 1.5 -54.5t9 -38.5t20 -27.5t37.5 -15.5t58 -9t85 -2v-41h-496v41q52 0 85 2t58 9t37.5 15.5t20 27.5t9 38.5t1.5 54.5v656h-655v-656q0 -35 1.5 -54.5t9 -38.5t20 -27.5t37.5 -15.5t58 -9t85 -2v-41h-496v41q52 0 85 2t58 9t37.5 15.5
t20 27.5t9 38.5t1.5 54.5v1039h-205v61h205v162q0 35 -1.5 54.5t-9 38.5t-20 27.5t-37.5 15.5t-58 9t-85 2v41h496v-41q-52 0 -85 -2t-58 -9t-37.5 -15.5t-20 -27.5t-9 -38.5t-1.5 -54.5v-162h655v162q0 35 -1.5 54.5t-9 38.5t-20 27.5t-37.5 15.5t-58 9t-85 2v41h496v-41
q-52 0 -85 -2t-58 -9t-37.5 -15.5t-20 -27.5t-9 -38.5t-1.5 -54.5v-162h246v-61zM995 905v322h-655v-322h655z" />
    <glyph glyph-name="hbar" unicode="&#x127;" horiz-adv-x="1064" 
d="M715 188q0 -96 21.5 -121.5t107.5 -25.5v-41h-332v41q86 0 107.5 25.5t21.5 121.5v654q0 192 -127 192q-111 0 -250 -170v-676q0 -96 21.5 -121.5t107.5 -25.5v-41h-332v41q86 0 107.5 25.5t21.5 121.5v1127h-108v61h108v94v15q0 35 -0.5 49t-3.5 32t-9 21.5t-18.5 6
t-29.5 -3t-45 -15.5l-14 37l139 55l35 12l20 -20v-283h303v-61h-303v-389h6q122 180 254 180q191 0 191 -264v-654z" />
    <glyph glyph-name="Imacron" unicode="&#x12a;" horiz-adv-x="577" 
d="M63 1997h451v-62h-451v62zM252 1450q0 35 -1.5 54.5t-9 38.5t-20 27.5t-37.5 15.5t-58 9t-85 2v41h496v-41q-52 0 -85 -2t-58 -9t-37.5 -15.5t-20 -27.5t-9 -38.5t-1.5 -54.5v-1262q0 -35 1.5 -54.5t9 -38.5t20 -27.5t37.5 -15.5t58 -9t85 -2v-41h-496v41q52 0 85 2t58 9
t37.5 15.5t20 27.5t9 38.5t1.5 54.5v1262z" />
    <glyph glyph-name="imacron" unicode="&#x12b;" horiz-adv-x="434" 
d="M-43 1485h451v-62h-451v62zM264 188q0 -96 21.5 -121.5t107.5 -25.5v-41h-332v41q86 0 107.5 25.5t21.5 121.5v709v15q0 35 -0.5 49t-3.5 31.5t-9 21t-18.5 6t-29.5 -3t-45 -15.5l-14 37l139 56l35 12l20 -21v-897z" />
    <glyph glyph-name="Iogonek" unicode="&#x12e;" horiz-adv-x="577" 
d="M549 -362l12 -41q-96 -68 -199 -68q-90 0 -147 52.5t-57 139.5q0 58 22 101.5t58.5 69.5t73 43.5t78.5 34.5t61 30h-410v41q52 0 85 2t58 9t37.5 15.5t20 27.5t9 38.5t1.5 54.5v1262q0 35 -1.5 54.5t-9 38.5t-20 27.5t-37.5 15.5t-58 9t-85 2v41h496v-41q-52 0 -85 -2
t-58 -9t-37.5 -15.5t-20 -27.5t-9 -38.5t-1.5 -54.5v-1262q0 -35 1.5 -54.5t9 -38.5t20 -27.5t37.5 -15.5t58 -9t85 -2v-41h-41q-25 -25 -75 -53.5t-86.5 -49.5t-65.5 -64t-29 -103q0 -62 39 -101t110 -39q67 0 160 48z" />
    <glyph glyph-name="iogonek" unicode="&#x12f;" horiz-adv-x="434" 
d="M182 1372q-34 0 -58 24t-24 58t24 58t58 24t58 -24t24 -58t-24 -58t-58 -24zM446 -362l13 -41q-96 -68 -199 -68q-90 0 -147.5 52.5t-57.5 139.5q0 58 22 101.5t58.5 69.5t73 43.5t78.5 34.5t61 30h-287v41q86 0 107.5 25.5t21.5 121.5v709v15q0 35 -0.5 49t-3.5 31.5
t-9 21t-18.5 6t-29.5 -3t-45 -15.5l-14 37l139 56l35 12l20 -21v-897q0 -96 21.5 -121.5t107.5 -25.5v-41q-25 -25 -75 -53.5t-86.5 -49.5t-65.5 -64t-29 -103q0 -62 39.5 -101t110.5 -39q66 0 159 48z" />
    <glyph glyph-name="Idotaccent" unicode="&#x130;" horiz-adv-x="577" 
d="M289 1884q-34 0 -58 24t-24 58t24 58t58 24t58 -24t24 -58t-24 -58t-58 -24zM252 1450q0 35 -1.5 54.5t-9 38.5t-20 27.5t-37.5 15.5t-58 9t-85 2v41h496v-41q-52 0 -85 -2t-58 -9t-37.5 -15.5t-20 -27.5t-9 -38.5t-1.5 -54.5v-1262q0 -35 1.5 -54.5t9 -38.5t20 -27.5
t37.5 -15.5t58 -9t85 -2v-41h-496v41q52 0 85 2t58 9t37.5 15.5t20 27.5t9 38.5t1.5 54.5v1262z" />
    <glyph glyph-name="dotlessi" unicode="&#x131;" horiz-adv-x="434" 
d="M264 188q0 -96 21.5 -121.5t107.5 -25.5v-41h-332v41q86 0 107.5 25.5t21.5 121.5v709v15q0 35 -0.5 49t-3.5 31.5t-9 21t-18.5 6t-29.5 -3t-45 -15.5l-14 37l139 56l35 12l20 -21v-897z" />
    <glyph glyph-name="uni0136" unicode="&#x136;" horiz-adv-x="1417" 
d="M252 1450q0 35 -1.5 54.5t-9 38.5t-20 27.5t-37.5 15.5t-58 9t-85 2v41h496v-41q-52 0 -85 -2t-58 -9t-37.5 -15.5t-20 -27.5t-9 -38.5t-1.5 -54.5v-1262q0 -35 1.5 -54.5t9 -38.5t20 -27.5t37.5 -15.5t58 -9t85 -2v-41h-496v41q52 0 85 2t58 9t37.5 15.5t20 27.5t9 38.5
t1.5 54.5v1262zM1124 141q58 -66 106.5 -83t145.5 -17v-41h-415v41h48t34 2t24.5 2.5t11.5 6.5t3.5 8t-7.5 13.5t-13 16.5t-21 23t-25 28l-610 701l518 649q52 65 56 74q11 22 -18 27q-23 5 -102 5v41h389v-41q-95 0 -142.5 -18.5t-102.5 -87.5l-506 -631zM741 -315
q-26 0 -41.5 21t-15.5 52q0 36 25 59t61 23q51 0 82 -33t31 -100q0 -65 -44.5 -117.5t-144.5 -78.5v40q47 12 89 46.5t42 74.5q0 33 -20 33q-6 0 -25.5 -10t-38.5 -10z" />
    <glyph glyph-name="uni0137" unicode="&#x137;" horiz-adv-x="866" 
d="M264 188q0 -96 21.5 -121.5t107.5 -25.5v-41h-332v41q86 0 107.5 25.5t21.5 121.5v1282v15q0 35 -0.5 49t-3.5 32t-9 21.5t-18.5 6t-29.5 -3t-45 -15.5l-14 37l139 55l35 12l20 -20v-1471zM662 164q45 -78 81.5 -100.5t102.5 -22.5v-41h-340v41q96 0 106 17.5t-34 87.5
q-7 12 -11 18l-262 461l240 295q9 11 23.5 28.5t20 24t12.5 17t7.5 13.5t-1.5 9t-9 7t-20 3t-28.5 2h-41.5v41h323v-41q-69 0 -111.5 -18.5t-96.5 -85.5l-232 -285zM408 -315q-26 0 -42 21t-16 52q0 36 25 59t61 23q51 0 82 -33t31 -100q0 -65 -44.5 -117.5t-144.5 -78.5v40
q47 12 89.5 46.5t42.5 74.5q0 33 -21 33q-6 0 -25 -10t-38 -10z" />
    <glyph glyph-name="Lacute" unicode="&#x139;" horiz-adv-x="1140" 
d="M293 1790l137 360h143l-219 -360h-61zM537 1638v-41q-52 0 -85 -2t-58 -9t-37.5 -15.5t-20 -27.5t-9 -38.5t-1.5 -54.5v-1272q0 -72 18 -94.5t78 -22.5h405q34 0 55 3.5t43 17.5t36 36.5t31 66t32 100t35 145.5l41 -8l-92 -395l-7 -27h-960v41q52 0 85 2t58 9t37.5 15.5
t20 27.5t9 38.5t1.5 54.5v1262q0 35 -1.5 54.5t-9 38.5t-20 27.5t-37.5 15.5t-58 9t-85 2v41h496z" />
    <glyph glyph-name="lacute" unicode="&#x13a;" horiz-adv-x="434" 
d="M158 1831l137 360h143l-219 -360h-61zM264 188q0 -96 21.5 -121.5t107.5 -25.5v-41h-332v41q86 0 107.5 25.5t21.5 121.5v1282v15q0 35 -0.5 49t-3.5 32t-9 21.5t-18.5 6t-29.5 -3t-45 -15.5l-14 37l139 55l35 12l20 -20v-1471z" />
    <glyph glyph-name="uni013B" unicode="&#x13b;" horiz-adv-x="1140" 
d="M537 1638v-41q-52 0 -85 -2t-58 -9t-37.5 -15.5t-20 -27.5t-9 -38.5t-1.5 -54.5v-1272q0 -72 18 -94.5t78 -22.5h405q34 0 55 3.5t43 17.5t36 36.5t31 66t32 100t35 145.5l41 -8l-92 -395l-7 -27h-960v41q52 0 85 2t58 9t37.5 15.5t20 27.5t9 38.5t1.5 54.5v1262
q0 35 -1.5 54.5t-9 38.5t-20 27.5t-37.5 15.5t-58 9t-85 2v41h496zM594 -315q-26 0 -41.5 21t-15.5 52q0 36 25 59t61 23q50 0 81 -33t31 -100q0 -65 -44 -117.5t-144 -78.5v40q47 12 89 46.5t42 74.5q0 33 -21 33q-6 0 -25 -10t-38 -10z" />
    <glyph glyph-name="uni013C" unicode="&#x13c;" horiz-adv-x="434" 
d="M264 188q0 -96 21.5 -121.5t107.5 -25.5v-41h-332v41q86 0 107.5 25.5t21.5 121.5v1282v15q0 35 -0.5 49t-3.5 32t-9 21.5t-18.5 6t-29.5 -3t-45 -15.5l-14 37l139 55l35 12l20 -20v-1471zM184 -315q-26 0 -41.5 21t-15.5 52q0 36 25 59t61 23q51 0 82 -33t31 -100
q0 -65 -44.5 -117.5t-144.5 -78.5v40q47 12 89 46.5t42 74.5q0 33 -20 33q-6 0 -25.5 -10t-38.5 -10z" />
    <glyph glyph-name="Lcaron" unicode="&#x13d;" horiz-adv-x="1193" 
d="M688 1319l137 360h144l-219 -360h-62zM537 1638v-41q-52 0 -85 -2t-58 -9t-37.5 -15.5t-20 -27.5t-9 -38.5t-1.5 -54.5v-1272q0 -72 18 -94.5t78 -22.5h405q34 0 55 3.5t43 17.5t36 36.5t31 66t32 100t35 145.5l41 -8l-92 -395l-7 -27h-960v41q52 0 85 2t58 9t37.5 15.5
t20 27.5t9 38.5t1.5 54.5v1262q0 35 -1.5 54.5t-9 38.5t-20 27.5t-37.5 15.5t-58 9t-85 2v41h496z" />
    <glyph glyph-name="lcaron" unicode="&#x13e;" horiz-adv-x="641" 
d="M264 188q0 -96 21.5 -121.5t107.5 -25.5v-41h-332v41q86 0 107.5 25.5t21.5 121.5v1282v15q0 35 -0.5 49t-3.5 32t-9 21.5t-18.5 6t-29.5 -3t-45 -15.5l-14 37l139 55l35 12l20 -20v-1471zM477 1577q0 102 62 102q61 0 61 -102q0 -57 -5 -117.5t-16.5 -155.5t-17.5 -157
h-41q-7 68 -18.5 158t-18 153t-6.5 119z" />
    <glyph glyph-name="Lslash" unicode="&#x141;" horiz-adv-x="1140" 
d="M1059 430l41 -8l-92 -395l-7 -27h-960v41q52 0 85 2t58 9t37.5 15.5t20 27.5t9 38.5t1.5 54.5v535l-160 -92l-31 53l191 111v655q0 35 -1.5 54.5t-9 38.5t-20 27.5t-37.5 15.5t-58 9t-85 2v41h496v-41q-52 0 -85 -2t-58 -9t-37.5 -15.5t-20 -27.5t-9 -38.5t-1.5 -54.5
v-612l479 276l31 -53l-510 -295v-588q0 -72 18 -94.5t78 -22.5h405q34 0 55 3.5t43 17.5t36 36.5t31 66t32 100t35 145.5z" />
    <glyph glyph-name="lslash" unicode="&#x142;" horiz-adv-x="544" 
d="M289 188q0 -96 21.5 -121.5t107.5 -25.5v-41h-332v41q86 0 107.5 25.5t21.5 121.5v594l-139 -80l-31 54l170 98v616v15q0 35 -0.5 49t-3.5 32t-9 21.5t-18.5 6t-29.5 -3t-45 -15.5l-15 37l139 55l35 12l21 -20v-762l180 104l31 -53l-211 -123v-637z" />
    <glyph glyph-name="Nacute" unicode="&#x143;" horiz-adv-x="1497" 
d="M909 2150l-219 -360h-61l137 360h143zM1456 1638v-41q-52 0 -85 -2t-58 -9t-37.5 -15.5t-20 -27.5t-9 -38.5t-1.5 -54.5v-1497h-41l-891 1452v-1217q0 -35 1.5 -54.5t9 -38.5t20 -27.5t37.5 -15.5t58 -9t85 -2v-41h-483v41q52 0 85 2t58 9t37.5 15.5t20 27.5t9 38.5
t1.5 54.5v1315q-41 60 -83.5 77t-127.5 17v41h223l914 -1484h6v1296q0 35 -1.5 54.5t-9 38.5t-20 27.5t-37.5 15.5t-58 9t-85 2v41h483z" />
    <glyph glyph-name="nacute" unicode="&#x144;" horiz-adv-x="884" 
d="M354 1278l138 360h143l-219 -360h-62zM264 1085v-159h6q122 180 254 180q191 0 191 -264v-654q0 -96 21.5 -121.5t107.5 -25.5v-41h-332v41q86 0 107.5 25.5t21.5 121.5v654q0 192 -127 192q-111 0 -250 -170v-676q0 -96 21.5 -121.5t107.5 -25.5v-41h-332v41
q86 0 107.5 25.5t21.5 121.5v709v15q0 35 -0.5 49t-3.5 31.5t-9 21t-18.5 6t-29.5 -3t-45 -15.5l-14 37l139 56l35 12z" />
    <glyph glyph-name="uni0145" unicode="&#x145;" horiz-adv-x="1497" 
d="M1456 1638v-41q-52 0 -85 -2t-58 -9t-37.5 -15.5t-20 -27.5t-9 -38.5t-1.5 -54.5v-1497h-41l-891 1452v-1217q0 -35 1.5 -54.5t9 -38.5t20 -27.5t37.5 -15.5t58 -9t85 -2v-41h-483v41q52 0 85 2t58 9t37.5 15.5t20 27.5t9 38.5t1.5 54.5v1315q-41 60 -83.5 77t-127.5 17
v41h223l914 -1484h6v1296q0 35 -1.5 54.5t-9 38.5t-20 27.5t-37.5 15.5t-58 9t-85 2v41h483zM827 -160q51 0 82 -33t31 -100q0 -65 -44 -117.5t-144 -78.5v40q47 12 89 46.5t42 74.5q0 33 -21 33q-6 0 -25 -10t-38 -10q-26 0 -42 21t-16 52q0 36 25 59t61 23z" />
    <glyph glyph-name="uni0146" unicode="&#x146;" horiz-adv-x="884" 
d="M264 1085v-159h6q122 180 254 180q191 0 191 -264v-654q0 -96 21.5 -121.5t107.5 -25.5v-41h-332v41q86 0 107.5 25.5t21.5 121.5v654q0 192 -127 192q-111 0 -250 -170v-676q0 -96 21.5 -121.5t107.5 -25.5v-41h-332v41q86 0 107.5 25.5t21.5 121.5v709v15q0 35 -0.5 49
t-3.5 31.5t-9 21t-18.5 6t-29.5 -3t-45 -15.5l-14 37l139 56l35 12zM420 -315q-26 0 -42 21t-16 52q0 36 25.5 59t61.5 23q50 0 81 -33t31 -100q0 -65 -44 -117.5t-144 -78.5v40q47 12 89 46.5t42 74.5q0 33 -21 33q-6 0 -25 -10t-38 -10z" />
    <glyph glyph-name="Ncaron" unicode="&#x147;" horiz-adv-x="1497" 
d="M760 1790h-123l-178 360h61l178 -268l179 268h61zM1456 1638v-41q-52 0 -85 -2t-58 -9t-37.5 -15.5t-20 -27.5t-9 -38.5t-1.5 -54.5v-1497h-41l-891 1452v-1217q0 -35 1.5 -54.5t9 -38.5t20 -27.5t37.5 -15.5t58 -9t85 -2v-41h-483v41q52 0 85 2t58 9t37.5 15.5t20 27.5
t9 38.5t1.5 54.5v1315q-41 60 -83.5 77t-127.5 17v41h223l914 -1484h6v1296q0 35 -1.5 54.5t-9 38.5t-20 27.5t-37.5 15.5t-58 9t-85 2v41h483z" />
    <glyph glyph-name="ncaron" unicode="&#x148;" horiz-adv-x="884" 
d="M485 1278h-123l-178 360h62l178 -268l178 268h62zM715 188q0 -96 21.5 -121.5t107.5 -25.5v-41h-332v41q86 0 107.5 25.5t21.5 121.5v654q0 192 -127 192q-111 0 -250 -170v-676q0 -96 21.5 -121.5t107.5 -25.5v-41h-332v41q86 0 107.5 25.5t21.5 121.5v709v15
q0 35 -0.5 49t-3.5 31.5t-9 21t-18.5 6t-29.5 -3t-45 -15.5l-14 37l139 56l35 12l20 -21v-159h6q122 180 254 180q191 0 191 -264v-654z" />
    <glyph glyph-name="Eng" unicode="&#x14a;" horiz-adv-x="1497" 
d="M1456 1638v-41q-52 0 -85 -2t-58 -9t-37.5 -15.5t-20 -27.5t-9 -38.5t-1.5 -54.5v-1513q0 -70 -5.5 -127t-21.5 -115.5t-42.5 -97.5t-71.5 -64t-105 -25q-99 0 -151.5 51t-52.5 119q0 32 16.5 51t44.5 19t45 -20.5t17 -57.5q0 -24 0.5 -35t5 -26.5t14 -22t27.5 -11.5
t45 -5q48 0 83.5 32t54.5 85t27.5 110t8.5 119v70l-871 1419v-1217q0 -35 1.5 -54.5t9 -38.5t20 -27.5t37.5 -15.5t58 -9t85 -2v-41h-483v41q52 0 85 2t58 9t37.5 15.5t20 27.5t9 38.5t1.5 54.5v1315q-41 60 -83.5 77t-127.5 17v41h223l914 -1484h6v1296q0 35 -1.5 54.5
t-9 38.5t-20 27.5t-37.5 15.5t-58 9t-85 2v41h483z" />
    <glyph glyph-name="eng" unicode="&#x14b;" horiz-adv-x="858" 
d="M524 1106q191 0 191 -264v-905q0 -61 -1.5 -104t-7 -91.5t-14.5 -80.5t-25.5 -63.5t-40 -49.5t-56.5 -29t-76 -11q-100 0 -144.5 49.5t-44.5 120.5q0 32 17 51t45 19t44.5 -20t16.5 -58q0 -24 0.5 -35t3.5 -26.5t10 -22t20 -11.5t32 -5q34 0 59.5 11.5t41.5 36.5
t25.5 51.5t14 72t5.5 81t1 93.5v926q0 192 -127 192q-111 0 -250 -170v-676q0 -96 21.5 -121.5t107.5 -25.5v-41h-332v41q86 0 107.5 25.5t21.5 121.5v709v15q0 35 -0.5 49t-3.5 31.5t-9 21t-18.5 6t-29.5 -3t-45 -15.5l-14 37l139 56l35 12l20 -21v-159h6q122 180 254 180z
" />
    <glyph glyph-name="Omacron" unicode="&#x14c;" horiz-adv-x="1314" 
d="M432 1997h451v-62h-451v62zM657 -41q-174 0 -306.5 117t-200.5 311t-68 432t68 432t200.5 311t306.5 117q132 0 241.5 -68t182 -185t112.5 -273.5t40 -333.5t-40 -333.5t-112.5 -273.5t-182 -185t-241.5 -68zM727 25q148 13 251.5 131t146 302.5t22.5 403.5
q-20 220 -93 394.5t-195.5 273.5t-270.5 86q-148 -14 -252 -132.5t-147 -303.5t-23 -404q15 -164 62 -305.5t118.5 -244.5t170 -157.5t210.5 -43.5z" />
    <glyph glyph-name="omacron" unicode="&#x14d;" horiz-adv-x="917" 
d="M233 1485h451v-62h-451v62zM459 -41q-116 0 -203 78t-130.5 207t-43.5 288t43.5 288t130.5 207.5t203 78.5t203 -78.5t130.5 -207.5t43.5 -288t-43.5 -288t-130.5 -207t-203 -78zM504 23q132 12 200 159.5t48 376.5q-20 228 -112.5 361.5t-225.5 121.5
q-132 -12 -200 -159.5t-48 -376.5q20 -228 112.5 -361.5t225.5 -121.5z" />
    <glyph glyph-name="Ohungarumlaut" unicode="&#x150;" horiz-adv-x="1314" 
d="M485 1790l117 360h123l-178 -360h-62zM690 1790l117 360h123l-178 -360h-62zM657 -41q-174 0 -306.5 117t-200.5 311t-68 432t68 432t200.5 311t306.5 117q132 0 241.5 -68t182 -185t112.5 -273.5t40 -333.5t-40 -333.5t-112.5 -273.5t-182 -185t-241.5 -68zM727 25
q148 13 251.5 131t146 302.5t22.5 403.5q-20 220 -93 394.5t-195.5 273.5t-270.5 86q-148 -14 -252 -132.5t-147 -303.5t-23 -404q15 -164 62 -305.5t118.5 -244.5t170 -157.5t210.5 -43.5z" />
    <glyph glyph-name="ohungarumlaut" unicode="&#x151;" horiz-adv-x="917" 
d="M287 1278l116 360h123l-178 -360h-61zM492 1278l116 360h123l-178 -360h-61zM459 -41q-116 0 -203 78t-130.5 207t-43.5 288t43.5 288t130.5 207.5t203 78.5t203 -78.5t130.5 -207.5t43.5 -288t-43.5 -288t-130.5 -207t-203 -78zM504 23q132 12 200 159.5t48 376.5
q-20 228 -112.5 361.5t-225.5 121.5q-132 -12 -200 -159.5t-48 -376.5q20 -228 112.5 -361.5t225.5 -121.5z" />
    <glyph glyph-name="OE" unicode="&#x152;" horiz-adv-x="1740" 
d="M1681 408l39 -13l-110 -366l-8 -29h-666q-45 0 -134 -10t-165 -10q-174 0 -301.5 112t-190.5 300t-63 427t63 427.5t190.5 300.5t301.5 112q76 0 165 -10.5t134 -10.5h659l4 -34l31 -310l-41 -4q-8 84 -17 132.5t-20 82.5t-31.5 48t-43 19t-64.5 5h-477v-686h319
q35 0 54.5 2t39 10t28 22t15.5 41t9 63t2 93h41v-524h-41q0 57 -2 93t-9 63t-15.5 41t-28 22t-39 10t-54.5 2h-319v-651q0 -72 18 -94.5t78 -22.5h400q51 0 79 9t57 47.5t52.5 102.5t60.5 188zM616 41q70 0 123.5 18.5t114.5 63.5v1393q-61 47 -115 66t-123 17
q-140 -4 -243.5 -108t-156 -277.5t-52.5 -394.5t52.5 -396t156 -278.5t243.5 -103.5z" />
    <glyph glyph-name="oe" unicode="&#x153;" horiz-adv-x="1474" 
d="M1352 438h41q-21 -233 -106 -356t-200 -123q-108 0 -180.5 83.5t-105.5 233.5q-41 -146 -129.5 -231.5t-212.5 -85.5q-116 0 -203 78t-130.5 207t-43.5 288t43.5 288t130.5 207.5t203 78.5q125 0 214 -88t132 -238q35 149 113 237.5t188 88.5q126 0 203 -137.5t77 -366.5
h-526q-2 -20 -2 -63q0 -131 28 -243.5t83.5 -183.5t126.5 -71q85 0 154 94.5t102 302.5zM504 23q132 12 200 159.5t48 376.5q-20 228 -112.5 361.5t-225.5 121.5q-132 -12 -200 -159.5t-48 -376.5q20 -228 112.5 -361.5t225.5 -121.5zM1102 1044q-97 0 -158 -107.5
t-80 -272.5h441q0 97 -19.5 180t-67 141.5t-116.5 58.5z" />
    <glyph glyph-name="Racute" unicode="&#x154;" horiz-adv-x="1116" 
d="M756 2150l-219 -360h-62l137 360h144zM860 168q42 -81 83 -104t132 -23v-41h-149q-42 0 -62 16t-53 80l-369 717q-18 -2 -55 -2h-61v-623q0 -35 1.5 -54.5t9 -38.5t20 -27.5t37.5 -15.5t58 -9t85 -2v-41h-496v41q52 0 85 2t58 9t37.5 15.5t20 27.5t9 38.5t1.5 54.5v1262
q0 35 -1.5 54.5t-9 38.5t-20 27.5t-37.5 15.5t-58 9t-85 2v41h469q197 0 314.5 -103.5t117.5 -297.5q0 -88 -26 -158t-67.5 -115t-100.5 -77t-117.5 -47.5t-126.5 -22.5v-6q53 -49 96 -133zM387 872q58 -1 114.5 6t124 30.5t117 61.5t83.5 107t34 160q0 162 -97.5 251
t-252.5 89q-108 0 -184 -37v-668h61z" />
    <glyph glyph-name="racute" unicode="&#x155;" horiz-adv-x="649" 
d="M618 1638l-219 -360h-61l137 360h143zM502 1106q46 0 76 -22t30 -58q0 -26 -16.5 -44.5t-44.5 -18.5q-45 0 -58 36q-8 25 -32 25q-44 0 -84.5 -41t-108.5 -147v-648q0 -51 5 -76.5t27 -43.5t58 -22.5t105 -4.5v-41h-398v41q86 0 107.5 25.5t21.5 121.5v709v15
q0 35 -0.5 49t-3.5 31.5t-9 21t-18.5 6t-29.5 -3t-45 -15.5l-14 37l139 56l35 12l20 -21v-167h6q106 188 232 188z" />
    <glyph glyph-name="uni0156" unicode="&#x156;" horiz-adv-x="1116" 
d="M860 168q42 -81 83 -104t132 -23v-41h-149q-42 0 -62 16t-53 80l-369 717q-18 -2 -55 -2h-61v-623q0 -35 1.5 -54.5t9 -38.5t20 -27.5t37.5 -15.5t58 -9t85 -2v-41h-496v41q52 0 85 2t58 9t37.5 15.5t20 27.5t9 38.5t1.5 54.5v1262q0 35 -1.5 54.5t-9 38.5t-20 27.5
t-37.5 15.5t-58 9t-85 2v41h469q197 0 314.5 -103.5t117.5 -297.5q0 -88 -26 -158t-67.5 -115t-100.5 -77t-117.5 -47.5t-126.5 -22.5v-6q53 -49 96 -133zM387 872q58 -1 114.5 6t124 30.5t117 61.5t83.5 107t34 160q0 162 -97.5 251t-252.5 89q-108 0 -184 -37v-668h61z
M682 -160q51 0 82 -33t31 -100q0 -65 -44.5 -117.5t-144.5 -78.5v40q47 12 89 46.5t42 74.5q0 33 -20 33q-6 0 -25.5 -10t-38.5 -10q-26 0 -41.5 21t-15.5 52q0 36 25 59t61 23z" />
    <glyph glyph-name="uni0157" unicode="&#x157;" horiz-adv-x="649" 
d="M502 1106q46 0 76 -22t30 -58q0 -26 -16.5 -44.5t-44.5 -18.5q-45 0 -58 36q-8 25 -32 25q-44 0 -84.5 -41t-108.5 -147v-648q0 -51 5 -76.5t27 -43.5t58 -22.5t105 -4.5v-41h-398v41q86 0 107.5 25.5t21.5 121.5v709v15q0 35 -0.5 49t-3.5 31.5t-9 21t-18.5 6t-29.5 -3
t-45 -15.5l-14 37l139 56l35 12l20 -21v-167h6q106 188 232 188zM248 -160q50 0 81 -33t31 -100q0 -65 -44 -117.5t-144 -78.5v40q47 12 89 46.5t42 74.5q0 33 -20 33q-6 0 -25.5 -10t-38.5 -10q-26 0 -41.5 21t-15.5 52q0 36 25 59t61 23z" />
    <glyph glyph-name="Rcaron" unicode="&#x158;" horiz-adv-x="1116" 
d="M606 1790h-123l-178 360h62l178 -268l178 268h61zM860 168q42 -81 83 -104t132 -23v-41h-149q-42 0 -62 16t-53 80l-369 717q-18 -2 -55 -2h-61v-623q0 -35 1.5 -54.5t9 -38.5t20 -27.5t37.5 -15.5t58 -9t85 -2v-41h-496v41q52 0 85 2t58 9t37.5 15.5t20 27.5t9 38.5
t1.5 54.5v1262q0 35 -1.5 54.5t-9 38.5t-20 27.5t-37.5 15.5t-58 9t-85 2v41h469q197 0 314.5 -103.5t117.5 -297.5q0 -88 -26 -158t-67.5 -115t-100.5 -77t-117.5 -47.5t-126.5 -22.5v-6q53 -49 96 -133zM387 872q58 -1 114.5 6t124 30.5t117 61.5t83.5 107t34 160
q0 162 -97.5 251t-252.5 89q-108 0 -184 -37v-668h61z" />
    <glyph glyph-name="rcaron" unicode="&#x159;" horiz-adv-x="649" 
d="M469 1278h-123l-178 360h61l179 -268l178 268h61zM502 1106q46 0 76 -22t30 -58q0 -26 -16.5 -44.5t-44.5 -18.5q-45 0 -58 36q-8 25 -32 25q-44 0 -84.5 -41t-108.5 -147v-648q0 -51 5 -76.5t27 -43.5t58 -22.5t105 -4.5v-41h-398v41q86 0 107.5 25.5t21.5 121.5v709v15
q0 35 -0.5 49t-3.5 31.5t-9 21t-18.5 6t-29.5 -3t-45 -15.5l-14 37l139 56l35 12l20 -21v-167h6q106 188 232 188z" />
    <glyph glyph-name="Sacute" unicode="&#x15a;" horiz-adv-x="1064" 
d="M463 1790l137 360h143l-219 -360h-61zM125 0v582h41q0 -127 33 -234t87.5 -178t124.5 -110.5t146 -39.5q141 0 222 88.5t81 233.5q0 31 -7 61.5t-15.5 56.5t-28.5 57.5t-34 53t-45 54.5t-48 51t-56.5 53.5t-57.5 51t-63.5 54.5t-62.5 54q-60 54 -87 78t-70 65.5t-61 64.5
t-43 58t-34 63t-16.5 63.5t-7.5 74.5q0 149 98 236t256 87q77 0 141.5 -25.5t98 -56t60.5 -56t38 -25.5q9 0 14 6.5t9 34t4 81.5h41v-473h-41q0 195 -104.5 324t-262.5 129q-134 0 -202 -75t-68 -179q0 -47 17 -94.5t38 -82.5t64.5 -81t70 -70t82.5 -71.5t76 -65.5
q21 -19 59 -53q63 -56 91.5 -82.5t72.5 -70t63 -68.5t44 -63.5t34.5 -71t17 -74t7.5 -88.5q0 -114 -54.5 -200t-137 -127.5t-177.5 -41.5q-67 0 -124 17t-92.5 41t-62.5 48t-48.5 41t-36.5 17q-25 0 -34 -27t-9 -96h-41z" />
    <glyph glyph-name="sacute" unicode="&#x15b;" horiz-adv-x="675" 
d="M279 1278l137 360h143l-219 -360h-61zM104 -20v395h41q15 -161 79.5 -258t164.5 -97q73 0 108 47.5t35 131.5q0 43 -12.5 84t-29.5 71.5t-49.5 68.5t-57.5 62.5t-69 65.5q-9 8 -13 12q-50 46 -79.5 76.5t-60.5 72t-45 84t-14 89.5q0 94 60.5 157.5t152.5 63.5
q43 0 78 -13t53 -28t34.5 -28t25.5 -13q14 0 17 12.5t3 48.5h41v-321h-41q-16 125 -67.5 202.5t-136.5 77.5q-71 0 -104.5 -45.5t-33.5 -97.5q0 -44 15.5 -85.5t48.5 -82.5t62.5 -70.5t78.5 -72.5q130 -117 177.5 -196t47.5 -191q0 -116 -63 -180t-156 -64q-45 0 -84.5 13
t-61.5 28t-42.5 28t-32.5 13q-17 0 -23 -14.5t-6 -46.5h-41z" />
    <glyph glyph-name="Scedilla" unicode="&#x15e;" horiz-adv-x="1064" 
d="M942 328q0 -152 -90 -248.5t-221 -116.5l-64 -72q71 -6 118.5 -47.5t47.5 -101.5q0 -84 -57.5 -140.5t-147.5 -77.5t-198 -9l12 41q137 -6 223 36.5t86 137.5q0 76 -49.5 101.5t-148.5 27.5l104 100q-63 2 -117 20t-88 41.5t-60.5 47t-47 39.5t-35.5 16q-25 0 -34 -27
t-9 -96h-41v582h41q0 -127 33 -234t87.5 -178t124.5 -110.5t146 -39.5q141 0 222 88.5t81 233.5q0 31 -7 61.5t-15.5 56.5t-28.5 57.5t-34 53t-45 54.5t-48 51t-56.5 53.5t-57.5 51t-63.5 54.5t-62.5 54q-60 54 -87 78t-70 65.5t-61 64.5t-43 58t-34 63t-16.5 63.5
t-7.5 74.5q0 149 98 236t256 87q77 0 141.5 -25.5t98 -56t60.5 -56t38 -25.5q9 0 14 6.5t9 34t4 81.5h41v-473h-41q0 195 -104.5 324t-262.5 129q-134 0 -202 -75t-68 -179q0 -47 17 -94.5t38 -82.5t64.5 -81t70 -70t82.5 -71.5t76 -65.5q21 -19 59 -53q63 -56 91.5 -82.5
t72.5 -70t63 -68.5t44 -63.5t34.5 -71t17 -74t7.5 -88.5z" />
    <glyph glyph-name="scedilla" unicode="&#x15f;" horiz-adv-x="675" 
d="M424 -109q71 -6 118.5 -47.5t47.5 -101.5q0 -84 -57.5 -140.5t-148 -77.5t-198.5 -9l13 41q137 -6 223 36.5t86 137.5q0 76 -50 101.5t-149 27.5l105 100h-19q-45 0 -84.5 13t-61.5 28t-42.5 28t-32.5 13q-17 0 -23 -14.5t-6 -46.5h-41v395h41q15 -161 79.5 -258
t164.5 -97q73 0 108 47.5t35 131.5q0 43 -12.5 84t-29.5 71.5t-49.5 68.5t-57.5 62.5t-69 65.5q-9 8 -13 12q-50 46 -79.5 76.5t-60.5 72t-45 84t-14 89.5q0 94 60.5 157.5t152.5 63.5q43 0 78 -13t53 -28t34.5 -28t25.5 -13q14 0 17 12.5t3 48.5h41v-321h-41
q-16 125 -67.5 202.5t-136.5 77.5q-71 0 -104.5 -45.5t-33.5 -97.5q0 -44 15.5 -85.5t48.5 -82.5t62.5 -70.5t78.5 -72.5q130 -117 177.5 -196t47.5 -191q0 -149 -102 -211z" />
    <glyph glyph-name="Scaron" unicode="&#x160;" horiz-adv-x="1064" 
d="M594 1790h-123l-178 360h61l178 -268l179 268h61zM553 899q21 -19 59 -53q63 -56 91.5 -82.5t72.5 -70t63 -68.5t44 -63.5t34.5 -71t17 -74t7.5 -88.5q0 -114 -54.5 -200t-137 -127.5t-177.5 -41.5q-67 0 -124 17t-92.5 41t-62.5 48t-48.5 41t-36.5 17q-25 0 -34 -27
t-9 -96h-41v582h41q0 -127 33 -234t87.5 -178t124.5 -110.5t146 -39.5q141 0 222 88.5t81 233.5q0 31 -7 61.5t-15.5 56.5t-28.5 57.5t-34 53t-45 54.5t-48 51t-56.5 53.5t-57.5 51t-63.5 54.5t-62.5 54q-60 54 -87 78t-70 65.5t-61 64.5t-43 58t-34 63t-16.5 63.5
t-7.5 74.5q0 149 98 236t256 87q77 0 141.5 -25.5t98 -56t60.5 -56t38 -25.5q9 0 14 6.5t9 34t4 81.5h41v-473h-41q0 195 -104.5 324t-262.5 129q-134 0 -202 -75t-68 -179q0 -47 17 -94.5t38 -82.5t64.5 -81t70 -70t82.5 -71.5t76 -65.5z" />
    <glyph glyph-name="scaron" unicode="&#x161;" horiz-adv-x="675" 
d="M410 1278h-123l-178 360h61l178 -268l178 268h62zM389 590q130 -117 177.5 -196t47.5 -191q0 -116 -63 -180t-156 -64q-45 0 -84.5 13t-61.5 28t-42.5 28t-32.5 13q-17 0 -23 -14.5t-6 -46.5h-41v395h41q15 -161 79.5 -258t164.5 -97q73 0 108 47.5t35 131.5
q0 43 -12.5 84t-29.5 71.5t-49.5 68.5t-57.5 62.5t-69 65.5q-9 8 -13 12q-50 46 -79.5 76.5t-60.5 72t-45 84t-14 89.5q0 94 60.5 157.5t152.5 63.5q43 0 78 -13t53 -28t34.5 -28t25.5 -13q14 0 17 12.5t3 48.5h41v-321h-41q-16 125 -67.5 202.5t-136.5 77.5
q-71 0 -104.5 -45.5t-33.5 -97.5q0 -44 15.5 -85.5t48.5 -82.5t62.5 -70.5t78.5 -72.5z" />
    <glyph glyph-name="uni0162" unicode="&#x162;" horiz-adv-x="1204" 
d="M1112 1606l31 -322l-41 -4q-8 87 -17 137.5t-20 85.5t-31.5 49.5t-43 19.5t-64.5 5h-287v-1389q0 -35 1.5 -54.5t9 -38.5t20 -27.5t37.5 -15.5t58 -9t85 -2v-41h-188l-97 -109q71 -6 118.5 -47.5t47.5 -101.5q0 -84 -57.5 -140.5t-147.5 -77.5t-198 -9l12 41
q137 -6 223 36.5t86 137.5q0 76 -49.5 101.5t-148.5 27.5l147 141h-244v41q52 0 85 2t58 9t37.5 15.5t20 27.5t9 38.5t1.5 54.5v1389h-286q-35 0 -55 -2.5t-40 -13.5t-30.5 -28.5t-21 -53t-17 -81.5t-13.5 -118l-41 4l31 322l4 32h1012z" />
    <glyph glyph-name="uni0163" unicode="&#x163;" horiz-adv-x="630" 
d="M401 -109q71 -6 118.5 -47.5t47.5 -101.5q0 -84 -57.5 -140.5t-147.5 -77.5t-198 -9l12 41q137 -6 223 36.5t86 137.5q0 76 -49.5 101.5t-148.5 27.5l104 100q-100 0 -148 84.5t-48 278.5v682h-175v61q123 0 165 63.5t42 229.5h41v-293h252v-61h-252v-601q0 -66 1 -105.5
t5 -86.5t13 -73.5t23 -51t37 -35t54 -10.5q53 0 84.5 36t47.5 126.5t16 247.5h41q0 -197 -22.5 -309t-80.5 -154z" />
    <glyph glyph-name="Tcaron" unicode="&#x164;" horiz-adv-x="1204" 
d="M664 1790h-123l-179 360h62l178 -268l178 268h62zM1112 1606l31 -322l-41 -4q-8 87 -17 137.5t-20 85.5t-31.5 49.5t-43 19.5t-64.5 5h-287v-1389q0 -35 1.5 -54.5t9 -38.5t20 -27.5t37.5 -15.5t58 -9t85 -2v-41h-496v41q52 0 85 2t58 9t37.5 15.5t20 27.5t9 38.5
t1.5 54.5v1389h-286q-35 0 -55 -2.5t-40 -13.5t-30.5 -28.5t-21 -53t-17 -81.5t-13.5 -118l-41 4l31 322l4 32h1012z" />
    <glyph glyph-name="tcaron" unicode="&#x165;" horiz-adv-x="630" 
d="M412 1196l137 360h143l-219 -360h-61zM549 451h41q0 -101 -5 -174t-18 -136t-35 -101.5t-57 -59.5t-84 -21q-100 0 -148 84.5t-48 278.5v682h-175v61q123 0 165 63.5t42 229.5h41v-293h252v-61h-252v-601q0 -66 1 -105.5t5 -86.5t13 -73.5t23 -51t37 -35t54 -10.5
q53 0 84.5 36t47.5 126.5t16 247.5z" />
    <glyph glyph-name="Tbar" unicode="&#x166;" horiz-adv-x="1245" 
d="M1112 1606l31 -322l-41 -4q-8 87 -17 137.5t-20 85.5t-31.5 49.5t-43 19.5t-64.5 5h-287v-739h334v-62h-334v-588q0 -35 1.5 -54.5t9 -38.5t20 -27.5t37.5 -15.5t58 -9t85 -2v-41h-496v41q52 0 85 2t58 9t37.5 15.5t20 27.5t9 38.5t1.5 54.5v588h-289v62h289v739h-286
q-35 0 -55 -2.5t-40 -13.5t-30.5 -28.5t-21 -53t-17 -81.5t-13.5 -118l-41 4l31 322l4 32h1012z" />
    <glyph glyph-name="tbar" unicode="&#x167;" horiz-adv-x="630" 
d="M549 451h41q0 -101 -5 -174t-18 -136t-35 -101.5t-57 -59.5t-84 -21q-100 0 -148 84.5t-48 278.5v380h-175v62h175v240h-175v61q123 0 165 63.5t42 229.5h41v-293h252v-61h-252v-240h252v-62h-252v-299q0 -66 1 -105.5t5 -86.5t13 -73.5t23 -51t37 -35t54 -10.5
q53 0 84.5 36t47.5 126.5t16 247.5z" />
    <glyph glyph-name="Umacron" unicode="&#x16a;" horiz-adv-x="1505" 
d="M545 1997h450v-62h-450v62zM1192 1450q0 35 -1.5 54.5t-9 38.5t-20 27.5t-37.5 15.5t-58 9t-85 2v41h483v-41q-52 0 -85 -2t-58 -9t-37.5 -15.5t-20 -27.5t-9 -38.5t-1.5 -54.5v-967q0 -79 -13 -149.5t-47.5 -140.5t-87.5 -120.5t-139 -82t-196 -31.5q-122 0 -216 31.5
t-150 81.5t-91.5 121t-48 140.5t-12.5 149.5v967q0 35 -1.5 54.5t-9 38.5t-20 27.5t-37.5 15.5t-58 9t-85 2v41h496v-41q-52 0 -85 -2t-58 -9t-37.5 -15.5t-20 -27.5t-9 -38.5t-1.5 -54.5v-967q0 -463 444 -463q197 0 309.5 116.5t112.5 346.5v967z" />
    <glyph glyph-name="umacron" unicode="&#x16b;" horiz-adv-x="847" 
d="M199 1485h450v-62h-450v62zM612 -20v159h-6q-122 -180 -254 -180q-190 0 -190 264v654q0 90 -7 106q-11 25 -56 12q-17 -4 -44 -14l-14 37l139 55l35 12l21 -20v-842q0 -192 126 -192q111 0 250 170v676v15q0 35 -0.5 49t-3.5 31.5t-9 21t-18.5 6t-29.5 -3t-45 -15.5
l-14 37l139 55l35 12l20 -20v-897q0 -90 7 -107q11 -25 56 -12q17 4 44 14l14 -36l-139 -56l-35 -12z" />
    <glyph glyph-name="Uring" unicode="&#x16e;" horiz-adv-x="1505" 
d="M770 1804q-83 0 -139 58.5t-56 136.5t56 135t139 57t138 -57t55 -135q0 -79 -55 -137t-138 -58zM770 1866q62 0 96.5 39.5t34.5 93.5q0 52 -34.5 91.5t-96.5 39.5q-63 0 -98 -39.5t-35 -91.5q0 -54 34.5 -93.5t98.5 -39.5zM1192 1450q0 35 -1.5 54.5t-9 38.5t-20 27.5
t-37.5 15.5t-58 9t-85 2v41h483v-41q-52 0 -85 -2t-58 -9t-37.5 -15.5t-20 -27.5t-9 -38.5t-1.5 -54.5v-967q0 -79 -13 -149.5t-47.5 -140.5t-87.5 -120.5t-139 -82t-196 -31.5q-122 0 -216 31.5t-150 81.5t-91.5 121t-48 140.5t-12.5 149.5v967q0 35 -1.5 54.5t-9 38.5
t-20 27.5t-37.5 15.5t-58 9t-85 2v41h496v-41q-52 0 -85 -2t-58 -9t-37.5 -15.5t-20 -27.5t-9 -38.5t-1.5 -54.5v-967q0 -463 444 -463q197 0 309.5 116.5t112.5 346.5v967z" />
    <glyph glyph-name="uring" unicode="&#x16f;" horiz-adv-x="847" 
d="M424 1292q-83 0 -139 58.5t-56 136.5t56 135t139 57t137.5 -57t54.5 -135q0 -79 -54.5 -137t-137.5 -58zM424 1354q62 0 96.5 39.5t34.5 93.5q0 52 -34.5 91.5t-96.5 39.5q-63 0 -98 -39.5t-35 -91.5q0 -54 34.5 -93.5t98.5 -39.5zM612 -20v159h-6q-122 -180 -254 -180
q-190 0 -190 264v654q0 90 -7 106q-11 25 -56 12q-17 -4 -44 -14l-14 37l139 55l35 12l21 -20v-842q0 -192 126 -192q111 0 250 170v676v15q0 35 -0.5 49t-3.5 31.5t-9 21t-18.5 6t-29.5 -3t-45 -15.5l-14 37l139 55l35 12l20 -20v-897q0 -90 7 -107q11 -25 56 -12
q17 4 44 14l14 -36l-139 -56l-35 -12z" />
    <glyph glyph-name="Uhungarumlaut" unicode="&#x170;" horiz-adv-x="1505" 
d="M598 1790l117 360h123l-179 -360h-61zM803 1790l117 360h122l-178 -360h-61zM1192 1450q0 35 -1.5 54.5t-9 38.5t-20 27.5t-37.5 15.5t-58 9t-85 2v41h483v-41q-52 0 -85 -2t-58 -9t-37.5 -15.5t-20 -27.5t-9 -38.5t-1.5 -54.5v-967q0 -79 -13 -149.5t-47.5 -140.5
t-87.5 -120.5t-139 -82t-196 -31.5q-122 0 -216 31.5t-150 81.5t-91.5 121t-48 140.5t-12.5 149.5v967q0 35 -1.5 54.5t-9 38.5t-20 27.5t-37.5 15.5t-58 9t-85 2v41h496v-41q-52 0 -85 -2t-58 -9t-37.5 -15.5t-20 -27.5t-9 -38.5t-1.5 -54.5v-967q0 -463 444 -463
q197 0 309.5 116.5t112.5 346.5v967z" />
    <glyph glyph-name="uhungarumlaut" unicode="&#x171;" horiz-adv-x="847" 
d="M252 1278l117 360h123l-179 -360h-61zM457 1278l116 360h123l-178 -360h-61zM612 -20v159h-6q-122 -180 -254 -180q-190 0 -190 264v654q0 90 -7 106q-11 25 -56 12q-17 -4 -44 -14l-14 37l139 55l35 12l21 -20v-842q0 -192 126 -192q111 0 250 170v676v15q0 35 -0.5 49
t-3.5 31.5t-9 21t-18.5 6t-29.5 -3t-45 -15.5l-14 37l139 55l35 12l20 -20v-897q0 -90 7 -107q11 -25 56 -12q17 4 44 14l14 -36l-139 -56l-35 -12z" />
    <glyph glyph-name="Uogonek" unicode="&#x172;" horiz-adv-x="1505" 
d="M1464 1638v-41q-52 0 -85 -2t-58 -9t-37.5 -15.5t-20 -27.5t-9 -38.5t-1.5 -54.5v-967q0 -83 -15.5 -157t-50.5 -144.5t-99.5 -123.5t-153.5 -78q-22 -22 -59 -44t-69 -40t-62 -41.5t-48 -60t-18 -85.5q0 -62 39 -100.5t110 -38.5q69 0 160 47l12 -41q-96 -68 -198 -68
q-90 0 -147.5 53t-57.5 140q0 44 14 81t34.5 60t52 43.5t56.5 31.5t59.5 25.5t51.5 22.5q-44 -6 -94 -6q-122 0 -216 31.5t-150 81.5t-91.5 121t-48 140.5t-12.5 149.5v967q0 35 -1.5 54.5t-9 38.5t-20 27.5t-37.5 15.5t-58 9t-85 2v41h496v-41q-52 0 -85 -2t-58 -9
t-37.5 -15.5t-20 -27.5t-9 -38.5t-1.5 -54.5v-967q0 -463 444 -463q197 0 309.5 116.5t112.5 346.5v967q0 35 -1.5 54.5t-9 38.5t-20 27.5t-37.5 15.5t-58 9t-85 2v41h483z" />
    <glyph glyph-name="uogonek" unicode="&#x173;" horiz-adv-x="847" 
d="M551 -430q69 0 160 47l12 -41q-96 -68 -199 -68q-90 0 -147.5 53t-57.5 140q0 58 22 101.5t58.5 69.5t73 43.5t78.5 34.5t61 30v159h-6q-122 -180 -254 -180q-190 0 -190 264v654q0 90 -7 106q-11 25 -56 12q-17 -4 -44 -14l-14 37l139 55l35 12l21 -20v-842
q0 -192 126 -192q111 0 250 170v676v15q0 35 -0.5 49t-3.5 31.5t-9 21t-18.5 6t-29.5 -3t-45 -15.5l-14 37l139 55l35 12l20 -20v-897q0 -90 7 -107q11 -25 56 -12q17 4 44 14l14 -36l-139 -56l-33 -12q-22 -17 -58.5 -37t-63.5 -36.5t-54.5 -39.5t-42.5 -57.5t-15 -79.5
q0 -62 39.5 -100.5t110.5 -38.5z" />
    <glyph glyph-name="Wcircumflex" unicode="&#x174;" horiz-adv-x="1646" 
d="M823 2058l-178 -268h-61l178 360h123l178 -360h-62zM1626 1638v-41q-88 0 -119 -25.5t-53 -117.5l-354 -1501h-41l-225 952l-242 -952h-35l-362 1503q-23 90 -55 115.5t-120 25.5v41h424v-41q-143 0 -168.5 -25t3.5 -116l305 -1263h6l215 839l-100 422
q-22 92 -53.5 117.5t-119.5 25.5v41h424v-41q-144 0 -169.5 -25.5t1.5 -117.5l299 -1261h7l297 1261q27 92 1.5 117.5t-169.5 25.5v41h403z" />
    <glyph glyph-name="wcircumflex" unicode="&#x175;" horiz-adv-x="1302" 
d="M623 1546l-179 -268h-61l178 360h123l178 -360h-61zM1282 1065v-41q-63 0 -90 -25.5t-51 -113.5l-267 -932h-40l-162 563l-162 -563h-41l-301 932q-27 87 -56 113t-92 26v41h332v-41q-102 0 -116.5 -25t18.5 -114l240 -744h6l141 488l-74 256q-24 88 -51 113.5t-90 25.5
v41h315v-41q-92 0 -105 -25t15 -114l211 -735h6l209 735q30 89 14 114t-118 25v41h309z" />
    <glyph glyph-name="Ycircumflex" unicode="&#x176;" horiz-adv-x="1241" 
d="M641 2058l-178 -268h-62l179 360h122l179 -360h-62zM1221 1638v-41q-91 0 -130.5 -23.5t-76.5 -107.5l-336 -745v-533q0 -35 1.5 -54.5t9 -38.5t20 -27.5t37.5 -15.5t58 -9t85 -2v-41h-496v41q52 0 85 2t58 9t37.5 15.5t20 27.5t9 38.5t1.5 54.5v533l-371 749
q-40 81 -81 104t-132 23v41h435v-41q-142 0 -159 -22t30 -107l321 -653h6l291 651q33 74 33 91q0 26 -43 34q-33 6 -123 6v41h410z" />
    <glyph glyph-name="ycircumflex" unicode="&#x177;" horiz-adv-x="897" 
d="M461 1546l-178 -268h-62l178 360h123l178 -360h-61zM856 1065v-41q-62 0 -87 -25.5t-48 -115.5l-209 -846q-52 -211 -67 -258q-66 -207 -166 -255q-34 -16 -74 -16q-62 0 -106 32t-44 81q0 27 18.5 46.5t49.5 19.5q47 0 70 -56q10 -23 20 -32t31 -9q58 0 103 98.5
t91 311.5l-256 885q-24 88 -51 113.5t-90 25.5v41h332v-41q-102 0 -118 -25t13 -114l209 -731l180 729q27 91 9.5 116t-119.5 25v41h309z" />
    <glyph glyph-name="Ydieresis" unicode="&#x178;" horiz-adv-x="1241" 
d="M477 1884q-34 0 -58 24t-24 58t24 58t58 24t58 -24t24 -58t-24 -58t-58 -24zM805 1884q-34 0 -58 24t-24 58t24 58t58 24t58 -24t24 -58t-24 -58t-58 -24zM678 188q0 -35 1.5 -54.5t9 -38.5t20 -27.5t37.5 -15.5t58 -9t85 -2v-41h-496v41q52 0 85 2t58 9t37.5 15.5
t20 27.5t9 38.5t1.5 54.5v533l-371 749q-40 81 -81 104t-132 23v41h435v-41q-142 0 -159 -22t30 -107l321 -653h6l291 651q33 74 33 91q0 26 -43 34q-33 6 -123 6v41h410v-41q-91 0 -130.5 -23.5t-76.5 -107.5l-336 -745v-533z" />
    <glyph glyph-name="Zacute" unicode="&#x179;" horiz-adv-x="1028" 
d="M465 1790l137 360h143l-219 -360h-61zM950 1638l-786 -1577h557q42 0 65 6t45 23.5t36.5 59t28 101t30.5 161.5l41 -6l-64 -377l-4 -29h-838v41l766 1536h-503q-35 0 -54.5 -2t-39 -12t-28.5 -26t-17.5 -48.5t-11.5 -75.5t-5 -110h-41l8 301l2 34h813z" />
    <glyph glyph-name="zacute" unicode="&#x17a;" horiz-adv-x="776" 
d="M338 1278l137 360h143l-219 -360h-61zM526 61q41 0 64 5t41.5 18t26.5 44t12 74.5t4 116.5h41v-319h-654v41l547 963h-317q-41 0 -64 -4t-41.5 -15.5t-26.5 -37.5t-12 -63.5t-4 -99.5h-41v281h613v-41l-547 -963h358z" />
    <glyph glyph-name="Zdotaccent" unicode="&#x17b;" horiz-adv-x="1028" 
d="M535 1884q-34 0 -58 24t-24 58t24 58t58 24t57.5 -24t23.5 -58t-23.5 -58t-57.5 -24zM950 1638l-786 -1577h557q42 0 65 6t45 23.5t36.5 59t28 101t30.5 161.5l41 -6l-64 -377l-4 -29h-838v41l766 1536h-503q-35 0 -54.5 -2t-39 -12t-28.5 -26t-17.5 -48.5t-11.5 -75.5
t-5 -110h-41l8 301l2 34h813z" />
    <glyph glyph-name="zdotaccent" unicode="&#x17c;" horiz-adv-x="776" 
d="M408 1372q-34 0 -58 24t-24 58t24 58t58 24t57.5 -24t23.5 -58t-23.5 -58t-57.5 -24zM526 61q41 0 64 5t41.5 18t26.5 44t12 74.5t4 116.5h41v-319h-654v41l547 963h-317q-41 0 -64 -4t-41.5 -15.5t-26.5 -37.5t-12 -63.5t-4 -99.5h-41v281h613v-41l-547 -963h358z" />
    <glyph glyph-name="Zcaron" unicode="&#x17d;" horiz-adv-x="1028" 
d="M596 1790h-123l-178 360h61l179 -268l178 268h61zM926 412l41 -6l-64 -377l-4 -29h-838v41l766 1536h-503q-35 0 -54.5 -2t-39 -12t-28.5 -26t-17.5 -48.5t-11.5 -75.5t-5 -110h-41l8 301l2 34h813l-786 -1577h557q42 0 65 6t45 23.5t36.5 59t28 101t30.5 161.5z" />
    <glyph glyph-name="zcaron" unicode="&#x17e;" horiz-adv-x="776" 
d="M469 1278h-123l-178 360h61l179 -268l178 268h61zM715 1065v-41l-547 -963h358q41 0 64 5t41.5 18t26.5 44t12 74.5t4 116.5h41v-319h-654v41l547 963h-317q-41 0 -64 -4t-41.5 -15.5t-26.5 -37.5t-12 -63.5t-4 -99.5h-41v281h613z" />
    <glyph glyph-name="uni0218" unicode="&#x218;" horiz-adv-x="1064" 
d="M125 0v582h41q0 -127 33 -234t87.5 -178t124.5 -110.5t146 -39.5q141 0 222 88.5t81 233.5q0 31 -7 61.5t-15.5 56.5t-28.5 57.5t-34 53t-45 54.5t-48 51t-56.5 53.5t-57.5 51t-63.5 54.5t-62.5 54q-60 54 -87 78t-70 65.5t-61 64.5t-43 58t-34 63t-16.5 63.5t-7.5 74.5
q0 149 98 236t256 87q77 0 141.5 -25.5t98 -56t60.5 -56t38 -25.5q9 0 14 6.5t9 34t4 81.5h41v-473h-41q0 195 -104.5 324t-262.5 129q-134 0 -202 -75t-68 -179q0 -47 17 -94.5t38 -82.5t64.5 -81t70 -70t82.5 -71.5t76 -65.5q21 -19 59 -53q63 -56 91.5 -82.5t72.5 -70
t63 -68.5t44 -63.5t34.5 -71t17 -74t7.5 -88.5q0 -114 -54.5 -200t-137 -127.5t-177.5 -41.5q-67 0 -124 17t-92.5 41t-62.5 48t-48.5 41t-36.5 17q-25 0 -34 -27t-9 -96h-41zM489 -315q-26 0 -41.5 21t-15.5 52q0 36 25 59t61 23q51 0 82 -33t31 -100q0 -65 -44.5 -117.5
t-144.5 -78.5v40q47 12 89 46.5t42 74.5q0 33 -20 33q-6 0 -25.5 -10t-38.5 -10z" />
    <glyph glyph-name="uni0219" unicode="&#x219;" horiz-adv-x="675" 
d="M104 -20v395h41q15 -161 79.5 -258t164.5 -97q73 0 108 47.5t35 131.5q0 43 -12.5 84t-29.5 71.5t-49.5 68.5t-57.5 62.5t-69 65.5q-9 8 -13 12q-50 46 -79.5 76.5t-60.5 72t-45 84t-14 89.5q0 94 60.5 157.5t152.5 63.5q43 0 78 -13t53 -28t34.5 -28t25.5 -13
q14 0 17 12.5t3 48.5h41v-321h-41q-16 125 -67.5 202.5t-136.5 77.5q-71 0 -104.5 -45.5t-33.5 -97.5q0 -44 15.5 -85.5t48.5 -82.5t62.5 -70.5t78.5 -72.5q130 -117 177.5 -196t47.5 -191q0 -116 -63 -180t-156 -64q-45 0 -84.5 13t-61.5 28t-42.5 28t-32.5 13
q-17 0 -23 -14.5t-6 -46.5h-41zM346 -315q-26 0 -41.5 21t-15.5 52q0 36 25 59t61 23q50 0 81 -33t31 -100q0 -65 -44 -117.5t-144 -78.5v40q47 12 89 46.5t42 74.5q0 33 -20 33q-6 0 -25.5 -10t-38.5 -10z" />
    <glyph glyph-name="uni021A" unicode="&#x21a;" horiz-adv-x="1204" 
d="M1112 1606l31 -322l-41 -4q-8 87 -17 137.5t-20 85.5t-31.5 49.5t-43 19.5t-64.5 5h-287v-1389q0 -35 1.5 -54.5t9 -38.5t20 -27.5t37.5 -15.5t58 -9t85 -2v-41h-496v41q52 0 85 2t58 9t37.5 15.5t20 27.5t9 38.5t1.5 54.5v1389h-286q-35 0 -55 -2.5t-40 -13.5
t-30.5 -28.5t-21 -53t-17 -81.5t-13.5 -118l-41 4l31 322l4 32h1012zM598 -160q51 0 82 -33t31 -100q0 -65 -44.5 -117.5t-144.5 -78.5v40q47 12 89 46.5t42 74.5q0 33 -20 33q-6 0 -25.5 -10t-38.5 -10q-26 0 -41.5 21t-15.5 52q0 36 25 59t61 23z" />
    <glyph glyph-name="uni021B" unicode="&#x21b;" horiz-adv-x="630" 
d="M549 451h41q0 -101 -5 -174t-18 -136t-35 -101.5t-57 -59.5t-84 -21q-100 0 -148 84.5t-48 278.5v682h-175v61q123 0 165 63.5t42 229.5h41v-293h252v-61h-252v-601q0 -66 1 -105.5t5 -86.5t13 -73.5t23 -51t37 -35t54 -10.5q53 0 84.5 36t47.5 126.5t16 247.5zM324 -315
q-26 0 -42 21t-16 52q0 36 25 59t61 23q51 0 82 -33t31 -100q0 -65 -44.5 -117.5t-144.5 -78.5v40q47 12 89.5 46.5t42.5 74.5q0 33 -21 33q-6 0 -25 -10t-38 -10z" />
    <glyph glyph-name="circumflex" unicode="&#x2c6;" horiz-adv-x="643" 
d="M561 1278h-61l-178 268l-179 -268h-61l178 360h123z" />
    <glyph glyph-name="caron" unicode="&#x2c7;" horiz-adv-x="643" 
d="M500 1638h61l-178 -360h-123l-178 360h61l179 -268z" />
    <glyph glyph-name="breve" unicode="&#x2d8;" horiz-adv-x="675" 
d="M573 1577q0 -96 -61.5 -155.5t-173.5 -59.5t-174 60t-62 155h41q0 -133 195 -133q194 0 194 133h41z" />
    <glyph glyph-name="dotaccent" unicode="&#x2d9;" horiz-adv-x="368" 
d="M184 1372q-34 0 -58 24t-24 58t24 58t58 24t58 -24t24 -58t-24 -58t-58 -24z" />
    <glyph glyph-name="ring" unicode="&#x2da;" horiz-adv-x="591" 
d="M297 1292q-83 0 -139 58.5t-56 136.5t56 135t139 57t137.5 -57t54.5 -135q0 -79 -54.5 -137t-137.5 -58zM297 1354q62 0 96.5 39.5t34.5 93.5q0 52 -34.5 91.5t-96.5 39.5q-63 0 -98 -39.5t-35 -91.5q0 -54 34.5 -93.5t98.5 -39.5z" />
    <glyph glyph-name="ogonek" unicode="&#x2db;" horiz-adv-x="608" 
d="M461 -20q-22 -22 -59 -44t-69 -40t-62 -41.5t-48 -60t-18 -85.5q0 -62 39 -100.5t110 -38.5q69 0 160 47l12 -41q-96 -68 -198 -68q-90 0 -147.5 53t-57.5 140q0 58 22 101.5t58.5 69.5t73 43.5t78.5 34.5t61 30h45z" />
    <glyph glyph-name="tilde" unicode="&#x2dc;" horiz-adv-x="757" 
d="M518 1378q-41 0 -82 21t-68.5 45.5t-64 45.5t-70.5 21q-46 0 -66.5 -33t-23.5 -100h-41q3 106 35 160.5t103 54.5q41 0 81.5 -21t68 -45.5t64 -45.5t70.5 -21q46 0 66.5 33t23.5 100h41q-3 -107 -34.5 -161t-102.5 -54z" />
    <glyph glyph-name="hungarumlaut" unicode="&#x2dd;" horiz-adv-x="649" 
d="M102 1278l117 360h123l-178 -360h-62zM307 1278l117 360h123l-178 -360h-62z" />
    <glyph glyph-name="gravecomb" unicode="&#x300;" horiz-adv-x="0" 
d="M-82 1278h-61l-219 360h143z" />
    <glyph glyph-name="acutecomb" unicode="&#x301;" horiz-adv-x="0" 
d="M-362 1278l137 360h143l-219 -360h-61z" />
    <glyph glyph-name="uni0302" unicode="&#x302;" horiz-adv-x="0" 
d="M-102 1278h-62l-178 268l-178 -268h-62l179 360h122z" />
    <glyph glyph-name="tildecomb" unicode="&#x303;" horiz-adv-x="0" 
d="M-240 1378q-41 0 -81.5 21t-68 45.5t-64 45.5t-70.5 21q-46 0 -66.5 -33t-23.5 -100h-41q3 107 34.5 161t102.5 54q41 0 82 -21t68.5 -45.5t64 -45.5t70.5 -21q46 0 66.5 33t23.5 100h41q-3 -106 -35 -160.5t-103 -54.5z" />
    <glyph glyph-name="uni0304" unicode="&#x304;" horiz-adv-x="0" 
d="M-553 1485h451v-62h-451v62z" />
    <glyph glyph-name="uni0306" unicode="&#x306;" horiz-adv-x="0" 
d="M-102 1577q0 -95 -62 -155t-174 -60t-173.5 59.5t-61.5 155.5h41q0 -133 194 -133q195 0 195 133h41z" />
    <glyph glyph-name="uni0307" unicode="&#x307;" horiz-adv-x="0" 
d="M-184 1372q-34 0 -58 24t-24 58t24 58t58 24t58 -24t24 -58t-24 -58t-58 -24z" />
    <glyph glyph-name="uni0308" unicode="&#x308;" horiz-adv-x="0" 
d="M-512 1372q-34 0 -58 24t-24 58t24 58t58 24t58 -24t24 -58t-24 -58t-58 -24zM-184 1372q-34 0 -58 24t-24 58t24 58t58 24t58 -24t24 -58t-24 -58t-58 -24z" />
    <glyph glyph-name="uni030A" unicode="&#x30a;" horiz-adv-x="0" 
d="M-295 1292q-83 0 -138.5 58t-55.5 137q0 78 55.5 135t138.5 57t138 -57t55 -135q0 -79 -55 -137t-138 -58zM-295 1354q62 0 96.5 39.5t34.5 93.5q0 52 -34.5 91.5t-96.5 39.5q-63 0 -98 -39.5t-35 -91.5q0 -54 34.5 -93.5t98.5 -39.5z" />
    <glyph glyph-name="uni030B" unicode="&#x30b;" horiz-adv-x="0" 
d="M-485 1278l116 360h123l-178 -360h-61zM-281 1278l117 360h123l-178 -360h-62z" />
    <glyph glyph-name="uni030C" unicode="&#x30c;" horiz-adv-x="0" 
d="M-143 1638h61l-178 -360h-123l-178 360h61l178 -268z" />
    <glyph glyph-name="uni0312" unicode="&#x312;" horiz-adv-x="0" 
d="M-160 1522q26 0 42 -21.5t16 -52.5q0 -36 -25 -59t-61 -23q-51 0 -82 33t-31 100q0 66 44 118.5t144 78.5v-41q-47 -12 -89 -46.5t-42 -74.5q0 -33 21 -33q6 0 25 10.5t38 10.5z" />
    <glyph glyph-name="uni0326" unicode="&#x326;" horiz-adv-x="0" 
d="M-244 -315q-26 0 -41.5 21t-15.5 52q0 36 25 59t61 23q51 0 82 -33t31 -100q0 -65 -44.5 -117.5t-144.5 -78.5v40q47 12 89 46.5t42 74.5q0 33 -20 33q-6 0 -25.5 -10t-38.5 -10z" />
    <glyph glyph-name="uni0327" unicode="&#x327;" horiz-adv-x="0" 
d="M-383 -141l168 161h61l-114 -129q71 -6 118.5 -47.5t47.5 -101.5q0 -84 -57.5 -140.5t-148 -77.5t-198.5 -9l12 41q88 -4 156 11.5t111 57t43 105.5q0 76 -50 101.5t-149 27.5z" />
    <glyph glyph-name="uni0328" unicode="&#x328;" horiz-adv-x="0" 
d="M-147 -20q-22 -22 -59 -44t-69 -40t-62 -41.5t-48 -60t-18 -85.5q0 -62 39 -100.5t110 -38.5q69 0 160 47l12 -41q-96 -68 -199 -68q-90 0 -147 53t-57 140q0 58 21.5 101.5t58.5 69.5t73 43.5t78 34.5t61 30h46z" />
    <glyph glyph-name="Wgrave" unicode="&#x1e80;" horiz-adv-x="1646" 
d="M911 1790h-61l-219 360h143zM1626 1638v-41q-88 0 -119 -25.5t-53 -117.5l-354 -1501h-41l-225 952l-242 -952h-35l-362 1503q-23 90 -55 115.5t-120 25.5v41h424v-41q-143 0 -168.5 -25t3.5 -116l305 -1263h6l215 839l-100 422q-22 92 -53.5 117.5t-119.5 25.5v41h424
v-41q-144 0 -169.5 -25.5t1.5 -117.5l299 -1261h7l297 1261q27 92 1.5 117.5t-169.5 25.5v41h403z" />
    <glyph glyph-name="wgrave" unicode="&#x1e81;" horiz-adv-x="1302" 
d="M711 1278h-62l-219 360h143zM1282 1065v-41q-63 0 -90 -25.5t-51 -113.5l-267 -932h-40l-162 563l-162 -563h-41l-301 932q-27 87 -56 113t-92 26v41h332v-41q-102 0 -116.5 -25t18.5 -114l240 -744h6l141 488l-74 256q-24 88 -51 113.5t-90 25.5v41h315v-41
q-92 0 -105 -25t15 -114l211 -735h6l209 735q30 89 14 114t-118 25v41h309z" />
    <glyph glyph-name="Wacute" unicode="&#x1e82;" horiz-adv-x="1646" 
d="M1034 2150l-219 -360h-61l137 360h143zM1626 1638v-41q-88 0 -119 -25.5t-53 -117.5l-354 -1501h-41l-225 952l-242 -952h-35l-362 1503q-23 90 -55 115.5t-120 25.5v41h424v-41q-143 0 -168.5 -25t3.5 -116l305 -1263h6l215 839l-100 422q-22 92 -53.5 117.5
t-119.5 25.5v41h424v-41q-144 0 -169.5 -25.5t1.5 -117.5l299 -1261h7l297 1261q27 92 1.5 117.5t-169.5 25.5v41h403z" />
    <glyph glyph-name="wacute" unicode="&#x1e83;" horiz-adv-x="1302" 
d="M834 1638l-220 -360h-61l137 360h144zM1282 1065v-41q-63 0 -90 -25.5t-51 -113.5l-267 -932h-40l-162 563l-162 -563h-41l-301 932q-27 87 -56 113t-92 26v41h332v-41q-102 0 -116.5 -25t18.5 -114l240 -744h6l141 488l-74 256q-24 88 -51 113.5t-90 25.5v41h315v-41
q-92 0 -105 -25t15 -114l211 -735h6l209 735q30 89 14 114t-118 25v41h309z" />
    <glyph glyph-name="Wdieresis" unicode="&#x1e84;" horiz-adv-x="1646" 
d="M659 1884q-34 0 -57.5 24t-23.5 58t23.5 58t57.5 24t58 -24t24 -58t-24 -58t-58 -24zM987 1884q-34 0 -58 24t-24 58t24 58t58 24t58 -24t24 -58t-24 -58t-58 -24zM1626 1638v-41q-88 0 -119 -25.5t-53 -117.5l-354 -1501h-41l-225 952l-242 -952h-35l-362 1503
q-23 90 -55 115.5t-120 25.5v41h424v-41q-143 0 -168.5 -25t3.5 -116l305 -1263h6l215 839l-100 422q-22 92 -53.5 117.5t-119.5 25.5v41h424v-41q-144 0 -169.5 -25.5t1.5 -117.5l299 -1261h7l297 1261q27 92 1.5 117.5t-169.5 25.5v41h403z" />
    <glyph glyph-name="wdieresis" unicode="&#x1e85;" horiz-adv-x="1302" 
d="M459 1372q-34 0 -58 24t-24 58t24 58t58 24t58 -24t24 -58t-24 -58t-58 -24zM786 1372q-34 0 -57.5 24t-23.5 58t23.5 58t57.5 24t58 -24t24 -58t-24 -58t-58 -24zM1282 1065v-41q-63 0 -90 -25.5t-51 -113.5l-267 -932h-40l-162 563l-162 -563h-41l-301 932
q-27 87 -56 113t-92 26v41h332v-41q-102 0 -116.5 -25t18.5 -114l240 -744h6l141 488l-74 256q-24 88 -51 113.5t-90 25.5v41h315v-41q-92 0 -105 -25t15 -114l211 -735h6l209 735q30 89 14 114t-118 25v41h309z" />
    <glyph glyph-name="Ygrave" unicode="&#x1ef2;" horiz-adv-x="1241" 
d="M729 1790h-61l-219 360h143zM678 188q0 -35 1.5 -54.5t9 -38.5t20 -27.5t37.5 -15.5t58 -9t85 -2v-41h-496v41q52 0 85 2t58 9t37.5 15.5t20 27.5t9 38.5t1.5 54.5v533l-371 749q-40 81 -81 104t-132 23v41h435v-41q-142 0 -159 -22t30 -107l321 -653h6l291 651
q33 74 33 91q0 26 -43 34q-33 6 -123 6v41h410v-41q-91 0 -130.5 -23.5t-76.5 -107.5l-336 -745v-533z" />
    <glyph glyph-name="ygrave" unicode="&#x1ef3;" horiz-adv-x="897" 
d="M549 1278h-62l-219 360h144zM55 -379q0 27 18.5 46.5t49.5 19.5q47 0 70 -56q10 -23 20 -32t31 -9q58 0 103 98.5t91 311.5l-256 885q-24 88 -51 113.5t-90 25.5v41h332v-41q-102 0 -118 -25t13 -114l209 -731l180 729q27 91 9.5 116t-119.5 25v41h309v-41
q-62 0 -87 -25.5t-48 -115.5l-209 -846q-52 -211 -67 -258q-66 -207 -166 -255q-34 -16 -74 -16q-62 0 -106 32t-44 81z" />
    <glyph glyph-name="endash" unicode="&#x2013;" horiz-adv-x="1228" 
d="M0 512v82h1229v-82h-1229z" />
    <glyph glyph-name="emdash" unicode="&#x2014;" horiz-adv-x="2457" 
d="M0 512v82h2458v-82h-2458z" />
    <glyph glyph-name="quoteleft" unicode="&#x2018;" horiz-adv-x="399" 
d="M231 1454q28 0 47 -23t19 -53q0 -43 -25.5 -65.5t-66.5 -22.5t-72 31.5t-31 85.5q0 66 45 138t150 134v-41q-58 -37 -99.5 -86.5t-41.5 -93.5q0 -24 20 -24q5 0 20.5 10t34.5 10z" />
    <glyph glyph-name="quoteright" unicode="&#x2019;" horiz-adv-x="399" 
d="M168 1516q-28 0 -47 22.5t-19 52.5q0 43 25.5 65.5t67.5 22.5q41 0 71.5 -31t30.5 -85q0 -41 -15.5 -83.5t-61.5 -95t-118 -94.5v41q58 38 100 87t42 93q0 25 -21 25q-5 0 -20.5 -10t-34.5 -10z" />
    <glyph glyph-name="quotesinglbase" unicode="&#x201a;" horiz-adv-x="399" 
d="M168 -41q-28 0 -47 23t-19 53q0 43 25.5 65.5t67.5 22.5q41 0 71.5 -31.5t30.5 -85.5q0 -66 -45 -138t-150 -134v41q58 38 100 87t42 93q0 25 -21 25q-5 0 -20.5 -10.5t-34.5 -10.5z" />
    <glyph glyph-name="quotedblleft" unicode="&#x201c;" horiz-adv-x="698" 
d="M231 1454q28 0 47 -23t19 -53q0 -43 -25.5 -65.5t-66.5 -22.5t-72 31.5t-31 85.5q0 66 45 138t150 134v-41q-58 -37 -99.5 -86.5t-41.5 -93.5q0 -24 20 -24q5 0 20.5 10t34.5 10zM530 1454q28 0 47 -23t19 -53q0 -43 -25.5 -65.5t-66.5 -22.5t-72 31.5t-31 85.5
q0 66 45 138t150 134v-41q-58 -37 -99.5 -86.5t-41.5 -93.5q0 -24 20 -24q5 0 20.5 10t34.5 10z" />
    <glyph glyph-name="quotedblright" unicode="&#x201d;" horiz-adv-x="698" 
d="M168 1516q-28 0 -47 22.5t-19 52.5q0 43 25.5 65.5t67.5 22.5q41 0 71.5 -31t30.5 -85q0 -41 -15.5 -83.5t-61.5 -95t-118 -94.5v41q58 38 100 87t42 93q0 25 -21 25q-5 0 -20.5 -10t-34.5 -10zM467 1516q-28 0 -47 22.5t-19 52.5q0 43 25.5 65.5t67.5 22.5
q41 0 71.5 -31t30.5 -85q0 -41 -15.5 -83.5t-61.5 -95t-118 -94.5v41q58 38 100 87t42 93q0 25 -21 25q-5 0 -20.5 -10t-34.5 -10z" />
    <glyph glyph-name="quotedblbase" unicode="&#x201e;" horiz-adv-x="698" 
d="M168 -41q-28 0 -47 23t-19 53q0 43 25.5 65.5t67.5 22.5q41 0 71.5 -31.5t30.5 -85.5q0 -66 -45 -138t-150 -134v41q58 38 100 87t42 93q0 25 -21 25q-5 0 -20.5 -10.5t-34.5 -10.5zM467 -41q-28 0 -47 23t-19 53q0 43 25.5 65.5t67.5 22.5q41 0 71.5 -31.5t30.5 -85.5
q0 -66 -45 -138t-150 -134v41q58 38 100 87t42 93q0 25 -21 25q-5 0 -20.5 -10.5t-34.5 -10.5z" />
    <glyph glyph-name="dagger" unicode="&#x2020;" horiz-adv-x="860" 
d="M684 1393q34 0 54 -16t20 -46q0 -61 -74 -61q-22 0 -94 24t-148 25q1 -73 17 -127.5t53 -114.5q-38 -102 -49.5 -259t-11.5 -484v-826h-41v826q0 324 -12 482t-50 261q38 62 55.5 116.5t18.5 125.5q-79 -1 -151.5 -25t-94.5 -24q-74 0 -74 61q0 30 20 46t54 16
q23 0 56 -13t81.5 -26.5t108.5 -14.5q-1 76 -27 154t-26 113q0 73 61 73q62 0 62 -73q0 -35 -24.5 -113t-25.5 -154q58 1 105.5 14.5t80 26.5t56.5 13z" />
    <glyph glyph-name="daggerdbl" unicode="&#x2021;" horiz-adv-x="860" 
d="M684 0q74 0 74 -61q0 -30 -20 -46t-54 -16q-22 0 -94 26t-148 27q1 -76 25.5 -153.5t24.5 -112.5q0 -34 -16 -54t-46 -20q-61 0 -61 74q0 35 26 112.5t27 153.5q-60 -1 -108.5 -14t-81.5 -26t-56 -13q-34 0 -54 16t-20 46q0 61 74 61q22 0 94.5 -24t151.5 -25
q-1 66 -13.5 117.5t-39.5 124.5q51 190 51 442t-51 442q18 49 27 78.5t17 73.5t9 90q-79 -1 -151.5 -25t-94.5 -24q-74 0 -74 61q0 30 20 46t54 16q23 0 56 -13t81.5 -26.5t108.5 -14.5q-1 76 -27 154t-26 113q0 73 61 73q62 0 62 -73q0 -35 -24.5 -113t-25.5 -154
q58 1 105.5 14.5t80 26.5t56.5 13q34 0 54 -16t20 -46q0 -61 -74 -61q-22 0 -94 24t-148 25q2 -110 50 -242q-52 -194 -52 -442t52 -442q-48 -132 -50 -242q76 1 148 25t94 24z" />
    <glyph glyph-name="bullet" unicode="&#x2022;" horiz-adv-x="614" 
d="M307 569q-85 0 -145 60t-60 145t60 145t145 60t145 -60t60 -145t-60 -145t-145 -60z" />
    <glyph glyph-name="ellipsis" unicode="&#x2026;" horiz-adv-x="1228" 
d="M184 -41q-34 0 -58 24t-24 58t24 58t58 24t58 -24t24 -58t-24 -58t-58 -24zM614 -41q-34 0 -58 24t-24 58t24 58t58 24t58 -24t24 -58t-24 -58t-58 -24zM1044 -41q-34 0 -57.5 24t-23.5 58t23.5 58t57.5 24t58 -24t24 -58t-24 -58t-58 -24z" />
    <glyph glyph-name="perthousand" unicode="&#x2030;" horiz-adv-x="1933" 
d="M344 854q-106 0 -174 119.5t-68 292.5q0 174 68 293.5t174 119.5q104 0 172 -119.5t68 -293.5q0 -173 -68 -292.5t-172 -119.5zM1141 1638h65l-1018 -1638h-65zM344 915q56 0 92.5 50t51 125.5t14.5 175.5q0 74 -8.5 135.5t-26.5 111t-49.5 77.5t-73.5 28q-57 0 -94 -50
t-51.5 -125.5t-14.5 -176.5q0 -100 14.5 -175.5t51.5 -125.5t94 -50zM987 -41q-106 0 -174 119.5t-68 292.5q0 174 68 293.5t174 119.5q104 0 172 -119.5t68 -293.5q0 -173 -68 -292.5t-172 -119.5zM1591 -41q-105 0 -173 119.5t-68 292.5q0 114 30 208t85.5 149.5
t125.5 55.5q104 0 172 -119.5t68 -293.5q0 -173 -68 -292.5t-172 -119.5zM987 20q56 0 92.5 50t51 125.5t14.5 175.5q0 74 -8.5 135.5t-26.5 111t-49.5 77.5t-73.5 28q-57 0 -94 -50t-51.5 -125.5t-14.5 -176.5q0 -100 14.5 -175.5t51.5 -125.5t94 -50zM1591 20
q56 0 92.5 50t51 125.5t14.5 175.5q0 74 -8.5 135.5t-26.5 111t-49.5 77.5t-73.5 28q-43 0 -74.5 -27.5t-49.5 -77.5t-26.5 -111t-8.5 -136q0 -74 8.5 -135t26.5 -110.5t49.5 -77.5t74.5 -28z" />
    <glyph glyph-name="guilsinglleft" unicode="&#x2039;" horiz-adv-x="536" 
d="M184 600l250 -500h-41l-291 500l291 494h41z" />
    <glyph glyph-name="guilsinglright" unicode="&#x203a;" horiz-adv-x="536" 
d="M352 600l-250 494h41l291 -494l-291 -500h-41z" />
    <glyph glyph-name="fraction" unicode="&#x2044;" horiz-adv-x="878" 
d="M915 1638h66l-1018 -1638h-65z" />
    <glyph glyph-name="Euro" unicode="&#x20ac;" horiz-adv-x="1200" 
d="M1057 580h41q-45 -621 -398 -621q-137 0 -241 100.5t-160.5 267t-69.5 380.5h-127l21 61h102v51q0 47 2 72h-125l21 61h106q16 207 76 370t163.5 260t233.5 97q187 0 334 -204v-379h-41q-3 255 -81 388.5t-205 133.5q-111 0 -198 -88.5t-136.5 -237.5t-63.5 -340h500
l-20 -61h-482q-2 -25 -2 -72v-51h443l-21 -61h-418q12 -195 61.5 -349t137.5 -246t201 -92q154 0 241 149.5t105 410.5z" />
    <glyph glyph-name="trademark" unicode="&#x2122;" horiz-adv-x="2181" 
d="M270 1577q-52 0 -77.5 -5t-46 -28t-29 -63t-15.5 -117l-41 4l23 229l4 41h766l4 -41l23 -229l-41 -4q-7 77 -15.5 117t-29 63t-46 28t-77.5 5h-160v-651q0 -53 3 -77t18.5 -43t43.5 -23.5t82 -4.5v-41h-376v41q54 0 82 4.5t43.5 23.5t18.5 43t3 77v651h-160zM1534 844h6
l336 794h244v-41q-54 0 -82 -4.5t-44 -23t-19 -43t-3 -76.5v-524q0 -52 3 -76.5t19 -43.5t44 -23.5t82 -4.5v-41h-377v41q54 0 82 4.5t43.5 23.5t18.5 43t3 77v573h-6l-340 -803h-41l-319 803h-6l4 -573q0 -53 3 -77t18.5 -43t43.5 -23.5t82 -4.5v-41h-356v41q54 0 82 4.5
t43.5 23.5t18.5 43t3 77v524q0 53 -3 77t-18.5 42.5t-43.5 23t-82 4.5v41h246z" />
    <glyph glyph-name="oneeighth" unicode="&#x215b;" horiz-adv-x="1587" 
d="M250 784v746q0 53 -6 60q-10 10 -63 -23q-10 -6 -23 -15l-15 21l123 80l21 14l14 -12v-871q0 -57 15 -72.5t75 -15.5v-24h-231v24q60 0 75 15.5t15 72.5zM1184 1638h65l-1018 -1638h-65zM1237 549q207 -156 207 -324q0 -109 -70 -177t-180 -68q-118 0 -185 69t-67 168
q0 160 217 324q-98 79 -143 139t-45 129q0 87 64 145t163 58q100 0 158.5 -58.5t58.5 -142.5q0 -74 -41 -126.5t-143 -131.5zM1028 809q0 -55 38.5 -106.5t137.5 -127.5q94 71 128 122.5t34 113.5q0 68 -46 116t-122 48t-123 -46.5t-47 -119.5zM1198 16q87 0 137.5 55.5
t50.5 153.5q0 76 -49.5 145.5t-148.5 147.5q-195 -153 -195 -301q0 -81 56 -141t149 -60z" />
    <glyph glyph-name="threeeighths" unicode="&#x215c;" horiz-adv-x="1769" 
d="M641 922q0 -127 -89.5 -209t-219.5 -82q-67 0 -121.5 21t-54.5 50q0 27 32 27q23 0 54 -27q40 -34 114 -34q42 0 81 13.5t72.5 41t54 75t20.5 109.5q0 71 -24 123t-65 79t-87 39.5t-99 12.5v25q232 74 232 260q0 70 -40.5 119t-117.5 49q-88 0 -133.5 -45t-65.5 -119h-28
q17 105 80 159t155 54q90 0 148.5 -59.5t58.5 -157.5q0 -160 -192 -254v-4q108 -16 171.5 -84t63.5 -182zM1366 1638h66l-1018 -1638h-66zM1419 549q207 -156 207 -324q0 -109 -70 -177t-180 -68q-118 0 -185 69t-67 168q0 160 217 324q-98 79 -143 139t-45 129q0 87 64 145
t163 58q100 0 158.5 -58.5t58.5 -142.5q0 -74 -41 -126.5t-143 -131.5zM1210 809q0 -55 38.5 -106.5t137.5 -127.5q94 71 128 122.5t34 113.5q0 68 -46 116t-122 48t-123 -46.5t-47 -119.5zM1380 16q87 0 138 55.5t51 153.5q0 76 -49.5 145.5t-149.5 147.5
q-194 -152 -194 -301q0 -81 56 -141t148 -60z" />
    <glyph glyph-name="fiveeighths" unicode="&#x215d;" horiz-adv-x="1697" 
d="M629 1024q0 -177 -91 -285t-229 -108q-65 0 -115.5 20.5t-50.5 48.5q0 29 35 29q10 0 16.5 -4t15 -14t13.5 -15q28 -28 107 -28q42 0 83 19.5t77 58.5t58.5 106t22.5 152q0 136 -53 201t-143 65q-83 0 -144 -49l-36 26l88 391h317l-14 -49h-277l-73 -321l6 -4
q58 55 153 55q77 0 131.5 -44t78.5 -109t24 -142zM1294 1638h66l-1018 -1638h-66zM1348 549q206 -155 206 -324q0 -109 -69.5 -177t-179.5 -68q-118 0 -185 69t-67 168q0 160 217 324q-98 79 -143.5 139t-45.5 129q0 87 64.5 145t163.5 58q100 0 158.5 -58.5t58.5 -142.5
q0 -74 -41 -126t-144 -132zM1139 809q0 -55 38.5 -106.5t137.5 -127.5q94 71 128 122.5t34 113.5q0 68 -46 116t-122 48t-123 -46.5t-47 -119.5zM1309 16q87 0 137.5 55.5t50.5 153.5q0 76 -49.5 145.5t-149.5 147.5q-194 -152 -194 -301q0 -81 56 -141t149 -60z" />
    <glyph glyph-name="seveneighths" unicode="&#x215e;" horiz-adv-x="1613" 
d="M596 1589h-363q-57 0 -76.5 -24t-41.5 -125l-25 4l33 160l8 34h526l-319 -991l-41 8l299 930v4zM1210 1638h66l-1018 -1638h-65zM1264 549q206 -155 206 -324q0 -109 -69.5 -177t-179.5 -68q-118 0 -185 69t-67 168q0 160 217 324q-98 79 -143.5 139t-45.5 129
q0 87 64.5 145t163.5 58q100 0 158.5 -58.5t58.5 -142.5q0 -74 -41 -126t-144 -132zM1055 809q0 -55 38.5 -106.5t137.5 -127.5q94 71 128 122.5t34 113.5q0 68 -46 116t-122 48t-123 -46.5t-47 -119.5zM1225 16q87 0 137.5 55.5t50.5 153.5q0 76 -49.5 145.5t-149.5 147.5
q-194 -152 -194 -301q0 -81 56 -141t149 -60z" />
    <glyph glyph-name="arrowleft" unicode="&#x2190;" horiz-adv-x="1648" 
d="M1546 512h-1052q-46 0 -129 10t-129 10v-6q126 -72 201.5 -152.5t133.5 -178.5l-61 -62q-77 133 -172.5 231t-235.5 168v41q140 70 235 168t173 232l61 -62q-58 -98 -133.5 -178.5t-201.5 -152.5v-7q46 0 129 10.5t129 10.5h1052v-82z" />
    <glyph glyph-name="arrowup" unicode="&#x2191;" horiz-adv-x="1044" 
d="M563 -82h-82v1053q0 46 10.5 129t10.5 129h-6q-72 -126 -153 -202t-179 -134l-62 61q134 78 232 173t168 235h41q70 -140 168 -235.5t231 -172.5l-61 -61q-98 58 -179 134t-153 202h-6q0 -46 10 -129t10 -129v-1053z" />
    <glyph glyph-name="arrowright" unicode="&#x2192;" horiz-adv-x="1648" 
d="M102 512v82h1053q46 0 129 -10.5t129 -10.5v7q-126 72 -202 153t-134 178l62 62q78 -134 172.5 -232t234.5 -168v-41q-140 -70 -234.5 -167.5t-172.5 -231.5l-62 62q58 97 134 178t202 153v6q-46 0 -129 -10t-129 -10h-1053z" />
    <glyph glyph-name="arrowdown" unicode="&#x2193;" horiz-adv-x="1044" 
d="M563 1239v-1053q0 -46 -10 -129t-10 -129h6q72 126 153 202t179 134l61 -61q-133 -77 -231 -172.5t-168 -235.5h-41q-70 140 -168 235t-232 173l62 61q98 -58 179 -134t153 -202h6q0 46 -10.5 129t-10.5 129v1053h82z" />
    <glyph glyph-name="arrowboth" unicode="&#x2194;" horiz-adv-x="2140" 
d="M1630 973q78 -134 173 -232t235 -168v-41q-140 -70 -235.5 -168t-172.5 -231l-61 62q58 97 134 178t202 153v6q-46 0 -129 -10t-129 -10h-1153q-46 0 -129 10t-129 10v-6q126 -72 201.5 -152.5t133.5 -178.5l-61 -62q-77 133 -172.5 231t-235.5 168v41q140 70 235 168
t173 232l61 -62q-58 -98 -133.5 -178.5t-201.5 -152.5v-7q46 0 129 10.5t129 10.5h1153q46 0 129 -10.5t129 -10.5v7q-126 72 -202 153t-134 178z" />
    <glyph glyph-name="arrowupdn" unicode="&#x2195;" horiz-adv-x="1044" 
d="M549 -283q72 126 153 202t179 134l61 -61q-133 -77 -231 -172.5t-168 -235.5h-41q-70 140 -168 235t-232 173l62 61q98 -58 179 -134t153 -202h6q0 46 -10.5 129t-10.5 129v1153q0 46 10.5 129t10.5 129h-6q-72 -126 -152.5 -201t-179.5 -134l-62 61q134 78 232 173
t168 235h41q70 -140 168 -235.5t231 -172.5l-61 -61q-99 59 -179.5 134t-152.5 201h-6q0 -46 10 -129t10 -129v-1153q0 -46 -10 -129t-10 -129h6z" />
    <glyph glyph-name="uni2196" unicode="&#x2196;" horiz-adv-x="1269" 
d="M1108 20l-743 746q-34 33 -85 99t-83 98l-4 -5q26 -97 31 -188.5t-3 -152.5t-26 -132h-86q25 98 35 182.5t1 186t-43 203.5l29 28q101 -34 202.5 -42.5t185.5 1t183 35.5v-86q-72 -18 -132 -26.5t-152 -3.5t-189 32l-4 -4q33 -33 98.5 -84t98.5 -84l745 -745z" />
    <glyph glyph-name="uni2197" unicode="&#x2197;" horiz-adv-x="1269" 
d="M162 20l-60 58l746 745q33 33 98 84t98 84l-4 4q-97 -27 -189 -32t-152 3.5t-132 26.5v86q99 -25 183.5 -35t186 -1.5t202.5 42.5l28 -28q-34 -102 -42.5 -203.5t1 -185.5t35.5 -183h-86q-18 71 -26 132t-3 152.5t31 188.5l-4 5q-32 -32 -83 -98t-85 -99z" />
    <glyph glyph-name="uni2198" unicode="&#x2198;" horiz-adv-x="1269" 
d="M162 1085l743 -745q34 -33 85 -99t83 -98l4 4q-26 97 -31 189t3 153t26 132h86q-26 -99 -35.5 -183t-1 -185.5t42.5 -203.5l-28 -29q-101 34 -202.5 43t-186.5 -1t-183 -35v86q72 18 132 26.5t152 3.5t189 -32l4 4q-33 33 -98 84t-98 84l-746 745z" />
    <glyph glyph-name="uni2199" unicode="&#x2199;" horiz-adv-x="1269" 
d="M1108 1085l59 -57l-745 -745q-33 -33 -98.5 -84t-98.5 -84l4 -4q97 27 189 32t152 -3.5t132 -26.5v-86q-98 25 -183 35t-186 1t-202 -43l-29 29q34 102 43 203.5t-1 186t-35 182.5h86q18 -71 26 -132t3 -153t-31 -189l4 -4q32 32 83 98t85 99z" />
    <glyph glyph-name="partialdiff" unicode="&#x2202;" horiz-adv-x="1251" 
d="M715 1679q237 0 350 -231t74 -662q-21 -227 -75 -402t-134.5 -285t-181.5 -166t-220 -56q-219 0 -338 169t-75 466q35 236 184.5 384t349.5 148q292 0 426 -268q2 6 2 17q18 182 4.5 318t-43.5 228.5t-82.5 150t-112 82.5t-132.5 25q-50 0 -94.5 -9.5t-93 -33.5
t-95 -70.5t-88.5 -113.5h-41q51 135 164 222t252 87zM528 -61q217 0 356.5 203.5t184.5 570.5q-128 270 -420 270q-161 0 -289.5 -129.5t-162.5 -349.5q-40 -253 51.5 -409t279.5 -156z" />
    <glyph glyph-name="emptyset" unicode="&#x2205;" horiz-adv-x="1261" 
d="M1159 1116l-147 -147q127 -147 127 -338q0 -138 -68 -255t-185 -185t-255 -68q-191 0 -338 127l-148 -148l-43 43l148 148q-127 147 -127 338q0 138 68 255t185 185t255 68q191 0 338 -127l147 147zM184 631q0 -169 111 -293l629 629q-123 110 -293 110q-185 0 -316 -131
t-131 -315zM1077 631q0 170 -110 293l-629 -629q124 -111 293 -111q184 0 315 131t131 316z" />
    <glyph glyph-name="product" unicode="&#x220f;" horiz-adv-x="1519" 
d="M1417 1638q-52 0 -85 -2t-58 -9t-37.5 -15.5t-20 -27.5t-9 -38.5t-1.5 -54.5v-1630q0 -42 3.5 -64t13.5 -41.5t34.5 -27t61 -11.5t98.5 -4v-41h-504v41q62 0 98.5 4t61 11.5t34.5 27t13.5 41.5t3.5 64v1757h-729v-1757q0 -42 3.5 -64t13.5 -41.5t34.5 -27t61 -11.5
t98.5 -4v-41h-504v41q62 0 98.5 4t61 11.5t34.5 27t13.5 41.5t3.5 64v1630q0 35 -1.5 54.5t-9 38.5t-20 27.5t-37.5 15.5t-58 9t-85 2v41h1315v-41z" />
    <glyph glyph-name="summation" unicode="&#x2211;" horiz-adv-x="1374" 
d="M1171 1679l5 -34l30 -310l-41 -4q-8 84 -17 132.5t-20 82.5t-31.5 48t-43 19t-64.5 5h-774l629 -881l-641 -983h805q34 0 55 3t42.5 16.5t35 34.5t29.5 62.5t30 94.5t33 137l39 -8l-84 -373l-10 -49h-1076v41l654 1000v6l-654 919v41h1069z" />
    <glyph glyph-name="minus" unicode="&#x2212;" horiz-adv-x="819" 
d="M102 512v82h615v-82h-615z" />
    <glyph glyph-name="radical" unicode="&#x221a;" horiz-adv-x="1157" 
d="M1157 1751l-262 -1792h-41l-475 1110l-246 -117l-31 54l326 155l428 -999h6l234 1589h61z" />
    <glyph glyph-name="infinity" unicode="&#x221e;" horiz-adv-x="1556" 
d="M1178 1120q119 0 197.5 -82.5t78.5 -232.5q0 -77 -25 -140t-66.5 -101t-91 -58.5t-102.5 -20.5q-33 0 -62 5t-59 20.5t-50.5 27.5t-54 42.5t-52 48t-62.5 62t-67 67.5q-68 -64 -112 -101.5t-95.5 -70.5t-100.5 -46.5t-106 -13.5q-108 0 -177 75t-69 202q0 118 78 197
t197 79q39 0 78 -12t67.5 -27t71.5 -50t68 -58.5t79 -75.5l11 10q69 70 110 107.5t95.5 76t107 54.5t113.5 16zM1169 567q83 0 153.5 65t70.5 173q0 100 -61 166.5t-154 66.5q-24 0 -45.5 -3t-44 -11.5t-39 -15t-40 -23.5t-37 -27t-40 -34.5t-39.5 -36.5t-45 -44t-47 -46
q53 -51 75 -71.5t61 -55t60 -47.5t52.5 -29.5t59.5 -21.5t60 -5zM164 803q0 -81 52 -138t132 -57q82 0 154.5 42.5t197.5 166.5q-110 102 -181 141t-142 39q-95 0 -154 -55.5t-59 -138.5z" />
    <glyph glyph-name="integral" unicode="&#x222b;" horiz-adv-x="839" 
d="M543 39q0 -408 -244 -408q-82 0 -139.5 64.5t-57.5 142.5q0 34 17 54t43 20q27 0 45 -17.5t18 -52.5q0 -28 1 -45.5t6 -39.5t14 -34t26 -21t41 -9q148 0 148 346q0 150 -25.5 326.5t-56.5 313t-56.5 311.5t-25.5 323q0 407 244 407q82 0 139 -64.5t57 -142.5
q0 -34 -16.5 -53.5t-42.5 -19.5q-27 0 -45.5 17.5t-18.5 51.5q0 28 -1 45.5t-6 39.5t-14 34.5t-26 21.5t-41 9q-147 0 -147 -346q0 -150 25.5 -326.5t56.5 -313t56.5 -311.5t25.5 -323z" />
    <glyph glyph-name="approxequal" unicode="&#x2248;" horiz-adv-x="1064" 
d="M922 821h41q0 -103 -60 -158t-151 -55q-55 0 -118 21t-110.5 45.5t-109.5 45.5t-117 21q-136 0 -154 -131h-41q0 103 60 158t151 55q55 0 118 -21t110.5 -45.5t109.5 -45.5t117 -21q136 0 154 131zM922 494h41q0 -103 -60 -158t-151 -55q-55 0 -118 21t-110.5 45.5
t-109.5 45.5t-117 21q-136 0 -154 -131h-41q0 103 60 158t151 55q55 0 118 -21t110.5 -46t109.5 -46t117 -21q136 0 154 132z" />
    <glyph glyph-name="notequal" unicode="&#x2260;" horiz-adv-x="819" 
d="M717 676h-223l-101 -246h324v-82h-357l-106 -266h-66l107 266h-193v82h226l100 246h-326v82h359l106 266h66l-107 -266h191v-82z" />
    <glyph glyph-name="lessequal" unicode="&#x2264;" horiz-adv-x="819" 
d="M717 369l-615 215v112l615 215v-88l-541 -180v-6l541 -180v-88zM717 184h-615v82h615v-82z" />
    <glyph glyph-name="greaterequal" unicode="&#x2265;" horiz-adv-x="819" 
d="M102 369v88l541 180v6l-541 180v88l615 -215v-112zM102 184v82h615v-82h-615z" />
    <glyph glyph-name="uni2460" unicode="&#x2460;" 
d="M965 1679q140 0 271 -42.5t236.5 -121.5t185 -184.5t122.5 -238t43 -275.5q0 -174 -68 -333t-182.5 -274t-273.5 -183t-334 -68q-177 0 -337 68t-275 183t-183 274t-68 333q0 179 67.5 339t183 274.5t275 181.5t337.5 67zM965 1618q-221 0 -405.5 -107.5t-290 -291.5
t-105.5 -402q0 -164 62 -311.5t168.5 -254t255.5 -169t315 -62.5q216 0 399 106t290 289.5t107 401.5q0 163 -63.5 311t-170 255.5t-254 171t-308.5 63.5zM979 434q0 -57 15 -72.5t75 -15.5v-24h-231v24q60 0 75 15.5t15 72.5v746q0 53 -6 60q-10 10 -63 -23q-10 -6 -23 -15
l-15 21l123 80l21 14l14 -12v-871z" />
    <glyph glyph-name="uni2461" unicode="&#x2461;" 
d="M965 1679q140 0 271 -42.5t236.5 -121.5t185 -184.5t122.5 -238t43 -275.5q0 -174 -68 -333t-182.5 -274t-273.5 -183t-334 -68q-177 0 -337 68t-275 183t-183 274t-68 333q0 179 67.5 339t183 274.5t275 181.5t337.5 67zM965 1618q-221 0 -405.5 -107.5t-290 -291.5
t-105.5 -402q0 -164 62 -311.5t168.5 -254t255.5 -169t315 -62.5q216 0 399 106t290 289.5t107 401.5q0 163 -63.5 311t-170 255.5t-254 171t-308.5 63.5zM1124 393q57 0 79.5 21.5t47.5 97.5l23 -6l-41 -131l-10 -31h-566v25q95 85 162 150t136.5 143.5t111.5 145t69 141
t27 145.5q0 42 -8.5 77t-28.5 66t-57 48.5t-88 17.5q-120 0 -184 -86.5t-64 -229.5h-28q0 168 72.5 266.5t211.5 98.5q116 0 174 -71t58 -179q0 -301 -484 -705v-4h387z" />
    <glyph glyph-name="uni2462" unicode="&#x2462;" 
d="M965 1679q140 0 271 -42.5t236.5 -121.5t185 -184.5t122.5 -238t43 -275.5q0 -174 -68 -333t-182.5 -274t-273.5 -183t-334 -68q-177 0 -337 68t-275 183t-183 274t-68 333q0 179 67.5 339t183 274.5t275 181.5t337.5 67zM965 1618q-221 0 -405.5 -107.5t-290 -291.5
t-105.5 -402q0 -164 62 -311.5t168.5 -254t255.5 -169t315 -62.5q216 0 399 106t290 289.5t107 401.5q0 163 -63.5 311t-170 255.5t-254 171t-308.5 63.5zM721 375q0 26 33 26q23 0 53 -26q41 -35 115 -35q42 0 80.5 14t72.5 41.5t54 75t20 109.5q0 71 -24 123t-65 79
t-87 39.5t-99 12.5v24q232 74 232 260q0 70 -40.5 119t-117.5 49q-88 0 -133 -44.5t-65 -119.5h-29q17 105 80 159t155 54q90 0 148.5 -59.5t58.5 -157.5q0 -160 -192 -254v-4q108 -16 171.5 -84t63.5 -182q0 -127 -89.5 -209t-219.5 -82q-67 0 -121.5 21.5t-54.5 50.5z" />
    <glyph glyph-name="uni2463" unicode="&#x2463;" 
d="M965 1679q140 0 271 -42.5t236.5 -121.5t185 -184.5t122.5 -238t43 -275.5q0 -174 -68 -333t-182.5 -274t-273.5 -183t-334 -68q-177 0 -337 68t-275 183t-183 274t-68 333q0 179 67.5 339t183 274.5t275 181.5t337.5 67zM965 1618q-221 0 -405.5 -107.5t-290 -291.5
t-105.5 -402q0 -164 62 -311.5t168.5 -254t255.5 -169t315 -62.5q216 0 399 106t290 289.5t107 401.5q0 163 -63.5 311t-170 255.5t-254 171t-308.5 63.5zM641 614v37l412 660h51v-660h104v-37h-104v-174q0 -57 15 -72.5t75 -15.5v-24h-231v24q60 0 75 15.5t15 72.5v174
h-412zM692 651h361v584l-361 -580v-4z" />
    <glyph glyph-name="uni2464" unicode="&#x2464;" 
d="M965 1679q140 0 271 -42.5t236.5 -121.5t185 -184.5t122.5 -238t43 -275.5q0 -174 -68 -333t-182.5 -274t-273.5 -183t-334 -68q-177 0 -337 68t-275 183t-183 274t-68 333q0 179 67.5 339t183 274.5t275 181.5t337.5 67zM965 1618q-221 0 -405.5 -107.5t-290 -291.5
t-105.5 -402q0 -164 62 -311.5t168.5 -254t255.5 -169t315 -62.5q216 0 399 106t290 289.5t107 401.5q0 163 -63.5 311t-170 255.5t-254 171t-308.5 63.5zM729 385q0 29 35 29q10 0 16.5 -4t15 -14t13.5 -15q29 -29 106 -29q42 0 83 19.5t77.5 58.5t59 106t22.5 152
q0 136 -53 201t-143 65q-83 0 -144 -49l-37 27l88 391h318l-15 -49h-276l-74 -322l6 -4q59 56 154 56q77 0 131.5 -44t78 -109t23.5 -142q0 -177 -90.5 -285.5t-228.5 -108.5q-65 0 -115.5 21t-50.5 49z" />
    <glyph glyph-name="uni2465" unicode="&#x2465;" 
d="M965 1679q140 0 271 -42.5t236.5 -121.5t185 -184.5t122.5 -238t43 -275.5q0 -174 -68 -333t-182.5 -274t-273.5 -183t-334 -68q-177 0 -337 68t-275 183t-183 274t-68 333q0 179 67.5 339t183 274.5t275 181.5t337.5 67zM965 20q216 0 399 106t290 289.5t107 401.5
q0 163 -63.5 311t-170 255.5t-254 171t-308.5 63.5q-221 0 -405.5 -107.5t-290 -291.5t-105.5 -402q0 -164 62 -311.5t168.5 -254t255.5 -169t315 -62.5zM979 991q110 0 168.5 -92.5t58.5 -224.5q0 -66 -15.5 -130t-46 -119t-82.5 -88.5t-118 -33.5q-126 0 -198.5 121
t-67.5 307q2 82 21 160t57.5 151.5t93 132t134.5 101t177 59.5v-24q-89 -24 -161 -69.5t-120 -106t-79 -127t-47 -142.5h4q31 54 89.5 89.5t131.5 35.5zM948 340q96 0 148.5 90t52.5 232q0 55 -10 104.5t-31.5 93t-60 69t-89.5 25.5q-58 0 -114.5 -33.5t-100.5 -99.5
q-8 -70 -8 -102q-5 -166 53 -272.5t160 -106.5z" />
    <glyph glyph-name="uni2466" unicode="&#x2466;" 
d="M965 1679q140 0 271 -42.5t236.5 -121.5t185 -184.5t122.5 -238t43 -275.5q0 -174 -68 -333t-182.5 -274t-273.5 -183t-334 -68q-177 0 -337 68t-275 183t-183 274t-68 333q0 179 67.5 339t183 274.5t275 181.5t337.5 67zM965 1618q-221 0 -405.5 -107.5t-290 -291.5
t-105.5 -402q0 -164 62 -311.5t168.5 -254t255.5 -169t315 -62.5q216 0 399 106t290 289.5t107 401.5q0 163 -63.5 311t-170 255.5t-254 171t-308.5 63.5zM897 295l-41 8l299 930v4h-362q-40 0 -59 -10t-32 -39.5t-28 -100.5l-25 5l33 159l8 35h527z" />
    <glyph glyph-name="uni2467" unicode="&#x2467;" 
d="M965 1679q140 0 271 -42.5t236.5 -121.5t185 -184.5t122.5 -238t43 -275.5q0 -174 -68 -333t-182.5 -274t-273.5 -183t-334 -68q-177 0 -337 68t-275 183t-183 274t-68 333q0 179 67.5 339t183 274.5t275 181.5t337.5 67zM965 20q216 0 399 106t290 289.5t107 401.5
q0 163 -63.5 311t-170 255.5t-254 171t-308.5 63.5q-221 0 -405.5 -107.5t-290 -291.5t-105.5 -402q0 -164 62 -311.5t168.5 -254t255.5 -169t315 -62.5zM1008 872q206 -155 206 -323q0 -109 -69.5 -177.5t-179.5 -68.5q-118 0 -185 69.5t-67 168.5q0 159 217 323
q-98 79 -143.5 139.5t-45.5 129.5q0 87 64.5 144.5t163.5 57.5q100 0 158.5 -58t58.5 -142q0 -74 -41 -126t-144 -132zM799 1133q0 -55 38.5 -106.5t137.5 -127.5q94 71 128 122.5t34 113.5q0 68 -46 115.5t-122 47.5t-123 -46t-47 -119zM969 340q87 0 137.5 55.5
t50.5 153.5q0 76 -49.5 145.5t-149.5 147.5q-194 -152 -194 -301q0 -81 56 -141t149 -60z" />
    <glyph glyph-name="uni2468" unicode="&#x2468;" 
d="M961 1679q177 0 337 -68t275 -183t182.5 -274t67.5 -333q0 -179 -67.5 -339t-182.5 -274.5t-274.5 -181.5t-337.5 -67q-175 0 -334 67t-274 181.5t-183 274.5t-68 339q0 174 68 333t183 274t274 183t334 68zM961 20q166 0 315 63.5t255 171t168 255.5t62 311
q0 164 -62 311.5t-168.5 254t-255 169t-314.5 62.5q-162 0 -309 -62.5t-254 -169t-170.5 -254.5t-63.5 -311t63.5 -311.5t170.5 -255.5t254.5 -170.5t308.5 -63.5zM983 1335q125 0 197 -121t67 -307q-2 -82 -20.5 -160t-57 -151.5t-93.5 -132t-135 -101t-177 -59.5v25
q89 24 161 69.5t120 105.5t79 127t47 142h-2q-33 -55 -91.5 -90t-131.5 -35q-110 0 -168.5 93t-58.5 225q0 67 15.5 130t46 118t83 88.5t119.5 33.5zM1190 920q5 166 -53 272t-160 106q-96 0 -148.5 -89.5t-52.5 -231.5q0 -55 10.5 -105t32 -93.5t60.5 -69t90 -25.5
q56 0 111.5 32.5t99.5 98.5q10 58 10 105z" />
    <glyph glyph-name="uni2469" unicode="&#x2469;" 
d="M965 1679q140 0 271 -42.5t236.5 -121.5t185 -184.5t122.5 -238t43 -275.5q0 -174 -68 -333t-182.5 -274t-273.5 -183t-334 -68q-177 0 -337 68t-275 183t-183 274t-68 333q0 179 67.5 339t183 274.5t275 181.5t337.5 67zM965 1618q-221 0 -405.5 -107.5t-290 -291.5
t-105.5 -402q0 -164 62 -311.5t168.5 -254t255.5 -169t315 -62.5q216 0 399 106t290 289.5t107 401.5q0 163 -63.5 311t-170 255.5t-254 171t-308.5 63.5zM1161 303q-93 0 -157 71t-92.5 184.5t-28.5 260.5q0 109 16.5 201t49.5 163.5t87.5 111.5t124.5 40q93 0 157.5 -71
t93 -184.5t28.5 -260.5t-28.5 -260.5t-93 -184.5t-157.5 -71zM698 434q0 -57 15 -72.5t75 -15.5v-24h-231v24q60 0 75 15.5t15 72.5v746q0 53 -6 60q-10 10 -63 -23q-10 -6 -23 -15l-14 21l123 80l20 14l14 -12v-871zM1161 340q76 0 127 66.5t72.5 171t21.5 241.5
t-21.5 241.5t-72.5 171t-127 66.5t-127 -66.5t-72.5 -171t-21.5 -241.5t21.5 -241.5t72.5 -171t127 -66.5z" />
    <glyph glyph-name="uni246A" unicode="&#x246a;" 
d="M965 1679q140 0 271 -42.5t236.5 -121.5t185 -184.5t122.5 -238t43 -275.5q0 -174 -68 -333t-182.5 -274t-273.5 -183t-334 -68q-177 0 -337 68t-275 183t-183 274t-68 333q0 179 67.5 339t183 274.5t275 181.5t337.5 67zM965 1618q-221 0 -405.5 -107.5t-290 -291.5
t-105.5 -402q0 -164 62 -311.5t168.5 -254t255.5 -169t315 -62.5q216 0 399 106t290 289.5t107 401.5q0 163 -63.5 311t-170 255.5t-254 171t-308.5 63.5zM760 434q0 -57 15 -72.5t75 -15.5v-24h-232v24q60 0 75.5 15.5t15.5 72.5v746q0 54 -7 60q-11 10 -67 -26
q-8 -5 -19 -12l-14 21l123 80l20 14l15 -12v-871zM1210 434q0 -57 15 -72.5t75 -15.5v-24h-231v24q60 0 75 15.5t15 72.5v746q0 53 -6 60q-10 10 -63 -23q-10 -6 -23 -15l-14 21l123 80l20 14l14 -12v-871z" />
    <glyph glyph-name="uni246B" unicode="&#x246b;" 
d="M965 1679q140 0 271 -42.5t236.5 -121.5t185 -184.5t122.5 -238t43 -275.5q0 -174 -68 -333t-182.5 -274t-273.5 -183t-334 -68q-177 0 -337 68t-275 183t-183 274t-68 333q0 179 67.5 339t183 274.5t275 181.5t337.5 67zM965 1618q-221 0 -405.5 -107.5t-290 -291.5
t-105.5 -402q0 -164 62 -311.5t168.5 -254t255.5 -169t315 -62.5q216 0 399 106t290 289.5t107 401.5q0 163 -63.5 311t-170 255.5t-254 171t-308.5 63.5zM1305 371q57 0 79.5 21.5t47.5 96.5l22 -6l-41 -131l-10 -30h-565v24q120 107 200 188t155.5 175.5t112.5 184.5
t37 177q0 42 -8.5 77t-28.5 66t-57 48.5t-88 17.5q-120 0 -184 -86t-64 -229h-28q0 168 72.5 266t211.5 98q116 0 174 -71t58 -179q0 -301 -483 -704v-4h387zM657 434q0 -57 15.5 -72.5t75.5 -15.5v-24h-232v24q60 0 75 15.5t15 72.5v746q0 53 -6 60q-10 10 -63 -23
q-10 -6 -23 -15l-14 21l123 80l20 14l14 -12v-871z" />
    <glyph glyph-name="uni246C" unicode="&#x246c;" 
d="M965 1679q140 0 271 -42.5t236.5 -121.5t185 -184.5t122.5 -238t43 -275.5q0 -174 -68 -333t-182.5 -274t-273.5 -183t-334 -68q-177 0 -337 68t-275 183t-183 274t-68 333q0 179 67.5 339t183 274.5t275 181.5t337.5 67zM965 1618q-221 0 -405.5 -107.5t-290 -291.5
t-105.5 -402q0 -164 62 -311.5t168.5 -254t255.5 -169t315 -62.5q216 0 399 106t290 289.5t107 401.5q0 163 -63.5 311t-170 255.5t-254 171t-308.5 63.5zM909 375q0 26 33 26q23 0 53 -26q41 -35 115 -35q42 0 80.5 14t72.5 41.5t54 75t20 109.5q0 71 -23.5 123t-65 79
t-87 39.5t-98.5 12.5v24q231 74 231 260q0 70 -40 119t-117 49q-88 0 -133.5 -45t-65.5 -119h-29q17 105 80.5 159t155.5 54q90 0 148.5 -59.5t58.5 -157.5q0 -160 -193 -254v-4q108 -16 172 -84t64 -182q0 -127 -90 -209t-220 -82q-67 0 -121.5 21.5t-54.5 50.5zM707 434
q0 -57 15 -72.5t75 -15.5v-24h-232v24q60 0 75 15.5t15 72.5v746q0 53 -6 60q-10 10 -63 -23q-10 -6 -23 -15l-14 21l123 80l20 14l15 -12v-871z" />
    <glyph glyph-name="uni246D" unicode="&#x246d;" 
d="M965 1679q140 0 271 -42.5t236.5 -121.5t185 -184.5t122.5 -238t43 -275.5q0 -174 -68 -333t-182.5 -274t-273.5 -183t-334 -68q-177 0 -337 68t-275 183t-183 274t-68 333q0 179 67.5 339t183 274.5t275 181.5t337.5 67zM965 1618q-221 0 -405.5 -107.5t-290 -291.5
t-105.5 -402q0 -164 62 -311.5t168.5 -254t255.5 -169t315 -62.5q216 0 399 106t290 289.5t107 401.5q0 163 -63.5 311t-170 255.5t-254 171t-308.5 63.5zM664 434q0 -57 15 -72.5t75 -15.5v-24h-232v24q60 0 75 15.5t15 72.5v746q0 53 -6 60q-10 10 -63 -23q-10 -6 -23 -15
l-14 21l123 80l20 14l15 -12v-871zM827 608v37l412 660h51v-660h105v-37h-105v-174q0 -57 15 -72.5t75 -15.5v-24h-231v24q60 0 75 15.5t15 72.5v174h-412zM879 645h360v584l-360 -580v-4z" />
    <glyph glyph-name="uni246E" unicode="&#x246e;" 
d="M965 1679q140 0 271 -42.5t236.5 -121.5t185 -184.5t122.5 -238t43 -275.5q0 -174 -68 -333t-182.5 -274t-273.5 -183t-334 -68q-177 0 -337 68t-275 183t-183 274t-68 333q0 179 67.5 339t183 274.5t275 181.5t337.5 67zM965 1618q-221 0 -405.5 -107.5t-290 -291.5
t-105.5 -402q0 -164 62 -311.5t168.5 -254t255.5 -169t315 -62.5q216 0 399 106t290 289.5t107 401.5q0 163 -63.5 311t-170 255.5t-254 171t-308.5 63.5zM934 385q0 29 35 29q10 0 16.5 -4t15 -14t13.5 -15q29 -29 106 -29q42 0 83 19.5t77.5 58.5t59 106t22.5 152
q0 136 -53.5 201t-143.5 65q-82 0 -143 -49l-37 27l88 391h318l-15 -49h-276l-74 -322l6 -4q59 56 154 56q77 0 131.5 -44t78 -109t23.5 -142q0 -177 -90.5 -285.5t-228.5 -108.5q-65 0 -115.5 21t-50.5 49zM713 434q0 -57 15 -72.5t75 -15.5v-24h-232v24q60 0 75.5 15.5
t15.5 72.5v746q0 54 -7 60q-11 10 -67 -26q-8 -5 -19 -12l-14 21l123 80l20 14l15 -12v-871z" />
    <glyph glyph-name="uni246F" unicode="&#x246f;" 
d="M965 1679q140 0 271 -42.5t236.5 -121.5t185 -184.5t122.5 -238t43 -275.5q0 -174 -68 -333t-182.5 -274t-273.5 -183t-334 -68q-177 0 -337 68t-275 183t-183 274t-68 333q0 179 67.5 339t183 274.5t275 181.5t337.5 67zM965 20q216 0 399 106t290 289.5t107 401.5
q0 163 -63.5 311t-170 255.5t-254 171t-308.5 63.5q-221 0 -405.5 -107.5t-290 -291.5t-105.5 -402q0 -164 62 -311.5t168.5 -254t255.5 -169t315 -62.5zM1188 991q110 0 168.5 -92.5t58.5 -224.5q0 -66 -15.5 -130t-46 -119t-82.5 -88.5t-118 -33.5q-126 0 -198.5 121
t-67.5 307q2 82 21 160t57.5 151.5t93 132t134.5 101t177 59.5v-24q-89 -24 -161 -69.5t-120 -106t-79 -127t-47 -142.5h4q31 54 89.5 89.5t131.5 35.5zM670 434q0 -57 15 -72.5t75 -15.5v-24h-232v24q60 0 75 15.5t15 72.5v746q0 53 -6 60q-10 10 -63 -23q-10 -6 -23 -15
l-14 21l123 80l20 14l15 -12v-871zM1157 340q96 0 148.5 90t52.5 232q0 55 -10 104.5t-31.5 93t-60 69t-89.5 25.5q-58 0 -114.5 -33.5t-100.5 -99.5q-8 -70 -8 -102q-5 -166 53 -272.5t160 -106.5z" />
    <glyph glyph-name="uni2470" unicode="&#x2470;" 
d="M965 1679q140 0 271 -42.5t236.5 -121.5t185 -184.5t122.5 -238t43 -275.5q0 -174 -68 -333t-182.5 -274t-273.5 -183t-334 -68q-177 0 -337 68t-275 183t-183 274t-68 333q0 179 67.5 339t183 274.5t275 181.5t337.5 67zM965 1618q-221 0 -405.5 -107.5t-290 -291.5
t-105.5 -402q0 -164 62 -311.5t168.5 -254t255.5 -169t315 -62.5q216 0 399 106t290 289.5t107 401.5q0 163 -63.5 311t-170 255.5t-254 171t-308.5 63.5zM676 434q0 -57 15 -72.5t75 -15.5v-24h-231v24q60 0 75 15.5t15 72.5v746q0 54 -7 60q-11 10 -67 -26q-8 -5 -19 -12
l-14 21l123 80l21 14l14 -12v-871zM1102 324l-41 8l299 930v4h-363q-57 0 -76.5 -24.5t-41.5 -125.5l-25 4l33 160l8 35h526z" />
    <glyph glyph-name="uni2471" unicode="&#x2471;" 
d="M965 1679q140 0 271 -42.5t236.5 -121.5t185 -184.5t122.5 -238t43 -275.5q0 -174 -68 -333t-182.5 -274t-273.5 -183t-334 -68q-177 0 -337 68t-275 183t-183 274t-68 333q0 179 67.5 339t183 274.5t275 181.5t337.5 67zM965 20q216 0 399 106t290 289.5t107 401.5
q0 163 -63.5 311t-170 255.5t-254 171t-308.5 63.5q-221 0 -405.5 -107.5t-290 -291.5t-105.5 -402q0 -164 62 -311.5t168.5 -254t255.5 -169t315 -62.5zM1196 872q207 -156 207 -323q0 -109 -70 -177.5t-180 -68.5q-118 0 -185 69.5t-67 168.5q0 159 217 323
q-97 79 -142.5 139.5t-45.5 129.5q0 87 64 144.5t163 57.5q100 0 158.5 -58t58.5 -142q0 -74 -41 -126.5t-143 -131.5zM676 434q0 -57 15 -72.5t75 -15.5v-24h-231v24q60 0 75 15.5t15 72.5v746q0 54 -7 60q-11 10 -67 -26q-8 -5 -19 -12l-14 21l123 80l21 14l14 -12v-871z
M987 1133q0 -55 38.5 -106.5t137.5 -127.5q94 71 128 122.5t34 113.5q0 68 -46 115.5t-122 47.5t-123 -46t-47 -119zM1157 340q87 0 138 55.5t51 153.5q0 76 -49.5 145.5t-149.5 147.5q-195 -153 -195 -301q0 -81 56 -141t149 -60z" />
    <glyph glyph-name="uni2472" unicode="&#x2472;" 
d="M965 1679q140 0 271 -42.5t236.5 -121.5t185 -184.5t122.5 -238t43 -275.5q0 -174 -68 -333t-182.5 -274t-273.5 -183t-334 -68q-177 0 -337 68t-275 183t-183 274t-68 333q0 179 67.5 339t183 274.5t275 181.5t337.5 67zM965 20q216 0 399 106t290 289.5t107 401.5
q0 163 -63.5 311t-170 255.5t-254 171t-308.5 63.5q-221 0 -405.5 -107.5t-290 -291.5t-105.5 -402q0 -164 62 -311.5t168.5 -254t255.5 -169t315 -62.5zM1178 1335q125 0 197 -121t67 -307q-2 -82 -20.5 -160t-57 -151.5t-94 -132t-135.5 -101t-177 -59.5v25
q173 47 273.5 166t134.5 278h-2q-33 -55 -91.5 -90t-131.5 -35q-110 0 -169 93t-59 225q0 66 16 130t46.5 118.5t83 88t119.5 33.5zM690 434q0 -57 15 -72.5t75 -15.5v-24h-231v24q60 0 75 15.5t15 72.5v746q0 53 -6 60q-10 10 -63 -23q-10 -6 -23 -15l-15 21l123 80l21 14
l14 -12v-871zM1384 920q5 166 -53 272t-160 106q-96 0 -148 -89.5t-52 -231.5q0 -55 10.5 -105t31.5 -93.5t60 -69t90 -25.5q56 0 111.5 32.5t99.5 98.5q10 58 10 105z" />
    <glyph glyph-name="uni2473" unicode="&#x2473;" 
d="M965 1679q140 0 271 -42.5t236.5 -121.5t185 -184.5t122.5 -238t43 -275.5q0 -174 -68 -333t-182.5 -274t-273.5 -183t-334 -68q-177 0 -337 68t-275 183t-183 274t-68 333q0 179 67.5 339t183 274.5t275 181.5t337.5 67zM965 1618q-221 0 -405.5 -107.5t-290 -291.5
t-105.5 -402q0 -164 62 -311.5t168.5 -254t255.5 -169t315 -62.5q216 0 399 106t290 289.5t107 401.5q0 163 -63.5 311t-170 255.5t-254 171t-308.5 63.5zM1323 303q-93 0 -157.5 71t-93 184.5t-28.5 260.5t28.5 260.5t93 184.5t157.5 71t157.5 -71t93 -184.5t28.5 -260.5
t-28.5 -260.5t-93 -184.5t-157.5 -71zM838 365q57 0 79.5 21.5t47.5 96.5l22 -6l-41 -131l-10 -31h-565v25q95 85 162 150t136.5 143.5t111.5 145t69 141t27 145.5q0 42 -9 77t-28.5 66t-57 48.5t-88.5 17.5q-120 0 -184 -86.5t-64 -229.5h-28q0 168 72.5 266.5t211.5 98.5
q116 0 174 -71t58 -179q0 -301 -483 -704v-4h387zM1323 340q76 0 127 66.5t72.5 171t21.5 241.5t-21.5 241.5t-72.5 171t-127 66.5t-127 -66.5t-72.5 -171t-21.5 -241.5t21.5 -241.5t72.5 -171t127 -66.5z" />
    <glyph glyph-name="uni24EA" unicode="&#x24ea;" 
d="M965 1679q140 0 271 -42.5t236.5 -121.5t185 -184.5t122.5 -238t43 -275.5q0 -174 -68 -333t-182.5 -274t-273.5 -183t-334 -68q-177 0 -337 68t-275 183t-183 274t-68 333q0 179 67.5 339t183 274.5t275 181.5t337.5 67zM965 1618q-221 0 -405.5 -107.5t-290 -291.5
t-105.5 -402q0 -164 62 -311.5t168.5 -254t255.5 -169t315 -62.5q216 0 399 106t290 289.5t107 401.5q0 163 -63.5 311t-170 255.5t-254 171t-308.5 63.5zM948 303q-93 0 -157 71t-92.5 184.5t-28.5 260.5q0 109 16.5 201t49.5 163.5t87.5 111.5t124.5 40q93 0 157.5 -71
t93 -184.5t28.5 -260.5t-28.5 -260.5t-93 -184.5t-157.5 -71zM948 340q76 0 127 66.5t72.5 171t21.5 241.5t-21.5 241.5t-72.5 171t-127 66.5t-127 -66.5t-72.5 -171t-21.5 -241.5t21.5 -241.5t72.5 -171t127 -66.5z" />
    <glyph glyph-name="uni24EB" unicode="&#x24eb;" 
d="M965 1679q-178 0 -337.5 -67t-275 -181.5t-183 -274.5t-67.5 -339q0 -174 68 -333t183 -274t275 -183t337 -68q175 0 334 68t273.5 183t182.5 274t68 333q0 143 -43 275.5t-122.5 238t-185 184.5t-236.5 121.5t-271 42.5zM766 453q0 -57 15 -72.5t75 -15.5v-25h-231v25
q60 0 75 15.5t15 72.5v745v9q0 48 -9 53q-12 7 -78 -36q-2 -1 -5 -3l-15 20l123 80l21 14l14 -12v-870zM1202 453q0 -57 15 -72.5t75 -15.5v-25h-231v25q60 0 75 15.5t15 72.5v745q0 53 -6 60q-10 11 -65 -23l-21 -14l-15 20l123 80l21 14l14 -12v-870z" />
    <glyph glyph-name="uni24EC" unicode="&#x24ec;" 
d="M965 1679q-178 0 -337.5 -67t-275 -181.5t-183 -274.5t-67.5 -339q0 -174 68 -333t183 -274t275 -183t337 -68q175 0 334 68t273.5 183t182.5 274t68 333q0 143 -43 275.5t-122.5 238t-185 184.5t-236.5 121.5t-271 42.5zM1303 389q57 0 79.5 21.5t47.5 97.5l22 -6
l-41 -131l-10 -31h-565v25q120 107 200 188t155.5 175.5t112.5 184.5t37 177q0 57 -14.5 101t-57 75.5t-110.5 31.5q-120 0 -184 -86t-64 -229h-28q0 168 72.5 266.5t211.5 98.5q116 0 174 -71t58 -179q0 -301 -484 -705v-4h388zM635 453q0 -57 15 -72.5t75 -15.5v-25h-231
v25q60 0 75 15.5t15 72.5v745q0 53 -6 60q-10 11 -65 -23l-21 -14l-15 20l123 80l21 14l14 -12v-870z" />
    <glyph glyph-name="uni24ED" unicode="&#x24ed;" 
d="M965 1679q-178 0 -337.5 -67t-275 -181.5t-183 -274.5t-67.5 -339q0 -174 68 -333t183 -274t275 -183t337 -68q175 0 334 68t273.5 183t182.5 274t68 333q0 143 -43 275.5t-122.5 238t-185 184.5t-236.5 121.5t-271 42.5zM911 375q0 26 33 26q23 0 53 -26q41 -35 115 -35
q42 0 80.5 14t72.5 41.5t54 75t20 109.5q0 71 -23.5 123t-65 79t-87 39.5t-98.5 12.5v24q231 74 231 260q0 70 -40 119t-117 49q-88 0 -133.5 -45t-65.5 -119h-29q17 105 80.5 159t155.5 54q90 0 148.5 -59.5t58.5 -157.5q0 -160 -193 -254v-4q108 -16 172 -84t64 -182
q0 -127 -90 -209t-220 -82q-67 0 -121.5 21.5t-54.5 50.5zM668 434q0 -57 15 -72.5t75 -15.5v-24h-232v24q60 0 75 15.5t15 72.5v746q0 53 -6 60q-10 10 -63 -23q-10 -6 -23 -15l-14 21l123 80l20 14l15 -12v-871z" />
    <glyph glyph-name="uni24EE" unicode="&#x24ee;" 
d="M965 1679q-178 0 -337.5 -67t-275 -181.5t-183 -274.5t-67.5 -339q0 -174 68 -333t183 -274t275 -183t337 -68q175 0 334 68t273.5 183t182.5 274t68 333q0 143 -43 275.5t-122.5 238t-185 184.5t-236.5 121.5t-271 42.5zM649 453q0 -57 15 -72.5t75 -15.5v-25h-231v25
q60 0 75 15.5t15 72.5v745v9q0 48 -9 53q-12 7 -78 -36q-2 -1 -5 -3l-14 20l122 80l21 14l14 -12v-870zM834 627v37l411 659h51v-659h105v-37h-105v-174q0 -57 15 -72.5t75 -15.5v-25h-231v25q60 0 75 15.5t15 72.5v174h-411zM885 664h360v583l-360 -579v-4z" />
    <glyph glyph-name="uni24EF" unicode="&#x24ef;" 
d="M965 1679q-178 0 -337.5 -67t-275 -181.5t-183 -274.5t-67.5 -339q0 -174 68 -333t183 -274t275 -183t337 -68q175 0 334 68t273.5 183t182.5 274t68 333q0 143 -43 275.5t-122.5 238t-185 184.5t-236.5 121.5t-271 42.5zM907 385q0 29 35 29q10 0 16.5 -4t15 -14
t13.5 -15q29 -29 107 -29q42 0 83 19.5t77 58.5t58.5 106t22.5 152q0 136 -53 201t-143 65q-83 0 -144 -49l-37 27l89 391h317l-14 -49h-277l-74 -322l7 -4q59 56 153 56q77 0 131.5 -44t78.5 -109t24 -142q0 -177 -91 -285.5t-229 -108.5q-65 0 -115.5 21t-50.5 49z
M686 434q0 -57 15 -72.5t75 -15.5v-24h-231v24q60 0 75 15.5t15 72.5v746q0 53 -6 60q-10 10 -63 -23q-10 -6 -23 -15l-15 21l123 80l21 14l14 -12v-871z" />
    <glyph glyph-name="uni24F0" unicode="&#x24f0;" 
d="M965 1679q-178 0 -337.5 -67t-275 -181.5t-183 -274.5t-67.5 -339q0 -174 68 -333t183 -274t275 -183t337 -68q175 0 334 68t273.5 183t182.5 274t68 333q0 143 -43 275.5t-122.5 238t-185 184.5t-236.5 121.5t-271 42.5zM877 731q2 82 20.5 160t57 151.5t93.5 132
t135 101t177 59.5v-24q-90 -24 -162 -69.5t-120.5 -106t-79.5 -127t-48 -142.5h4q33 54 92 89.5t132 35.5q110 0 168.5 -92.5t58.5 -224.5q0 -67 -15.5 -130.5t-46 -118.5t-83 -88.5t-119.5 -33.5q-125 0 -197 121t-67 307zM659 434q0 -57 15.5 -72.5t75.5 -15.5v-24h-232
v24q60 0 75 15.5t15 72.5v746q0 53 -6 60q-10 10 -63 -23q-10 -6 -23 -15l-14 21l123 80l20 14l14 -12v-871zM934 719q-5 -166 53 -272.5t160 -106.5q96 0 148.5 90t52.5 232q0 75 -17.5 138t-62.5 108.5t-113 45.5q-122 0 -213 -133q-8 -70 -8 -102z" />
    <glyph glyph-name="uni24F1" unicode="&#x24f1;" 
d="M965 1679q-178 0 -337.5 -67t-275 -181.5t-183 -274.5t-67.5 -339q0 -174 68 -333t183 -274t275 -183t337 -68q175 0 334 68t273.5 183t182.5 274t68 333q0 143 -43 275.5t-122.5 238t-185 184.5t-236.5 121.5t-271 42.5zM674 434q0 -57 15 -72.5t75 -15.5v-24h-232v24
q60 0 75.5 15.5t15.5 72.5v746q0 54 -7 60q-11 10 -67 -26q-8 -5 -19 -12l-14 21l123 80l20 14l15 -12v-871zM1079 324l-41 8l299 930v4h-362q-40 0 -59 -10t-32 -39.5t-28 -100.5l-25 4l33 160l8 35h527z" />
    <glyph glyph-name="uni24F2" unicode="&#x24f2;" 
d="M965 1679q-178 0 -337.5 -67t-275 -181.5t-183 -274.5t-67.5 -339q0 -174 68 -333t183 -274t275 -183t337 -68q175 0 334 68t273.5 183t182.5 274t68 333q0 143 -43 275.5t-122.5 238t-185 184.5t-236.5 121.5t-271 42.5zM846 535q0 167 264 329q-111 74 -163 140
t-52 135q0 84 70.5 140t183.5 56q114 0 184 -57.5t70 -136.5q0 -74 -47 -132.5t-162 -131.5q133 -90 195.5 -170.5t62.5 -163.5q0 -105 -83 -172.5t-220 -67.5q-144 0 -223.5 68t-79.5 164zM621 434q0 -57 15 -72.5t75 -15.5v-24h-232v24q60 0 75 15.5t15 72.5v746v9
q0 48 -9 53q-12 6 -76 -35q-3 -3 -7 -5l-14 21l123 80l20 14l15 -12v-871zM961 1139q0 -55 42.5 -111.5t157.5 -130.5q109 72 142.5 125t33.5 119q0 65 -51 111t-137 46q-87 0 -137.5 -45t-50.5 -114zM911 535q0 -78 67 -136.5t187 -58.5q105 0 163 54t58 149q0 75 -59 148
t-184 153q-232 -151 -232 -309z" />
    <glyph glyph-name="uni24F3" unicode="&#x24f3;" 
d="M965 1679q-178 0 -337.5 -67t-275 -181.5t-183 -274.5t-67.5 -339q0 -174 68 -333t183 -274t275 -183t337 -68q175 0 334 68t273.5 183t182.5 274t68 333q0 143 -43 275.5t-122.5 238t-185 184.5t-236.5 121.5t-271 42.5zM1458 907q-2 -82 -20.5 -160t-57 -151.5
t-93.5 -132t-135 -101t-177 -59.5v25q90 24 162 69.5t120 105.5t79 126.5t48 142.5h-4q-33 -55 -91.5 -90t-131.5 -35q-110 0 -168.5 93t-58.5 225q0 67 15.5 130t46 118t83 88.5t119.5 33.5q125 0 197 -121t67 -307zM688 434q0 -57 15 -72.5t75 -15.5v-24h-231v24
q60 0 75 15.5t15 72.5v746q0 53 -6 60q-10 10 -63 -23q-10 -6 -23 -15l-15 21l123 80l21 14l14 -12v-871zM1401 920q0 168 -56 273t-157 105q-96 0 -148.5 -89.5t-52.5 -231.5q0 -55 10.5 -105t32 -93.5t60.5 -69t90 -25.5q122 0 213 133q8 70 8 103z" />
    <glyph glyph-name="uni24F4" unicode="&#x24f4;" 
d="M965 1679q-178 0 -337.5 -67t-275 -181.5t-183 -274.5t-67.5 -339q0 -174 68 -333t183 -274t275 -183t337 -68q175 0 334 68t273.5 183t182.5 274t68 333q0 143 -43 275.5t-122.5 238t-185 184.5t-236.5 121.5t-271 42.5zM1333 303q-93 0 -157 71t-92.5 184.5
t-28.5 260.5q0 109 16.5 201t49.5 163.5t87.5 111.5t124.5 40q93 0 157.5 -71t93 -184.5t28.5 -260.5t-28.5 -260.5t-93 -184.5t-157.5 -71zM827 365q57 0 79.5 21.5t47.5 96.5l23 -6l-41 -131l-10 -31h-566v25q95 85 162 150t136.5 143.5t111.5 145t69 141t27 145.5
q0 42 -8.5 77t-28.5 66t-57 48.5t-88 17.5q-120 0 -184 -86.5t-64 -229.5h-28q0 168 72.5 266.5t211.5 98.5q116 0 174 -71t58 -179q0 -300 -484 -704v-4h387zM1333 340q76 0 127 66.5t72.5 171t21.5 241.5t-21.5 241.5t-72.5 171t-127 66.5t-127 -66.5t-72.5 -171
t-21.5 -241.5t21.5 -241.5t72.5 -171t127 -66.5z" />
    <glyph glyph-name="uni24FF" unicode="&#x24ff;" 
d="M965 1679q-178 0 -337.5 -67t-275 -181.5t-183 -274.5t-67.5 -339q0 -174 68 -333t183 -274t275 -183t337 -68q175 0 334 68t273.5 183t182.5 274t68 333q0 143 -43 275.5t-122.5 238t-185 184.5t-236.5 121.5t-271 42.5zM948 303q-93 0 -157 71t-92.5 184.5t-28.5 260.5
q0 109 16.5 201t49.5 163.5t87.5 111.5t124.5 40q93 0 157.5 -71t93 -184.5t28.5 -260.5t-28.5 -260.5t-93 -184.5t-157.5 -71zM948 340q76 0 127 66.5t72.5 171t21.5 241.5t-21.5 241.5t-72.5 171t-127 66.5t-127 -66.5t-72.5 -171t-21.5 -241.5t21.5 -241.5t72.5 -171
t127 -66.5z" />
    <glyph glyph-name="lozenge" unicode="&#x25ca;" horiz-adv-x="1062" 
d="M575 1638l386 -811l-386 -811h-92l-381 811l381 811h92zM532 106l338 721l-338 721h-6l-333 -721l333 -721h6z" />
    <glyph glyph-name="uni2776" unicode="&#x2776;" 
d="M965 1679q-178 0 -337.5 -67t-275 -181.5t-183 -274.5t-67.5 -339q0 -174 68 -333t183 -274t275 -183t337 -68q175 0 334 68t273.5 183t182.5 274t68 333q0 143 -43 275.5t-122.5 238t-185 184.5t-236.5 121.5t-271 42.5zM979 434q0 -57 15 -72.5t75 -15.5v-24h-231v24
q60 0 75 15.5t15 72.5v746q0 53 -6 60q-10 10 -63 -23q-10 -6 -23 -15l-15 21l123 80l21 14l14 -12v-871z" />
    <glyph glyph-name="uni2777" unicode="&#x2777;" 
d="M965 1679q-178 0 -337.5 -67t-275 -181.5t-183 -274.5t-67.5 -339q0 -174 68 -333t183 -274t275 -183t337 -68q175 0 334 68t273.5 183t182.5 274t68 333q0 143 -43 275.5t-122.5 238t-185 184.5t-236.5 121.5t-271 42.5zM1124 385q57 0 79.5 21.5t47.5 97.5l23 -6
l-41 -131l-10 -31h-566v24q95 85 162 150t136.5 143.5t111.5 145t69 141t27 145.5q0 42 -8.5 77t-28.5 66t-57 48.5t-88 17.5q-120 0 -184 -86t-64 -229h-28q0 168 72.5 266t211.5 98q116 0 174 -70.5t58 -178.5q0 -301 -484 -705v-4h387z" />
    <glyph glyph-name="uni2778" unicode="&#x2778;" 
d="M965 1679q-178 0 -337.5 -67t-275 -181.5t-183 -274.5t-67.5 -339q0 -174 68 -333t183 -274t275 -183t337 -68q175 0 334 68t273.5 183t182.5 274t68 333q0 143 -43 275.5t-122.5 238t-185 184.5t-236.5 121.5t-271 42.5zM721 375q0 26 33 26q23 0 53 -26q41 -35 115 -35
q42 0 80.5 14t72.5 41.5t54 75t20 109.5q0 71 -24 123t-65 79t-87 39.5t-99 12.5v24q232 74 232 260q0 70 -40.5 119t-117.5 49q-88 0 -133 -44.5t-65 -119.5h-29q17 105 80 159t155 54q90 0 148.5 -59.5t58.5 -157.5q0 -160 -192 -254v-4q108 -16 171.5 -84t63.5 -182
q0 -127 -89.5 -209t-219.5 -82q-67 0 -121.5 21.5t-54.5 50.5z" />
    <glyph glyph-name="uni2779" unicode="&#x2779;" 
d="M965 1679q-178 0 -337.5 -67t-275 -181.5t-183 -274.5t-67.5 -339q0 -174 68 -333t183 -274t275 -183t337 -68q175 0 334 68t273.5 183t182.5 274t68 333q0 143 -43 275.5t-122.5 238t-185 184.5t-236.5 121.5t-271 42.5zM637 614v37l412 660h51v-660h104v-37h-104v-174
q0 -57 15 -72.5t75 -15.5v-24h-232v24q60 0 75.5 15.5t15.5 72.5v174h-412zM688 651h361v584l-361 -580v-4z" />
    <glyph glyph-name="uni277A" unicode="&#x277a;" 
d="M965 1679q-178 0 -337.5 -67t-275 -181.5t-183 -274.5t-67.5 -339q0 -174 68 -333t183 -274t275 -183t337 -68q175 0 334 68t273.5 183t182.5 274t68 333q0 143 -43 275.5t-122.5 238t-185 184.5t-236.5 121.5t-271 42.5zM721 385q0 29 35 29q10 0 16.5 -4t15 -14
t13.5 -15q29 -29 106 -29q42 0 83 19.5t77.5 58.5t59 106t22.5 152q0 136 -53.5 201t-143.5 65q-82 0 -143 -49l-37 27l88 391h318l-15 -49h-276l-74 -322l6 -4q59 56 154 56q77 0 131.5 -44t78 -109t23.5 -142q0 -177 -90.5 -285.5t-228.5 -108.5q-65 0 -115.5 21t-50.5 49
z" />
    <glyph glyph-name="uni277B" unicode="&#x277b;" 
d="M965 1679q-178 0 -337.5 -67t-275 -181.5t-183 -274.5t-67.5 -339q0 -174 68 -333t183 -274t275 -183t337 -68q175 0 334 68t273.5 183t182.5 274t68 333q0 143 -43 275.5t-122.5 238t-185 184.5t-236.5 121.5t-271 42.5zM678 731q2 82 20.5 160t57 151.5t93.5 132
t135 101t177 59.5v-24q-90 -24 -162 -69.5t-120 -106t-79 -127t-48 -142.5h4q33 55 91.5 90t131.5 35q110 0 168.5 -92.5t58.5 -224.5q0 -67 -15.5 -130.5t-46 -118.5t-83 -88.5t-119.5 -33.5q-125 0 -197 121t-67 307zM735 719q-5 -166 53 -272.5t160 -106.5q96 0 148.5 90
t52.5 232q0 75 -17.5 138t-62.5 108.5t-113 45.5q-122 0 -213 -133q-8 -70 -8 -102z" />
    <glyph glyph-name="uni277C" unicode="&#x277c;" 
d="M965 1679q-178 0 -337.5 -67t-275 -181.5t-183 -274.5t-67.5 -339q0 -174 68 -333t183 -274t275 -183t337 -68q175 0 334 68t273.5 183t182.5 274t68 333q0 143 -43 275.5t-122.5 238t-185 184.5t-236.5 121.5t-271 42.5zM895 283l-41 8l299 930v4h-362q-40 0 -59 -10
t-32 -39.5t-28 -100.5l-25 4l33 160l8 35h526z" />
    <glyph glyph-name="uni277D" unicode="&#x277d;" 
d="M965 1679q-178 0 -337.5 -67t-275 -181.5t-183 -274.5t-67.5 -339q0 -174 68 -333t183 -274t275 -183t337 -68q175 0 334 68t273.5 183t182.5 274t68 333q0 143 -43 275.5t-122.5 238t-185 184.5t-236.5 121.5t-271 42.5zM713 541q0 161 217 325q-99 80 -144 139t-45 128
q0 87 64 144.5t164 57.5q99 0 158 -58.5t59 -141.5q0 -74 -41 -126t-144 -132q213 -160 213 -328q0 -109 -69.5 -177.5t-181.5 -68.5q-116 0 -183 69.5t-67 168.5zM799 1133q0 -54 38.5 -106t135.5 -128q94 73 128 123.5t34 112.5q0 69 -45 116t-121 47t-123 -46t-47 -119z
M762 541q0 -81 57 -141t150 -60q87 0 137.5 55.5t50.5 153.5q0 76 -49.5 145.5t-149.5 149.5q-196 -157 -196 -303z" />
    <glyph glyph-name="uni277E" unicode="&#x277e;" 
d="M961 -41q178 0 337.5 67t274.5 181.5t182.5 274.5t67.5 339q0 174 -67.5 333t-182.5 274t-275 183t-337 68q-175 0 -334 -68t-274 -183t-183 -274t-68 -333q0 -179 68 -339t183 -274.5t274 -181.5t334 -67zM1247 907q-2 -82 -20.5 -160t-57 -151.5t-93.5 -132t-135 -101
t-177 -59.5v25q90 24 162 69.5t120.5 105.5t79.5 126.5t48 142.5h-5q-33 -55 -91.5 -90t-131.5 -35q-110 0 -168.5 93t-58.5 225q0 67 15.5 130t46 118t83 88.5t119.5 33.5q125 0 197 -121t67 -307zM1190 920q5 166 -53 272t-160 106q-96 0 -148.5 -89.5t-52.5 -231.5
q0 -55 10.5 -105t32 -93.5t60.5 -69t90 -25.5q122 0 213 133q8 70 8 103z" />
    <glyph glyph-name="uni277F" unicode="&#x277f;" 
d="M965 1679q-178 0 -337.5 -67t-275 -181.5t-183 -274.5t-67.5 -339q0 -174 68 -333t183 -274t275 -183t337 -68q175 0 334 68t273.5 183t182.5 274t68 333q0 143 -43 275.5t-122.5 238t-185 184.5t-236.5 121.5t-271 42.5zM1135 303q-93 0 -157.5 71t-93 184.5
t-28.5 260.5t28.5 260.5t93 184.5t157.5 71t157 -71t92.5 -184.5t28.5 -260.5q0 -109 -16.5 -201t-49.5 -163.5t-87.5 -111.5t-124.5 -40zM672 434q0 -57 15 -72.5t75 -15.5v-24h-232v24q60 0 75.5 15.5t15.5 72.5v746q0 54 -7 60q-11 10 -67 -26q-8 -5 -19 -12l-14 21
l123 80l20 14l15 -12v-871zM1135 340q76 0 127 66.5t72.5 171t21.5 241.5t-21.5 241.5t-72.5 171t-127 66.5q-57 0 -101 -37.5t-69.5 -104t-38.5 -151.5t-13 -186t13 -186t38.5 -151.5t69.5 -104t101 -37.5z" />
    <glyph glyph-name="i.loclTRK" horiz-adv-x="434" 
d="M182 1372q-34 0 -58 24t-24 58t24 58t58 24t58 -24t24 -58t-24 -58t-58 -24zM264 188q0 -96 21.5 -121.5t107.5 -25.5v-41h-332v41q86 0 107.5 25.5t21.5 121.5v709v15q0 35 -0.5 49t-3.5 31.5t-9 21t-18.5 6t-29.5 -3t-45 -15.5l-14 37l139 56l35 12l20 -21v-897z" />
    <glyph glyph-name="C_O" horiz-adv-x="2177" 
d="M82 819q0 238 68 432t200.5 311t306.5 117q70 0 132.5 -19t97.5 -42.5t67 -42.5t47 -19q21 0 28 19t7 84h41l31 -563h-41q-52 522 -410 522q-112 0 -206 -63t-156 -172t-96.5 -254.5t-34.5 -309.5t34.5 -309.5t96.5 -254.5t156 -172t206 -63q129 0 232 83t165.5 226.5
t84.5 332.5h41q-24 -210 -88.5 -365t-178.5 -246.5t-266 -91.5q-174 0 -304 117t-195.5 310.5t-65.5 432.5zM1708 696q-107 0 -191.5 66t-130 177.5t-45.5 248.5t45.5 248.5t130 177t191.5 65.5t191.5 -65.5t130 -177t45.5 -248.5t-45.5 -248.5t-130 -177.5t-191.5 -66z
M1747 760q95 8 154.5 70.5t79.5 159t10 222.5q-16 193 -96.5 304t-223.5 100q-95 -8 -155 -71t-80.5 -160t-8.5 -222q18 -194 97.5 -304t222.5 -99zM1698 -41q-34 0 -58 24t-24 58t24 58t58 24t58 -24t24 -58t-24 -58t-58 -24z" />
    <glyph glyph-name="L_L" horiz-adv-x="1792" 
d="M537 1638v-41q-52 0 -85 -2t-58 -9t-37.5 -15.5t-20 -27.5t-9 -38.5t-1.5 -54.5v-1272q0 -72 18 -94.5t78 -22.5h405q34 0 55 3.5t43 17.5t36 36.5t31 66t32 100t35 145.5l41 -8l-92 -395l-7 -27h-960v41q52 0 85 2t58 9t37.5 15.5t20 27.5t9 38.5t1.5 54.5v1262
q0 35 -1.5 54.5t-9 38.5t-20 27.5t-37.5 15.5t-58 9t-85 2v41h496zM1290 1638v-41q-52 0 -85 -2t-58 -9t-37.5 -15.5t-20 -27.5t-9 -38.5t-1.5 -54.5v-657q0 -72 18.5 -94.5t78.5 -22.5h282q52 0 79 9t54.5 49t47.5 109t51 201l41 -8l-93 -395l-6 -27h-837v41q62 0 98.5 4
t61 11.5t34.5 27t13.5 41.5t3.5 64v647q0 35 -1.5 54.5t-9 38.5t-20 27.5t-37.5 15.5t-58 9t-85 2v41h495z" />
    <glyph glyph-name="L_T_D" horiz-adv-x="2668" 
d="M537 1638v-41q-52 0 -85 -2t-58 -9t-37.5 -15.5t-20 -27.5t-9 -38.5t-1.5 -54.5v-1272q0 -72 18 -94.5t78 -22.5h405q34 0 55 3.5t43 17.5t36 36.5t31 66t32 100t35 145.5l41 -8l-92 -395l-7 -27h-960v41q52 0 85 2t58 9t37.5 15.5t20 27.5t9 38.5t1.5 54.5v1262
q0 35 -1.5 54.5t-9 38.5t-20 27.5t-37.5 15.5t-58 9t-85 2v41h496zM1167 1577q-52 0 -77.5 -5t-46 -28t-29 -63t-15.5 -117l-41 4l23 229l4 41h760l4 -41l23 -229l-41 -4q-7 77 -15.5 117t-29 63t-46 28t-77.5 5h-162v-651q0 -53 3 -77t18.5 -43t43.5 -23.5t82 -4.5v-41
h-368v41q54 0 82 4.5t43.5 23.5t18.5 43t3 77v651h-160zM1853 737v41q54 0 82 4.5t44 23.5t19 43.5t3 76.5v524q0 52 -3 76.5t-19 43t-44 23t-82 4.5v41h345q178 0 283.5 -122.5t105.5 -327.5t-105.5 -328t-283.5 -123h-345zM2198 799q142 0 224.5 102t82.5 287t-82.5 287
t-224.5 102q-76 0 -123 -21v-737q44 -20 123 -20zM1776 -41q-34 0 -58 24t-24 58t24 58t58 24t58 -24t24 -58t-24 -58t-58 -24z" />
    <glyph glyph-name="O_O" horiz-adv-x="2048" 
d="M1391 1679q175 0 307.5 -117t200 -311t67.5 -432t-67.5 -432t-200 -311t-307.5 -117q-218 0 -367 176q-149 -176 -367 -176q-174 0 -306.5 117t-200.5 311t-68 432t68 432t200.5 311t306.5 117q218 0 367 -176q149 176 367 176zM1460 25q148 13 251.5 131t146 302.5
t22.5 403.5q-20 220 -93 394.5t-195.5 273.5t-270.5 86q-158 -14 -268 -150q87 -118 133.5 -285.5t46.5 -361.5q0 -359 -148 -600q74 -102 169.5 -153t205.5 -41zM727 25q159 15 268 149q-87 118 -133.5 285t-46.5 360q0 172 38.5 327t109.5 271q-74 104 -169.5 156
t-205.5 43q-148 -14 -252 -132.5t-147 -303.5t-23 -404q15 -164 62 -305.5t118.5 -244.5t170 -157.5t210.5 -43.5zM993 1372q-125 -236 -94 -596q28 -307 156 -510q123 237 92 596q-28 305 -154 510z" />
    <glyph glyph-name="S_T" horiz-adv-x="1912" 
d="M125 0v582h41q0 -127 33 -234t87.5 -178t124.5 -110.5t146 -39.5q141 0 222 88.5t81 233.5q0 31 -7 61.5t-15.5 56.5t-28.5 57.5t-34 53t-45 54.5t-48 51t-56.5 53.5t-57.5 51t-63.5 54.5t-62.5 54q-60 54 -87 78t-70 65.5t-61 64.5t-43 58t-34 63t-16.5 63.5t-7.5 74.5
q0 149 98 236t256 87q77 0 141.5 -25.5t98 -56t60.5 -56t38 -25.5q9 0 14 6.5t9 34t4 81.5h41v-473h-41q0 195 -104.5 324t-262.5 129q-134 0 -202 -75t-68 -179q0 -47 17 -94.5t38 -82.5t64.5 -81t70 -70t82.5 -71.5t76 -65.5q21 -19 59 -53q63 -56 91.5 -82.5t72.5 -70
t63 -68.5t44 -63.5t34.5 -71t17 -74t7.5 -88.5q0 -114 -54.5 -200t-137 -127.5t-177.5 -41.5q-67 0 -124 17t-92.5 41t-62.5 48t-48.5 41t-36.5 17q-25 0 -34 -27t-9 -96h-41zM1249 1577q-52 0 -77.5 -5t-46 -28t-29 -63t-15.5 -117l-41 4l23 229l4 41h758l4 -41l22 -229
l-41 -4q-7 77 -15.5 117t-29 63t-46 28t-77.5 5h-159v-651q0 -53 3 -77t18.5 -43t43.5 -23.5t82 -4.5v-41h-368v41q54 0 82 4.5t43.5 23.5t18.5 43t3 77v651h-160zM1446 -41q-34 0 -58 24t-24 58t24 58t58 24t58 -24t24 -58t-24 -58t-58 -24z" />
    <glyph glyph-name="s_t" horiz-adv-x="1306" 
d="M1225 451h41q0 -101 -5 -174t-18 -136t-35 -101.5t-57 -59.5t-84 -21q-100 0 -148.5 84.5t-48.5 278.5v682h-174v61q123 0 165 63.5t42 229.5q0 109 -50.5 174t-141.5 65q-100 0 -152.5 -72.5t-52.5 -207.5q0 -59 9 -118.5t19 -101.5t31.5 -96.5t33 -79.5t37 -76.5
t30.5 -62.5l-37 -18q-69 139 -104 187q-76 102 -175 102q-72 0 -119 -46.5t-47 -109.5q0 -29 10.5 -58t23 -50t40 -50.5t43 -44t52.5 -47t50 -43.5q13 -12 39 -35q59 -52 85 -77t62 -64t50.5 -66t25.5 -64t11 -79q0 -117 -78 -188.5t-192 -71.5q-49 0 -91 13t-64.5 28
t-43.5 28t-33 13q-17 0 -23 -14.5t-6 -46.5h-41v395h41q0 -163 71.5 -263t182.5 -100q99 0 147 55.5t48 147.5q0 29 -6 55t-22.5 52.5t-30 45.5t-43.5 48t-47 44t-57 49t-58 50q-123 108 -158 148q-70 81 -70 170q0 100 68 164.5t174 64.5q123 0 191 -111l4 2
q-95 147 -95 353q0 139 69 234t196 95q109 0 172 -82t63 -239v-293h252v-61h-252v-601q0 -66 1 -105.5t5 -86.5t13 -73.5t23 -51t37 -35t54 -10.5q53 0 84.5 36t47.5 126.5t16 247.5z" />
    <glyph glyph-name="zero.dnom" horiz-adv-x="598" 
d="M285 -20q-93 0 -157.5 71t-93 184.5t-28.5 260.5t28.5 260.5t93 184.5t157.5 71t157 -71t92.5 -184.5t28.5 -260.5q0 -109 -16.5 -201t-49.5 -163.5t-87.5 -111.5t-124.5 -40zM285 16q76 0 127 67t72.5 171.5t21.5 241.5t-21.5 241.5t-72.5 171t-127 66.5
q-57 0 -101 -37.5t-69.5 -104t-38.5 -151.5t-13 -186t13 -186t38.5 -152t69.5 -104.5t101 -37.5z" />
    <glyph glyph-name="one.dnom" horiz-adv-x="282" 
d="M158 113q0 -57 15 -72.5t75 -15.5v-25h-232v25q60 0 75 15.5t15 72.5v745q0 53 -6 60q-10 11 -65 -23l-21 -14l-14 20l123 80l20 14l15 -12v-870z" />
    <glyph glyph-name="two.dnom" horiz-adv-x="653" 
d="M430 49q57 0 79.5 21.5t47.5 97.5l23 -6l-41 -131l-11 -31h-565v25q95 85 162 150t136.5 143.5t111.5 145t69 141t27 145.5q0 90 -42.5 149t-139.5 59q-120 0 -184 -86t-64 -229h-29q0 168 73 266.5t212 98.5q115 0 173 -71t58 -179q0 -302 -483 -705v-4h387z" />
    <glyph glyph-name="three.dnom" horiz-adv-x="526" 
d="M-8 51q0 27 33 27q22 0 53 -27q41 -35 115 -35q42 0 80.5 14t72.5 41.5t54 75t20 109.5q0 71 -24 123t-65 79t-87 39.5t-99 12.5v25q232 74 232 260q0 70 -40.5 119t-117.5 49q-88 0 -133.5 -45t-65.5 -119h-28q17 105 80 159t155 54q90 0 148.5 -59.5t58.5 -157.5
q0 -160 -192 -254v-4q108 -15 171.5 -84t63.5 -183q0 -127 -89.5 -208.5t-219.5 -81.5q-67 0 -121.5 21t-54.5 50z" />
    <glyph glyph-name="four.dnom" horiz-adv-x="608" 
d="M20 287v37l412 659h51v-659h105v-37h-105v-174q0 -57 15 -72.5t75 -15.5v-25h-231v25q60 0 75 15.5t15 72.5v174h-412zM72 324h360v583l-360 -579v-4z" />
    <glyph glyph-name="five.dnom" horiz-adv-x="526" 
d="M20 49q0 29 35 29q10 0 16.5 -4t14.5 -14.5t12 -14.5q33 -29 109 -29q42 0 83 19.5t77.5 58.5t59 106t22.5 152q0 136 -53.5 201t-143.5 65q-82 0 -143 -49l-37 27l88 391h317l-14 -49h-277l-73 -322l6 -4q59 56 153 56q77 0 131.5 -44t78.5 -109t24 -142
q0 -177 -91 -285t-229 -108q-66 0 -116 20.5t-50 48.5z" />
    <glyph glyph-name="six.dnom" horiz-adv-x="569" 
d="M322 668q110 0 168.5 -93t58.5 -225q0 -66 -15.5 -130t-46 -118.5t-82.5 -88t-118 -33.5q-126 0 -199 121t-68 307q2 82 21 160t57.5 151.5t93.5 132t135 101t177 59.5v-25q-173 -47 -273.5 -166t-134.5 -278h4q31 54 90 89.5t132 35.5zM291 16q96 0 148.5 90t52.5 232
q0 75 -17.5 138.5t-62 109t-111.5 45.5q-58 0 -114.5 -33.5t-100.5 -99.5q-8 -70 -8 -103q-5 -166 53 -272.5t160 -106.5z" />
    <glyph glyph-name="seven.dnom" horiz-adv-x="604" 
d="M236 -6l-41 8l299 930v4h-363q-40 0 -59 -10t-32 -39.5t-28 -100.5l-24 5l32 159l9 35h526z" />
    <glyph glyph-name="eight.dnom" horiz-adv-x="542" 
d="M315 549q207 -156 207 -324q0 -109 -70 -177t-180 -68q-118 0 -185 69t-67 168q0 159 218 324q-98 79 -143.5 139t-45.5 129q0 87 64 145t163 58t158.5 -59t59.5 -142q0 -74 -41 -126t-144 -132zM106 809q0 -54 39 -106t138 -128q93 71 126 122t33 114q0 69 -45.5 116.5
t-120.5 47.5q-76 0 -123 -46.5t-47 -119.5zM276 16q87 0 138 55.5t51 153.5q0 76 -49.5 145.5t-149.5 147.5q-196 -153 -196 -301q0 -81 56.5 -141t149.5 -60z" />
    <glyph glyph-name="nine.dnom" horiz-adv-x="569" 
d="M285 1012q125 0 197 -121t67 -307q-2 -82 -20.5 -160t-57 -151.5t-93.5 -132t-135 -101t-177 -59.5v24q89 24 161 69.5t120 106t79 127t47 142.5h-2q-33 -55 -91.5 -90t-131.5 -35q-110 0 -169 92.5t-59 224.5q0 66 16 130t46.5 119t83 88.5t119.5 33.5zM492 596
q5 166 -53 272.5t-160 106.5q-96 0 -148.5 -90t-52.5 -232q0 -55 10.5 -105t31.5 -93.5t60 -69t90 -25.5q56 0 111.5 33t99.5 99q11 64 11 104z" />
    </font>
</defs>
</svg>
